<svg width="22" height="22" viewBox="0 0 22 22" fill="none" xmlns="http://www.w3.org/2000/svg">
<path d="M6.46265 9.05576L3.87031 11.6481C3.48726 12.0311 3.18341 12.4859 2.97611 12.9863C2.76881 13.4868 2.66211 14.0232 2.66211 14.5649C2.66211 15.1066 2.76881 15.643 2.97611 16.1435C3.18341 16.644 3.48726 17.0987 3.87031 17.4818L4.5184 18.1298C4.90138 18.513 5.3561 18.8169 5.85658 19.0243C6.35705 19.2317 6.89349 19.3384 7.43523 19.3384C7.97697 19.3384 8.5134 19.2317 9.01388 19.0243C9.51436 18.8169 9.96908 18.513 10.3521 18.1298L12.9444 15.5375C13.0279 15.4511 13.0741 15.3353 13.073 15.2151C13.072 15.0949 13.0238 14.98 12.9388 14.895C12.8538 14.81 12.7389 14.7618 12.6187 14.7608C12.4985 14.7597 12.3828 14.8059 12.2963 14.8894L9.70398 17.4818C9.10193 18.0828 8.28596 18.4204 7.43523 18.4204C6.58449 18.4204 5.76852 18.0828 5.16648 17.4818L4.5184 16.8337C3.91709 16.2317 3.57934 15.4157 3.57934 14.5649C3.57934 13.7141 3.91709 12.8981 4.5184 12.2962L7.11073 9.70384C7.19422 9.6174 7.24042 9.50162 7.23937 9.38145C7.23833 9.26127 7.19012 9.14632 7.10515 9.06134C7.02017 8.97636 6.90521 8.92816 6.78504 8.92711C6.66486 8.92607 6.54909 8.97227 6.46265 9.05576ZM15.5376 12.9443L18.13 10.3519C18.513 9.96888 18.8169 9.51414 19.0242 9.01367C19.2315 8.5132 19.3382 7.9768 19.3382 7.43509C19.3382 6.89338 19.2315 6.35698 19.0242 5.85651C18.8169 5.35604 18.513 4.9013 18.13 4.51826L17.4819 3.87017C17.0989 3.48702 16.6442 3.18307 16.1437 2.9757C15.6432 2.76833 15.1068 2.66159 14.5651 2.66159C14.0233 2.66159 13.4869 2.76833 12.9864 2.9757C12.4859 3.18307 12.0312 3.48702 11.6482 3.87017L9.05589 6.46251C8.97241 6.54895 8.92621 6.66472 8.92725 6.7849C8.9283 6.90507 8.9765 7.02003 9.06148 7.10501C9.14646 7.18998 9.26141 7.23819 9.38159 7.23923C9.50176 7.24028 9.61754 7.19408 9.70398 7.11059L12.2963 4.51826C12.8984 3.91718 13.7143 3.57958 14.5651 3.57958C15.4158 3.57958 16.2318 3.91718 16.8338 4.51826L17.4819 5.16634C18.0832 5.76827 18.421 6.58428 18.421 7.43509C18.421 8.2859 18.0832 9.10191 17.4819 9.70384L14.8896 12.2962C14.8061 12.3826 14.7599 12.4984 14.7609 12.6186C14.762 12.7387 14.8102 12.8537 14.8951 12.9387C14.9801 13.0237 15.0951 13.0719 15.2153 13.0729C15.3354 13.0739 15.4512 13.0277 15.5376 12.9443Z" fill="black"/>
<path d="M8.08338 14.5649L14.5651 8.08317C14.6486 7.99673 14.6948 7.88095 14.6938 7.76078C14.6927 7.6406 14.6445 7.52565 14.5596 7.44067C14.4746 7.35569 14.3596 7.30749 14.2394 7.30644C14.1193 7.3054 14.0035 7.3516 13.9171 7.43509L7.4353 13.9168C7.35181 14.0033 7.30561 14.1191 7.30666 14.2392C7.3077 14.3594 7.3559 14.4744 7.44088 14.5593C7.52586 14.6443 7.64082 14.6925 7.76099 14.6936C7.88116 14.6946 7.99694 14.6484 8.08338 14.5649ZM17.4178 15.5833L17.416 20.1667C17.416 20.2882 17.4643 20.4048 17.5502 20.4908C17.6362 20.5767 17.7527 20.625 17.8743 20.625C17.9959 20.625 18.1124 20.5767 18.1984 20.4908C18.2843 20.4048 18.3326 20.2882 18.3326 20.1667L18.3345 15.5833C18.3345 15.4618 18.2862 15.3452 18.2002 15.2592C18.1143 15.1733 17.9977 15.125 17.8761 15.125C17.7546 15.125 17.638 15.1733 17.552 15.2592C17.4661 15.3452 17.4178 15.4618 17.4178 15.5833Z" fill="black"/>
<path d="M15.5833 18.3324L20.1667 18.3343C20.2882 18.3343 20.4048 18.286 20.4908 18.2C20.5767 18.1141 20.625 17.9975 20.625 17.8759C20.625 17.7544 20.5767 17.6378 20.4908 17.5518C20.4048 17.4659 20.2882 17.4176 20.1667 17.4176L15.5833 17.4158C15.4618 17.4158 15.3452 17.4641 15.2592 17.55C15.1733 17.636 15.125 17.7525 15.125 17.8741C15.125 17.9957 15.1733 18.1122 15.2592 18.1982C15.3452 18.2841 15.4618 18.3324 15.5833 18.3324Z" fill="black"/>
</svg>
