<svg width="25" height="25" viewBox="0 0 25 25" fill="none" xmlns="http://www.w3.org/2000/svg">
<g clip-path="url(#clip0_137_891)">
<path d="M22.1133 -1.52588e-05H2.88677C1.67329 -1.52588e-05 0.686035 0.987191 0.686035 2.20072V19.4343C0.686035 20.6477 1.67324 21.635 2.88677 21.635H9.86393L11.8897 24.6737C12.18 25.109 12.8204 25.1086 13.1104 24.6737L15.1362 21.635H22.1134C23.3269 21.635 24.3141 20.6478 24.3141 19.4343V2.20072C24.3141 0.987191 23.3268 -1.52588e-05 22.1133 -1.52588e-05ZM22.8469 19.4343C22.8469 19.8387 22.5178 20.1678 22.1133 20.1678H14.7436C14.6229 20.1678 14.504 20.1976 14.3975 20.2546C14.291 20.3116 14.2003 20.394 14.1333 20.4945L12.5001 22.9443L10.8669 20.4945C10.7999 20.394 10.7091 20.3116 10.6027 20.2546C10.4962 20.1976 10.3773 20.1678 10.2565 20.1678H2.88677C2.48231 20.1678 2.15319 19.8387 2.15319 19.4343V2.20072C2.15319 1.79621 2.48231 1.46714 2.88677 1.46714H22.1133C22.5178 1.46714 22.8469 1.79621 22.8469 2.20072V19.4343Z" fill="black"/>
<path d="M19.5544 3.1702L13.6232 5.58177H7.10589C5.63359 5.58177 4.43579 6.77956 4.43579 8.25182V10.6352C4.43579 12.0878 5.60192 13.2723 7.04707 13.3038L6.19388 17.7976C6.1081 18.2491 6.45471 18.668 6.91457 18.668H9.87231C10.0431 18.668 10.2086 18.6084 10.3402 18.4994C10.4717 18.3905 10.5611 18.239 10.593 18.0712L11.4979 13.3053H13.6231L19.5543 15.7169C20.0343 15.912 20.5642 15.5598 20.5642 15.0373V3.84976C20.5642 3.32995 20.0363 2.97402 19.5544 3.1702ZM5.90295 10.6352V8.25187C5.90295 7.58858 6.44256 7.04897 7.10589 7.04897H13.033V11.8382H7.10589C6.44256 11.8382 5.90295 11.2985 5.90295 10.6352ZM9.26491 17.2009H7.80055L8.5401 13.3053H10.0045L9.26491 17.2009ZM19.0971 13.9472L14.5002 12.0781V6.80902L19.0971 4.93995V13.9472Z" fill="black"/>
</g>
<defs>
<clipPath id="clip0_137_891">
<rect width="25" height="25" fill="white"/>
</clipPath>
</defs>
</svg>
