<svg width="17" height="17" viewBox="0 0 17 17" fill="none" xmlns="http://www.w3.org/2000/svg">
<path d="M8.49997 11.6875C8.4302 11.6876 8.3611 11.6739 8.29664 11.6472C8.23219 11.6205 8.17365 11.5813 8.12438 11.5319L2.81188 6.21938C2.60429 6.01179 2.60429 5.67564 2.81188 5.46819C3.01946 5.26074 3.35561 5.2606 3.56307 5.46819L8.49997 10.4051L13.4369 5.46819C13.6445 5.2606 13.9806 5.2606 14.1881 5.46819C14.3955 5.67578 14.3957 6.01192 14.1881 6.21938L8.87557 11.5319C8.8263 11.5813 8.76775 11.6205 8.7033 11.6472C8.63884 11.6739 8.56974 11.6876 8.49997 11.6875Z" fill="black"/>
</svg>
