<svg width="17" height="17" viewBox="0 0 17 17" fill="none" xmlns="http://www.w3.org/2000/svg">
<path d="M4.40572 5.15686L3.71881 4.46996V13.8364C3.71881 13.9773 3.66284 14.1124 3.56321 14.2121C3.46359 14.3117 3.32846 14.3677 3.18756 14.3677C3.04667 14.3677 2.91154 14.3117 2.81191 14.2121C2.71228 14.1124 2.65631 13.9773 2.65631 13.8364V4.46996L1.96941 5.15686C1.86921 5.25364 1.73502 5.30718 1.59573 5.30597C1.45643 5.30476 1.32319 5.24889 1.22469 5.15039C1.12619 5.05189 1.07032 4.91865 1.06911 4.77936C1.0679 4.64007 1.12145 4.50587 1.21822 4.40567L2.81197 2.81192C2.91159 2.71233 3.0467 2.65638 3.18756 2.65638C3.32843 2.65638 3.46353 2.71233 3.56316 2.81192L5.15691 4.40567C5.25368 4.50587 5.30723 4.64007 5.30602 4.77936C5.3048 4.91865 5.24893 5.05189 5.15044 5.15039C5.05194 5.24889 4.91869 5.30476 4.7794 5.30597C4.64011 5.30718 4.50591 5.25364 4.40572 5.15686ZM7.43756 6.37502H13.8126C13.9535 6.37502 14.0886 6.43099 14.1882 6.53062C14.2878 6.63025 14.3438 6.76537 14.3438 6.90627C14.3438 7.04717 14.2878 7.18229 14.1882 7.28192C14.0886 7.38155 13.9535 7.43752 13.8126 7.43752H7.43756C7.29667 7.43752 7.16154 7.38155 7.06191 7.28192C6.96228 7.18229 6.90631 7.04717 6.90631 6.90627C6.90631 6.76537 6.96228 6.63025 7.06191 6.53062C7.16154 6.43099 7.29667 6.37502 7.43756 6.37502ZM15.4063 4.25002H7.43756C7.29667 4.25002 7.16154 4.19405 7.06191 4.09442C6.96228 3.99479 6.90631 3.85967 6.90631 3.71877C6.90631 3.57787 6.96228 3.44275 7.06191 3.34312C7.16154 3.24349 7.29667 3.18752 7.43756 3.18752H15.4063C15.5472 3.18752 15.6823 3.24349 15.782 3.34312C15.8816 3.44275 15.9376 3.57787 15.9376 3.71877C15.9376 3.85967 15.8816 3.99479 15.782 4.09442C15.6823 4.19405 15.5472 4.25002 15.4063 4.25002ZM7.43756 9.56252H12.2188C12.3597 9.56252 12.4948 9.61849 12.5945 9.71812C12.6941 9.81775 12.7501 9.95287 12.7501 10.0938C12.7501 10.2347 12.6941 10.3698 12.5945 10.4694C12.4948 10.569 12.3597 10.625 12.2188 10.625H7.43756C7.29667 10.625 7.16154 10.569 7.06191 10.4694C6.96228 10.3698 6.90631 10.2347 6.90631 10.0938C6.90631 9.95287 6.96228 9.81775 7.06191 9.71812C7.16154 9.61849 7.29667 9.56252 7.43756 9.56252ZM7.43756 12.75H10.0938C10.2347 12.75 10.3698 12.806 10.4695 12.9056C10.5691 13.0052 10.6251 13.1404 10.6251 13.2813C10.6251 13.4222 10.5691 13.5573 10.4695 13.6569C10.3698 13.7565 10.2347 13.8125 10.0938 13.8125H7.43756C7.29667 13.8125 7.16154 13.7565 7.06191 13.6569C6.96228 13.5573 6.90631 13.4222 6.90631 13.2813C6.90631 13.1404 6.96228 13.0052 7.06191 12.9056C7.16154 12.806 7.29667 12.75 7.43756 12.75Z" fill="black"/>
</svg>
