<svg width="15" height="15" viewBox="0 0 15 15" fill="none" xmlns="http://www.w3.org/2000/svg">
<g clip-path="url(#clip0_238_274)">
<path d="M14.0626 4.21875C14.064 4.71141 13.9676 5.19945 13.7791 5.65462C13.5905 6.10978 13.3136 6.52304 12.9643 6.87047L6.20964 13.7053C5.94828 13.9671 5.63779 14.1746 5.29599 14.316C4.95419 14.4575 4.58782 14.53 4.21792 14.5294C3.84874 14.53 3.48308 14.4577 3.14192 14.3166C2.80077 14.1755 2.49085 13.9684 2.22995 13.7072C1.70335 13.1793 1.40761 12.4641 1.40761 11.7185C1.40761 10.9729 1.70335 10.2577 2.22995 9.72984L7.10964 4.87781C7.8423 4.14984 9.00667 4.12594 9.70651 4.82484C9.87593 4.99486 10.0084 5.19802 10.0957 5.42161C10.183 5.6452 10.2231 5.88439 10.2137 6.12422C10.1983 6.61217 9.99648 7.07566 9.6498 7.41937L5.01901 12.0502C4.93112 12.1381 4.81191 12.1874 4.68761 12.1874C4.56331 12.1874 4.4441 12.1381 4.3562 12.0502C4.26831 11.9623 4.21893 11.8431 4.21893 11.7188C4.21893 11.5944 4.26831 11.4752 4.3562 11.3873L8.98698 6.75656C9.16651 6.57703 9.26964 6.34266 9.27667 6.09656C9.2818 5.9845 9.26376 5.87259 9.22367 5.76782C9.18359 5.66305 9.12232 5.56767 9.0437 5.48766C8.70854 5.15391 8.13761 5.17781 7.77104 5.5425L2.89183 10.3936C2.54116 10.7456 2.34435 11.2223 2.34452 11.7192C2.3447 12.2161 2.54185 12.6926 2.89276 13.0444C3.24476 13.3953 3.72155 13.5924 4.21862 13.5924C4.71569 13.5924 5.19248 13.3953 5.54448 13.0444L12.2992 6.20953C12.8326 5.67609 13.1251 4.97016 13.1251 4.21875C13.1251 3.46734 12.8326 2.76141 12.3015 2.23031C11.77 1.69875 11.064 1.40625 10.3126 1.40625C9.5612 1.40625 8.85526 1.69875 8.3237 2.23031L1.73683 8.77031C1.69312 8.81368 1.6413 8.84801 1.58433 8.87135C1.52735 8.89469 1.46634 8.90658 1.40477 8.90634C1.28042 8.90586 1.16136 8.856 1.07378 8.76773C0.986196 8.67947 0.937264 8.56002 0.937748 8.43568C0.938231 8.31133 0.988091 8.19227 1.07636 8.10469L7.6623 1.56609C8.36917 0.85875 9.31089 0.46875 10.3126 0.46875C11.3143 0.46875 12.256 0.85875 12.9643 1.5675C13.3137 1.91481 13.5906 2.32798 13.7791 2.78308C13.9676 3.23817 14.064 3.72615 14.0626 4.21875Z" fill="black"/>
</g>
<defs>
<clipPath id="clip0_238_274">
<rect width="15" height="15" fill="white"/>
</clipPath>
</defs>
</svg>
