<svg width="17" height="21" viewBox="0 0 17 21" fill="none" xmlns="http://www.w3.org/2000/svg">
<path d="M14.75 18.3125H2.25001C1.83561 18.3125 1.43819 18.1479 1.14516 17.8549C0.852135 17.5618 0.687515 17.1644 0.687515 16.75V15.9688C0.686395 15.656 0.748441 15.3462 0.869932 15.058C0.991424 14.7697 1.16986 14.509 1.39455 14.2914C1.65035 14.0614 1.85775 13.7827 2.00463 13.4717C2.15151 13.1606 2.23493 12.8234 2.25001 12.4797V8.93751C2.24962 8.10032 2.41742 7.27159 2.74346 6.5005C3.06951 5.72941 3.54714 5.03168 4.14802 4.44873C4.74889 3.86578 5.46076 3.40949 6.24137 3.10695C7.02198 2.8044 7.85541 2.66177 8.6922 2.68751C9.50874 2.67074 10.32 2.82244 11.0753 3.13312C11.8306 3.44381 12.5138 3.90682 13.0822 4.49327C13.6506 5.07972 14.0921 5.77703 14.379 6.54167C14.666 7.30631 14.7923 8.12189 14.75 8.93751V12.4844C14.766 12.8276 14.8502 13.1642 14.9978 13.4744C15.1453 13.7847 15.3533 14.0624 15.6094 14.2914C15.8334 14.5093 16.0111 14.7702 16.1319 15.0584C16.2527 15.3466 16.3141 15.6563 16.3125 15.9688V16.75C16.3125 17.1644 16.1479 17.5618 15.8549 17.8549C15.5618 18.1479 15.1644 18.3125 14.75 18.3125ZM8.50001 4.25001C7.25681 4.25001 6.06453 4.74387 5.18545 5.62295C4.30638 6.50202 3.81251 7.69431 3.81251 8.93751V12.4797C3.7988 13.0322 3.67416 13.5764 3.446 14.0798C3.21785 14.5832 2.89083 15.0356 2.48439 15.4102C2.40975 15.4827 2.35051 15.5696 2.31024 15.6656C2.26997 15.7615 2.24948 15.8647 2.25001 15.9688V16.75H14.75V15.9688C14.7505 15.8647 14.7301 15.7615 14.6898 15.6656C14.6495 15.5696 14.5903 15.4827 14.5156 15.4102C14.1095 15.0364 13.7826 14.5848 13.5544 14.0822C13.3263 13.5795 13.2015 13.0362 13.1875 12.4844V8.93751C13.2264 8.3242 13.1366 7.70955 12.924 7.13295C12.7115 6.55635 12.3808 6.03053 11.9531 5.58921C11.5255 5.14788 11.0103 4.80078 10.4407 4.57016C9.87108 4.33954 9.25955 4.2305 8.64533 4.25001H8.50001Z" fill="black"/>
<path d="M7.25 4.39844C7.1318 4.39851 7.01512 4.37176 6.90875 4.3202C6.80239 4.26864 6.70911 4.19362 6.63594 4.10079C6.32291 3.69637 6.15407 3.19891 6.15625 2.6875C6.15667 2.31663 6.24509 1.95115 6.41426 1.6211C6.58342 1.29106 6.82849 1.00586 7.12933 0.788972C7.43017 0.572078 7.77819 0.429674 8.14478 0.373465C8.51137 0.317255 8.88607 0.348845 9.23807 0.465637C9.59008 0.582429 9.90934 0.78109 10.1696 1.04529C10.4299 1.30949 10.6238 1.63169 10.7353 1.9854C10.8468 2.33911 10.8728 2.71423 10.8111 3.07994C10.7494 3.44565 10.6018 3.7915 10.3805 4.08907C10.3156 4.16878 10.2356 4.23494 10.1452 4.28375C10.0547 4.33257 9.95552 4.36309 9.85326 4.37357C9.75101 4.38405 9.64769 4.3743 9.54921 4.34485C9.45073 4.3154 9.35901 4.26685 9.2793 4.20196C9.1183 4.0709 9.01596 3.88126 8.99479 3.67475C8.97362 3.46824 9.03535 3.26178 9.16641 3.10079C9.22926 2.99805 9.26751 2.88217 9.27817 2.76221C9.28882 2.64224 9.2716 2.52143 9.22784 2.40923C9.18408 2.29702 9.11498 2.19645 9.02592 2.11537C8.93686 2.03429 8.83026 1.9749 8.71445 1.94184C8.59863 1.90878 8.47675 1.90294 8.35831 1.92478C8.23986 1.94662 8.12808 1.99555 8.03168 2.06774C7.93527 2.13994 7.85687 2.23344 7.80258 2.34095C7.7483 2.44846 7.71961 2.56707 7.71875 2.6875C7.71605 2.84825 7.7672 3.00528 7.86406 3.1336C7.95488 3.24883 8.01142 3.38731 8.02719 3.53317C8.04297 3.67904 8.01736 3.82641 7.95328 3.95839C7.8892 4.09038 7.78925 4.20166 7.66488 4.27948C7.5405 4.3573 7.39672 4.39853 7.25 4.39844ZM10.8438 20.6563H6.15625C5.94905 20.6563 5.75034 20.5739 5.60382 20.4274C5.45731 20.2809 5.375 20.0822 5.375 19.875C5.375 19.6678 5.45731 19.4691 5.60382 19.3226C5.75034 19.1761 5.94905 19.0938 6.15625 19.0938H10.8438C11.051 19.0938 11.2497 19.1761 11.3962 19.3226C11.5427 19.4691 11.625 19.6678 11.625 19.875C11.625 20.0822 11.5427 20.2809 11.3962 20.4274C11.2497 20.5739 11.051 20.6563 10.8438 20.6563Z" fill="black"/>
</svg>
