<svg width="19" height="19" viewBox="0 0 19 19" fill="none" xmlns="http://www.w3.org/2000/svg">
<g clip-path="url(#clip0_127_3131)">
<path d="M16.7734 1.48438H15.8828V0H14.3984V1.48438H4.60156V0H3.11719V1.48438H2.22656C0.998836 1.48438 0 2.48321 0 3.71094V16.7734C0 18.0012 0.998836 19 2.22656 19H16.7734C18.0012 19 19 18.0012 19 16.7734V3.71094C19 2.48321 18.0012 1.48438 16.7734 1.48438ZM17.5156 16.7734C17.5156 17.1827 17.1827 17.5156 16.7734 17.5156H2.22656C1.81732 17.5156 1.48438 17.1827 1.48438 16.7734V6.97656H17.5156V16.7734ZM17.5156 5.49219H1.48438V3.71094C1.48438 3.3017 1.81732 2.96875 2.22656 2.96875H3.11719V4.45312H4.60156V2.96875H14.3984V4.45312H15.8828V2.96875H16.7734C17.1827 2.96875 17.5156 3.3017 17.5156 3.71094V5.49219Z" fill="black"/>
<path d="M2.82031 8.53516H4.30469V10.0195H2.82031V8.53516ZM5.78906 8.53516H7.27344V10.0195H5.78906V8.53516ZM8.75781 8.53516H10.2422V10.0195H8.75781V8.53516ZM11.7266 8.53516H13.2109V10.0195H11.7266V8.53516ZM14.6953 8.53516H16.1797V10.0195H14.6953V8.53516ZM2.82031 11.5039H4.30469V12.9883H2.82031V11.5039ZM5.78906 11.5039H7.27344V12.9883H5.78906V11.5039ZM8.75781 11.5039H10.2422V12.9883H8.75781V11.5039ZM11.7266 11.5039H13.2109V12.9883H11.7266V11.5039ZM2.82031 14.4727H4.30469V15.957H2.82031V14.4727ZM5.78906 14.4727H7.27344V15.957H5.78906V14.4727ZM8.75781 14.4727H10.2422V15.957H8.75781V14.4727ZM11.7266 14.4727H13.2109V15.957H11.7266V14.4727ZM14.6953 11.5039H16.1797V12.9883H14.6953V11.5039Z" fill="black"/>
</g>
<defs>
<clipPath id="clip0_127_3131">
<rect width="19" height="19" fill="white"/>
</clipPath>
</defs>
</svg>
