<svg width="16" height="16" viewBox="0 0 16 16" fill="none" xmlns="http://www.w3.org/2000/svg">
<path d="M1.14747 14.8526C1.19391 14.8991 1.24905 14.9359 1.30975 14.9611C1.37045 14.9863 1.43551 14.9992 1.50122 14.9992C1.56693 14.9992 1.63199 14.9863 1.69269 14.9611C1.75339 14.9359 1.80853 14.8991 1.85497 14.8526L7.99997 8.70756L14.1475 14.8526C14.2413 14.9464 14.3685 14.9991 14.5012 14.9991C14.6339 14.9991 14.7611 14.9464 14.855 14.8526C14.9488 14.7587 15.0015 14.6315 15.0015 14.4988C15.0015 14.3661 14.9488 14.2389 14.855 14.1451L8.70747 8.00006L14.8525 1.85256C14.9463 1.75874 14.999 1.6315 14.999 1.49881C14.999 1.36613 14.9463 1.23888 14.8525 1.14506C14.7586 1.05124 14.6314 0.998535 14.4987 0.998535C14.366 0.998535 14.2388 1.05124 14.145 1.14506L7.99997 7.29256L1.85247 1.14756C1.75682 1.06565 1.63378 1.02285 1.50794 1.02771C1.38211 1.03257 1.26274 1.08473 1.17369 1.17378C1.08464 1.26283 1.03248 1.3822 1.02762 1.50804C1.02276 1.63387 1.06556 1.75691 1.14747 1.85256L7.29247 8.00006L1.14747 14.1476C1.05435 14.2412 1.00208 14.368 1.00208 14.5001C1.00208 14.6322 1.05435 14.7589 1.14747 14.8526Z" fill="black"/>
</svg>
