<svg width="22" height="22" viewBox="0 0 22 22" fill="none" xmlns="http://www.w3.org/2000/svg">
<path d="M18.5623 13.2917H15.354C14.804 13.2917 14.3136 13.5392 13.979 13.9242C13.6444 13.5392 13.154 13.2917 12.604 13.2917H9.39567C8.84567 13.2917 8.35525 13.5392 8.02067 13.9242C7.68609 13.5392 7.19567 13.2917 6.64567 13.2917H3.43734C2.42442 13.2917 1.604 14.1121 1.604 15.125V19.25C1.604 19.5021 1.81025 19.7083 2.06234 19.7083H19.9373C20.1894 19.7083 20.3957 19.5021 20.3957 19.25V15.125C20.3957 14.1121 19.5753 13.2917 18.5623 13.2917ZM7.56234 18.7917H2.52067V15.125C2.52067 14.6208 2.93317 14.2083 3.43734 14.2083H6.64567C7.14984 14.2083 7.56234 14.6208 7.56234 15.125V18.7917ZM13.5207 18.7917H8.479V15.125C8.479 14.6208 8.8915 14.2083 9.39567 14.2083H12.604C13.1082 14.2083 13.5207 14.6208 13.5207 15.125V18.7917ZM19.479 18.7917H14.4373V15.125C14.4373 14.6208 14.8498 14.2083 15.354 14.2083H18.5623C19.0665 14.2083 19.479 14.6208 19.479 15.125V18.7917ZM2.06234 3.20833H2.2915V11.4583C2.2915 11.7104 2.49775 11.9167 2.74984 11.9167H18.7915C19.0436 11.9167 19.2498 11.7104 19.2498 11.4583V3.20833H19.479C19.7311 3.20833 19.9373 3.00208 19.9373 2.75C19.9373 2.49791 19.7311 2.29166 19.479 2.29166H2.06234C1.81025 2.29166 1.604 2.49791 1.604 2.75C1.604 3.00208 1.81025 3.20833 2.06234 3.20833ZM3.20817 3.20833H18.3332V11H3.20817V3.20833Z" fill="black"/>
</svg>
