<svg width="20" height="19" viewBox="0 0 20 19" fill="none" xmlns="http://www.w3.org/2000/svg">
<g clip-path="url(#clip0_125_506)">
<path d="M14.75 1.58333C16.4964 1.58333 17.9167 3.00358 17.9167 4.75V14.25C17.9167 15.9964 16.4964 17.4167 14.75 17.4167H5.25C3.50358 17.4167 2.08333 15.9964 2.08333 14.25V4.75C2.08333 3.00358 3.50358 1.58333 5.25 1.58333H14.75ZM14.75 0H5.25C3.99022 0 2.78204 0.500445 1.89124 1.39124C1.00044 2.28204 0.5 3.49022 0.5 4.75L0.5 14.25C0.5 15.5098 1.00044 16.718 1.89124 17.6088C2.78204 18.4996 3.99022 19 5.25 19H14.75C16.0098 19 17.218 18.4996 18.1088 17.6088C18.9996 16.718 19.5 15.5098 19.5 14.25V4.75C19.5 3.49022 18.9996 2.28204 18.1088 1.39124C17.218 0.500445 16.0098 0 14.75 0Z" fill="black"/>
<path d="M8.38264 13.4583C8.1754 13.4583 7.97644 13.377 7.82847 13.2319L5.56668 11.0152C5.41666 10.8683 5.33117 10.6677 5.32902 10.4577C5.32796 10.3537 5.34738 10.2506 5.38619 10.1541C5.425 10.0576 5.48243 9.96971 5.5552 9.89543C5.62798 9.82115 5.71467 9.76193 5.81033 9.72115C5.90599 9.68037 6.00875 9.65884 6.11273 9.65777C6.32274 9.65562 6.525 9.73698 6.67502 9.88395L8.38264 11.5583L13.4826 6.55974C13.5568 6.48692 13.6446 6.42942 13.7411 6.39055C13.8375 6.35167 13.9407 6.33217 14.0447 6.33317C14.1487 6.33416 14.2514 6.35562 14.3471 6.39633C14.4428 6.43704 14.5295 6.4962 14.6024 6.57043C14.6752 6.64466 14.7327 6.73251 14.7716 6.82896C14.8104 6.9254 14.8299 7.02857 14.8289 7.13255C14.828 7.23653 14.8065 7.33931 14.7658 7.43499C14.7251 7.53068 14.6659 7.61742 14.5917 7.69024L8.93681 13.2319C8.78884 13.377 8.58988 13.4583 8.38264 13.4583Z" fill="black"/>
</g>
<defs>
<clipPath id="clip0_125_506">
<rect width="19" height="19" fill="white" transform="translate(0.5)"/>
</clipPath>
</defs>
</svg>
