<svg width="20" height="19" viewBox="0 0 20 19" fill="none" xmlns="http://www.w3.org/2000/svg">
<path d="M5.11948 7.52178C5.21737 7.52337 5.31461 7.50547 5.40552 7.46911C5.49642 7.43275 5.57919 7.37866 5.64898 7.30999C5.71877 7.24133 5.7742 7.15946 5.81204 7.06915C5.84988 6.97885 5.86936 6.88192 5.86936 6.78401C5.86936 6.6861 5.84988 6.58917 5.81204 6.49887C5.7742 6.40856 5.71877 6.32669 5.64898 6.25803C5.57919 6.18936 5.49642 6.13527 5.40552 6.09891C5.31461 6.06255 5.21737 6.04465 5.11948 6.04624C4.92378 6.04624 4.7361 6.12398 4.59773 6.26236C4.45935 6.40073 4.38161 6.58841 4.38161 6.78411C4.38161 6.9798 4.45935 7.16748 4.59773 7.30586C4.7361 7.44423 4.92378 7.52178 5.11948 7.52178ZM3.11116 9.78983C3.30685 9.78983 3.49453 9.71209 3.63291 9.57371C3.77128 9.43534 3.84902 9.24766 3.84902 9.05196C3.84902 8.85627 3.77128 8.66859 3.63291 8.53021C3.49453 8.39184 3.30685 8.3141 3.11116 8.3141C2.91546 8.3141 2.72778 8.39184 2.58941 8.53021C2.45103 8.66859 2.37329 8.85627 2.37329 9.05196C2.37329 9.24766 2.45103 9.43534 2.58941 9.57371C2.72778 9.71209 2.91546 9.78983 3.11116 9.78983Z" fill="black"/>
<path fill-rule="evenodd" clip-rule="evenodd" d="M15.8713 1.94497C15.4703 1.73726 15.0032 1.69733 14.5728 1.83398C14.1424 1.97063 13.7838 2.27265 13.5761 2.67363L11.6868 6.32124C11.6768 6.34051 11.6681 6.3604 11.6606 6.38078C10.7353 6.34905 9.81857 6.75785 9.20038 7.48141C8.47172 8.33387 7.57559 9.26428 6.80991 9.73928C5.71809 10.4166 4.8155 10.6607 4.2549 10.7473C4.09986 10.771 3.95294 10.8321 3.82689 10.9254C3.70083 11.0188 3.59945 11.1414 3.53153 11.2828C3.39598 11.5688 3.40617 11.9433 3.66942 12.2332C4.24138 12.8635 5.35651 13.8958 7.40185 15.1968C8.81842 16.0978 10.0885 16.5959 10.7721 16.8269C11.2961 17.0037 11.8559 16.8014 12.1564 16.3513C12.5363 15.7821 13.2039 14.7087 13.777 13.4026C14.2009 12.4365 14.566 11.4405 14.9157 10.4464C15.2105 9.60765 15.0778 8.72307 14.6297 8.0238L16.5984 4.24358C16.7019 4.04496 16.7651 3.82789 16.7845 3.6048C16.804 3.38171 16.7792 3.15697 16.7117 2.94346C16.6441 2.72996 16.5351 2.53186 16.3909 2.36053C16.2467 2.18919 16.0702 2.04798 15.8713 1.94497ZM13.8871 7.2446L15.6951 3.77308C15.7388 3.69314 15.7662 3.60526 15.7756 3.5146C15.7849 3.42393 15.7761 3.33231 15.7495 3.24511C15.723 3.15791 15.6793 3.07689 15.6211 3.00681C15.5628 2.93672 15.4911 2.87897 15.4102 2.83697C15.3293 2.79496 15.2409 2.76953 15.15 2.76217C15.0592 2.75481 14.9678 2.76568 14.8812 2.79413C14.7946 2.82257 14.7146 2.86803 14.6458 2.92783C14.577 2.98763 14.5208 3.06057 14.4806 3.14236L12.6856 6.60702C12.7457 6.63248 12.8053 6.6601 12.8644 6.69007L13.5202 7.02267C13.6495 7.08809 13.7717 7.16233 13.8869 7.2444L13.8871 7.2446ZM13.9547 10.1085C13.8822 10.315 13.8058 10.5296 13.7263 10.7482L9.59331 8.5791C9.7265 8.43083 9.85382 8.28451 9.97488 8.14308C10.5899 7.42304 11.5999 7.19093 12.4041 7.59874L13.0599 7.93134C13.8679 8.34092 14.2501 9.26918 13.9551 10.1085H13.9547ZM7.3468 10.6049C7.84942 10.293 8.37378 9.83741 8.86582 9.34772L8.87248 9.35125L13.3678 11.7102C13.2031 12.1418 13.0286 12.5697 12.8445 12.9934C12.3033 14.2266 11.6698 15.2459 11.3096 15.7856C11.2583 15.8626 11.1748 15.8876 11.098 15.862C10.6762 15.7181 10.2618 15.5536 9.85617 15.369C10.0938 15.1182 10.4385 14.7089 10.7688 14.1459C10.9116 13.9028 10.8291 13.5941 10.5846 13.4564C10.3402 13.3187 10.0262 13.4045 9.8834 13.6476C9.61779 14.1001 9.29362 14.5455 8.89599 14.893C8.57365 14.7191 8.25763 14.5337 7.94854 14.3373C7.69727 14.1776 7.44847 14.0141 7.20225 13.8468C7.34013 13.7535 7.47244 13.6522 7.5985 13.5434C7.8126 13.3599 7.83395 13.0421 7.64591 12.8343C7.45787 12.6265 7.13212 12.6065 6.91783 12.7902C6.60247 13.0606 6.3825 13.1634 6.29358 13.1981C5.48265 12.5889 4.93929 12.0884 4.58769 11.7237C5.26895 11.597 6.23109 11.2969 7.3468 10.6049Z" fill="black"/>
</svg>
