<svg width="18" height="18" viewBox="0 0 18 18" fill="none" xmlns="http://www.w3.org/2000/svg">
<g clip-path="url(#clip0_138_1743)">
<path d="M9 0C4.03725 0 0 4.03725 0 9C0 13.9624 4.03725 18 9 18C13.9628 18 18 13.9624 18 9C18 4.03725 13.9628 0 9 0ZM9 16.3016C4.974 16.3016 1.69762 13.0264 1.69762 9C1.69762 4.97362 4.974 1.698 9 1.698C13.026 1.698 16.3016 4.97362 16.3016 9C16.3016 13.0264 13.026 16.3016 9 16.3016Z" fill="black"/>
<path d="M12.2269 5.77313C12.0676 5.61395 11.8516 5.52454 11.6264 5.52454C11.4011 5.52454 11.1851 5.61395 11.0258 5.77313L9.00004 7.79925L6.97354 5.77313C6.81436 5.61395 6.59847 5.52452 6.37335 5.52452C6.14824 5.52452 5.93235 5.61395 5.77317 5.77313C5.61399 5.93231 5.52456 6.1482 5.52456 6.37331C5.52456 6.59843 5.61399 6.81432 5.77317 6.9735L7.79967 9L5.77317 11.0258C5.65421 11.1444 5.57316 11.2958 5.54031 11.4606C5.50745 11.6254 5.52426 11.7962 5.5886 11.9514C5.65294 12.1067 5.76192 12.2393 5.90173 12.3325C6.04154 12.4258 6.20588 12.4754 6.37392 12.4751C6.59067 12.4751 6.80817 12.3923 6.97392 12.2265L9.00004 10.2008L11.0258 12.2269C11.1919 12.3926 11.4087 12.4755 11.6265 12.4755C11.8444 12.4755 12.0608 12.3926 12.2273 12.2269C12.3864 12.0676 12.4757 11.8516 12.4757 11.6265C12.4757 11.4014 12.3864 11.1854 12.2273 11.0261L10.2004 9L12.2269 6.9735C12.386 6.81425 12.4753 6.59838 12.4753 6.37331C12.4753 6.14825 12.386 5.93238 12.2269 5.77313Z" fill="black"/>
</g>
<defs>
<clipPath id="clip0_138_1743">
<rect width="18" height="18" fill="white"/>
</clipPath>
</defs>
</svg>
