<svg width="40" height="40" viewBox="0 0 40 40" fill="none" xmlns="http://www.w3.org/2000/svg">
<path d="M16.1666 18.8334C15.4999 18.1667 14.4999 18.1667 13.8333 18.8334C13.1666 19.5 13.1666 20.5 13.8333 21.1667L18.8333 26.1667C19.1666 26.5 19.4999 26.6667 19.9999 26.6667C20.4999 26.6667 20.8333 26.5 21.1666 26.1667L32.8333 12.8334C33.3333 12 33.3333 11 32.4999 10.5C31.8333 10 30.8333 10 30.3333 10.6667L19.9999 22.5L16.1666 18.8334Z" fill="#02BC7D"/>
<path d="M34.9999 18.3333C33.9999 18.3333 33.3333 19 33.3333 20C33.3333 27.3333 27.3333 33.3333 19.9999 33.3333C12.6666 33.3333 6.66659 27.3333 6.66659 20C6.66659 16.5 7.99992 13.1667 10.4999 10.6667C12.9999 8.00001 16.3333 6.66668 19.9999 6.66668C20.9999 6.66668 22.1666 6.83334 23.1666 7.00001C23.9999 7.33334 24.9999 6.83334 25.3333 5.83334C25.6666 4.83334 24.9999 4.16668 24.1666 3.83334H23.9999C22.6666 3.50001 21.3333 3.33334 19.9999 3.33334C10.8333 3.33334 3.33325 10.8333 3.33325 20.1667C3.33325 24.5 5.16659 28.8333 8.16659 31.8333C11.3333 35 15.4999 36.6667 19.8333 36.6667C28.9999 36.6667 36.4999 29.1667 36.4999 20C36.6666 19 35.8333 18.3333 34.9999 18.3333Z" fill="#02BC7D"/>
</svg>
