<svg width="22" height="22" viewBox="0 0 22 22" fill="none" xmlns="http://www.w3.org/2000/svg">
<g clip-path="url(#clip0_238_1118)">
<path d="M19.5938 0.6875H2.40625C1.95058 0.688046 1.51372 0.869303 1.19151 1.19151C0.869303 1.51372 0.688046 1.95058 0.6875 2.40625V15.4688C0.688046 15.9244 0.869303 16.3613 1.19151 16.6835C1.51372 17.0057 1.95058 17.187 2.40625 17.1875H8.09772L7.32428 19.25H6.53125C6.25775 19.25 5.99544 19.3587 5.80205 19.552C5.60865 19.7454 5.5 20.0077 5.5 20.2812V20.9688C5.5 21.0599 5.53622 21.1474 5.60068 21.2118C5.66515 21.2763 5.75258 21.3125 5.84375 21.3125H16.1562C16.2474 21.3125 16.3349 21.2763 16.3993 21.2118C16.4638 21.1474 16.5 21.0599 16.5 20.9688V20.2812C16.5 20.0077 16.3913 19.7454 16.198 19.552C16.0046 19.3587 15.7423 19.25 15.4688 19.25H14.6757L13.9023 17.1875H19.5938C20.0494 17.187 20.4863 17.0057 20.8085 16.6835C21.1307 16.3613 21.312 15.9244 21.3125 15.4688V2.40625C21.312 1.95058 21.1307 1.51372 20.8085 1.19151C20.4863 0.869303 20.0494 0.688046 19.5938 0.6875ZM2.40625 1.375H19.5938C19.8673 1.375 20.1296 1.48365 20.323 1.67705C20.5163 1.87044 20.625 2.13275 20.625 2.40625V13.0625H1.375V2.40625C1.375 2.13275 1.48365 1.87044 1.67705 1.67705C1.87044 1.48365 2.13275 1.375 2.40625 1.375ZM15.8125 20.2812V20.625H6.1875V20.2812C6.1875 20.1901 6.22372 20.1026 6.28818 20.0382C6.35265 19.9737 6.44008 19.9375 6.53125 19.9375H15.4688C15.5599 19.9375 15.6474 19.9737 15.7118 20.0382C15.7763 20.1026 15.8125 20.1901 15.8125 20.2812ZM13.9415 19.25H8.05853L8.83197 17.1875H13.168L13.9415 19.25ZM19.5938 16.5H2.40625C2.13275 16.5 1.87044 16.3913 1.67705 16.198C1.48365 16.0046 1.375 15.7423 1.375 15.4688V13.75H20.625V15.4688C20.625 15.7423 20.5163 16.0046 20.323 16.198C20.1296 16.3913 19.8673 16.5 19.5938 16.5Z" fill="black"/>
<path d="M11 14.0938C10.796 14.0938 10.5967 14.1542 10.4271 14.2675C10.2575 14.3809 10.1253 14.5419 10.0472 14.7304C9.9692 14.9188 9.94877 15.1261 9.98857 15.3262C10.0284 15.5262 10.1266 15.71 10.2708 15.8542C10.415 15.9984 10.5988 16.0966 10.7988 16.1364C10.9989 16.1762 11.2062 16.1558 11.3946 16.0778C11.5831 15.9997 11.7441 15.8675 11.8575 15.6979C11.9708 15.5283 12.0313 15.329 12.0313 15.125C12.0313 14.8515 11.9226 14.5892 11.7292 14.3958C11.5358 14.2024 11.2735 14.0938 11 14.0938ZM11 15.4688C10.932 15.4688 10.8656 15.4486 10.809 15.4108C10.7525 15.373 10.7084 15.3194 10.6824 15.2565C10.6564 15.1937 10.6496 15.1246 10.6629 15.0579C10.6761 14.9913 10.7089 14.93 10.7569 14.8819C10.805 14.8339 10.8663 14.8011 10.9329 14.7879C10.9996 14.7746 11.0687 14.7814 11.1315 14.8074C11.1944 14.8334 11.248 14.8775 11.2858 14.934C11.3236 14.9906 11.3438 15.057 11.3438 15.125C11.3438 15.2162 11.3075 15.3036 11.2431 15.3681C11.1786 15.4325 11.0912 15.4688 11 15.4688Z" fill="black"/>
</g>
<defs>
<clipPath id="clip0_238_1118">
<rect width="22" height="22" fill="white"/>
</clipPath>
</defs>
</svg>
