<svg width="18" height="18" viewBox="0 0 18 18" fill="none" xmlns="http://www.w3.org/2000/svg">
<g clip-path="url(#clip0_137_1714)">
<path d="M12.6428 3.53571H2.32143C1.31548 3.53571 0.5 4.35119 0.5 5.35713V15.6785C0.5 16.6845 1.31548 17.5 2.32143 17.5H12.6428C13.6488 17.5 14.4643 16.6845 14.4643 15.6785V5.35713C14.4643 4.35119 13.6488 3.53571 12.6428 3.53571ZM13.25 15.6786C13.25 16.0139 12.9782 16.2857 12.6428 16.2857H2.32143C1.9861 16.2857 1.71427 16.0139 1.71427 15.6786V5.35713C1.71427 5.02181 1.9861 4.74998 2.32143 4.74998H12.6428C12.9782 4.74998 13.25 5.02181 13.25 5.35713V15.6786Z" fill="black"/>
<path d="M15.6787 0.5H4.75014C3.74419 0.5 2.92871 1.31548 2.92871 2.32143C2.92871 2.65675 3.20054 2.92858 3.53587 2.92858C3.87119 2.92858 4.14298 2.65675 4.14298 2.32143C4.14298 1.9861 4.41481 1.71427 4.75014 1.71427H15.6787C16.014 1.71427 16.2859 1.9861 16.2859 2.32143V13.25C16.2859 13.5853 16.014 13.8571 15.6787 13.8571C15.3434 13.8571 15.0715 14.129 15.0715 14.4643C15.0715 14.7996 15.3434 15.0715 15.6787 15.0715C16.6846 15.0715 17.5001 14.256 17.5001 13.25V2.32143C17.5001 1.31548 16.6846 0.5 15.6787 0.5Z" fill="black"/>
</g>
<defs>
<clipPath id="clip0_137_1714">
<rect width="17" height="17" fill="white" transform="translate(0.5 0.5)"/>
</clipPath>
</defs>
</svg>
