<svg width="17" height="17" viewBox="0 0 17 17" fill="none" xmlns="http://www.w3.org/2000/svg">
<path d="M4.40572 11.8431L3.71881 12.53V3.16357C3.71881 3.02268 3.66284 2.88755 3.56321 2.78792C3.46359 2.6883 3.32846 2.63232 3.18756 2.63232C3.04667 2.63232 2.91154 2.6883 2.81191 2.78792C2.71228 2.88755 2.65631 3.02268 2.65631 3.16357V12.53L1.96941 11.8431C1.86921 11.7464 1.73502 11.6928 1.59573 11.694C1.45643 11.6952 1.32319 11.7511 1.22469 11.8496C1.12619 11.9481 1.07032 12.0814 1.06911 12.2206C1.0679 12.3599 1.12145 12.4941 1.21822 12.5943L2.81197 14.1881C2.91159 14.2877 3.0467 14.3436 3.18756 14.3436C3.32843 14.3436 3.46353 14.2877 3.56316 14.1881L5.15691 12.5943C5.25368 12.4941 5.30723 12.3599 5.30602 12.2206C5.3048 12.0814 5.24893 11.9481 5.15044 11.8496C5.05194 11.7511 4.91869 11.6952 4.7794 11.694C4.64011 11.6928 4.50591 11.7464 4.40572 11.8431ZM7.43756 10.625H13.8126C13.9535 10.625 14.0886 10.569 14.1882 10.4694C14.2878 10.3698 14.3438 10.2346 14.3438 10.0937C14.3438 9.95283 14.2878 9.81771 14.1882 9.71808C14.0886 9.61845 13.9535 9.56248 13.8126 9.56248H7.43756C7.29667 9.56248 7.16154 9.61845 7.06191 9.71808C6.96228 9.81771 6.90631 9.95283 6.90631 10.0937C6.90631 10.2346 6.96228 10.3698 7.06191 10.4694C7.16154 10.569 7.29667 10.625 7.43756 10.625ZM15.4063 12.75H7.43756C7.29667 12.75 7.16154 12.806 7.06191 12.9056C6.96228 13.0052 6.90631 13.1403 6.90631 13.2812C6.90631 13.4221 6.96228 13.5573 7.06191 13.6569C7.16154 13.7565 7.29667 13.8125 7.43756 13.8125H15.4063C15.5472 13.8125 15.6823 13.7565 15.782 13.6569C15.8816 13.5573 15.9376 13.4221 15.9376 13.2812C15.9376 13.1403 15.8816 13.0052 15.782 12.9056C15.6823 12.806 15.5472 12.75 15.4063 12.75ZM7.43756 7.43748H12.2188C12.3597 7.43748 12.4948 7.38151 12.5945 7.28188C12.6941 7.18225 12.7501 7.04713 12.7501 6.90623C12.7501 6.76533 12.6941 6.63021 12.5945 6.53058C12.4948 6.43095 12.3597 6.37498 12.2188 6.37498H7.43756C7.29667 6.37498 7.16154 6.43095 7.06191 6.53058C6.96228 6.63021 6.90631 6.76533 6.90631 6.90623C6.90631 7.04713 6.96228 7.18225 7.06191 7.28188C7.16154 7.38151 7.29667 7.43748 7.43756 7.43748ZM7.43756 4.24998H10.0938C10.2347 4.24998 10.3698 4.19401 10.4695 4.09438C10.5691 3.99475 10.6251 3.85963 10.6251 3.71873C10.6251 3.57783 10.5691 3.44271 10.4695 3.34308C10.3698 3.24345 10.2347 3.18748 10.0938 3.18748H7.43756C7.29667 3.18748 7.16154 3.24345 7.06191 3.34308C6.96228 3.44271 6.90631 3.57783 6.90631 3.71873C6.90631 3.85963 6.96228 3.99475 7.06191 4.09438C7.16154 4.19401 7.29667 4.24998 7.43756 4.24998Z" fill="black"/>
</svg>
