<svg width="19" height="19" viewBox="0 0 19 19" fill="none" xmlns="http://www.w3.org/2000/svg">
<path d="M4.63765 12.725C8.31267 14.2125 11.4002 14.5625 14.9127 12.35C14.8877 12.3875 14.2127 13.3875 12.4377 13.9C12.8127 14.4125 13.3252 15 13.3252 15C14.4627 15 15.5752 14.675 16.5377 14.05C17.2877 13.55 17.7127 12.6875 17.6252 11.7875C17.4752 10.25 17.1126 8.74998 16.5502 7.31251C15.8377 5.43752 14.1252 4.13751 12.1377 3.94999C11.9627 3.93749 11.8377 3.93749 11.7627 3.93749L11.5627 4.13747C13.8502 4.78748 14.9877 5.79997 15.0127 5.83749C11.5002 4.06247 7.3502 4.0375 3.81267 5.76249C3.81267 5.76249 4.93768 4.64999 7.42516 4.06247L7.27516 3.91248C7.01265 3.91248 6.76264 3.93749 6.50017 3.97497C4.66266 4.28747 3.12518 5.54996 2.46267 7.28746C1.88766 8.78746 1.51267 10.3625 1.37518 11.9625C1.30018 12.8125 1.70018 13.65 2.40018 14.1375C3.32517 14.75 4.42516 15.075 5.53766 15.075C5.53766 15.075 5.98765 14.4875 6.43768 13.9625C4.75017 13.4625 4.06268 12.4625 4.05017 12.425C4.23635 12.5428 4.43301 12.6433 4.63765 12.725ZM6.91268 11.7625C6.10017 11.7375 5.46267 11.05 5.48768 10.225C5.51269 9.44997 6.13769 8.82498 6.91268 8.79997C7.72519 8.82498 8.36269 9.51247 8.33768 10.3375C8.30016 11.1125 7.68767 11.7375 6.91268 11.7625ZM12.0127 11.7625C11.2001 11.7375 10.5626 11.05 10.5877 10.225C10.6127 9.44997 11.2377 8.82498 12.0127 8.79997C12.8252 8.82498 13.4627 9.51247 13.4377 10.3375C13.4127 11.1125 12.7876 11.7375 12.0127 11.7625Z" fill="url(#paint0_linear_138_2792)"/>
<defs>
<linearGradient id="paint0_linear_138_2792" x1="4.0761" y1="5.0346" x2="14.8523" y2="15.8108" gradientUnits="userSpaceOnUse">
<stop stop-color="#7388D9"/>
<stop offset="1" stop-color="#5364A6"/>
</linearGradient>
</defs>
</svg>
