<svg width="22" height="22" viewBox="0 0 22 22" fill="none" xmlns="http://www.w3.org/2000/svg">
<path d="M18.8375 0H3.1625C3.12812 0 3.09031 0.0034375 3.0525 0.0103125C3.03531 0.01375 2.99063 0.0240625 2.98031 0.0309375C2.9425 0.04125 2.89781 0.055 2.86344 0.0859375C2.84625 0.09625 2.8325 0.103125 2.8325 0.106563C2.80156 0.12375 2.77406 0.147813 2.74656 0.175312C2.67437 0.2475 2.62281 0.340313 2.60906 0.4125C2.58844 0.464063 2.57812 0.5225 2.57812 0.584375V21.4087C2.57812 21.4741 2.585 21.5291 2.60219 21.5737C2.62969 21.67 2.67781 21.7559 2.71906 21.7903C2.75344 21.8384 2.79469 21.8659 2.79469 21.8659C2.86688 21.9278 2.95625 21.9691 3.05594 21.9862C3.08688 21.9966 3.12469 22 3.1625 22H18.8375C19.1606 22 19.4219 21.7388 19.4219 21.4156V0.584375C19.4219 0.26125 19.1606 0 18.8375 0ZM18.2497 20.8278H6.45906L14.41 18.6003C14.5509 18.5625 14.6472 18.4319 14.6472 18.2875V3.45813C14.6472 3.31031 14.5475 3.18312 14.4031 3.14531L6.74094 1.17219H18.2497V20.8278ZM11.6669 11.7425V10.0066C11.6669 9.82781 11.8147 9.68 11.9934 9.68C12.1722 9.68 12.32 9.82781 12.32 10.0066V11.7425C12.32 11.9213 12.1722 12.0691 11.9934 12.0691C11.8147 12.0691 11.6669 11.9213 11.6669 11.7425Z" fill="#123559"/>
</svg>
