<svg width="19" height="18" viewBox="0 0 19 18" fill="none" xmlns="http://www.w3.org/2000/svg">
<path d="M16.25 13.5V11.25C16.25 11.1008 16.1907 10.9577 16.0852 10.8523C15.9798 10.7468 15.8367 10.6875 15.6875 10.6875C15.5383 10.6875 15.3952 10.7468 15.2898 10.8523C15.1843 10.9577 15.125 11.1008 15.125 11.25V13.5C15.125 13.6492 15.0657 13.7923 14.9602 13.8977C14.8548 14.0032 14.7117 14.0625 14.5625 14.0625H4.4375C4.28832 14.0625 4.14524 14.0032 4.03975 13.8977C3.93426 13.7923 3.875 13.6492 3.875 13.5V11.25C3.875 11.1008 3.81574 10.9577 3.71025 10.8523C3.60476 10.7468 3.46168 10.6875 3.3125 10.6875C3.16332 10.6875 3.02024 10.7468 2.91475 10.8523C2.80926 10.9577 2.75 11.1008 2.75 11.25V13.5C2.75 13.9476 2.92779 14.3768 3.24426 14.6932C3.56072 15.0097 3.98995 15.1875 4.4375 15.1875H14.5625C15.0101 15.1875 15.4393 15.0097 15.7557 14.6932C16.0722 14.3768 16.25 13.9476 16.25 13.5ZM12.6613 10.5638L9.84875 12.8138C9.74944 12.8922 9.62657 12.9349 9.5 12.9349C9.37343 12.9349 9.25056 12.8922 9.15125 12.8138L6.33875 10.5638C6.23627 10.467 6.17384 10.3353 6.16379 10.1948C6.15375 10.0542 6.19684 9.915 6.28453 9.80469C6.37221 9.69437 6.49812 9.62099 6.63732 9.59905C6.77652 9.57712 6.91889 9.60824 7.03625 9.68625L8.9375 11.205V3.375C8.9375 3.22582 8.99676 3.08274 9.10225 2.97725C9.20774 2.87176 9.35082 2.8125 9.5 2.8125C9.64918 2.8125 9.79226 2.87176 9.89775 2.97725C10.0032 3.08274 10.0625 3.22582 10.0625 3.375V11.205L11.9637 9.68625C12.0204 9.63278 12.0875 9.59166 12.1609 9.56549C12.2343 9.53933 12.3123 9.52868 12.3899 9.53423C12.4676 9.53978 12.5433 9.56141 12.6122 9.59774C12.6811 9.63407 12.7417 9.68431 12.7902 9.74529C12.8387 9.80626 12.8739 9.87664 12.8938 9.95196C12.9136 10.0273 12.9176 10.1059 12.9055 10.1828C12.8934 10.2598 12.8654 10.3334 12.8234 10.3989C12.7813 10.4645 12.7261 10.5206 12.6613 10.5638Z" fill="black"/>
</svg>
