<svg width="19" height="18" viewBox="0 0 19 18" fill="none" xmlns="http://www.w3.org/2000/svg">
<path d="M13.2715 13.1034C13.1661 12.9987 13.0236 12.9399 12.875 12.9399C12.7264 12.9399 12.5838 12.9987 12.4784 13.1034L10.0625 15.5166V1.125C10.0625 0.975816 10.0032 0.832742 9.89771 0.727252C9.79222 0.621763 9.64914 0.5625 9.49996 0.5625C9.35078 0.5625 9.2077 0.621763 9.10221 0.727252C8.99672 0.832742 8.93746 0.975816 8.93746 1.125V15.5166L6.52152 13.1034C6.41391 13.0113 6.2755 12.9631 6.13393 12.9686C5.99236 12.9741 5.85807 13.0328 5.75789 13.1329C5.65771 13.2331 5.59903 13.3674 5.59356 13.509C5.58809 13.6505 5.63624 13.789 5.7284 13.8966L9.1034 17.2716C9.15569 17.3243 9.2179 17.3661 9.28645 17.3947C9.35499 17.4232 9.42851 17.4379 9.50277 17.4379C9.57703 17.4379 9.65055 17.4232 9.7191 17.3947C9.78764 17.3661 9.84986 17.3243 9.90215 17.2716L13.2771 13.8966C13.3812 13.7904 13.439 13.6474 13.4379 13.4988C13.4369 13.3502 13.377 13.2081 13.2715 13.1034Z" fill="black"/>
</svg>
