<svg width="17" height="17" viewBox="0 0 17 17" fill="none" xmlns="http://www.w3.org/2000/svg">
<path d="M10.625 15.4062H3.1875C2.76481 15.4062 2.35943 15.2383 2.06055 14.9395C1.76166 14.6406 1.59375 14.2352 1.59375 13.8125V6.375C1.59375 5.95231 1.76166 5.54693 2.06055 5.24805C2.35943 4.94916 2.76481 4.78125 3.1875 4.78125H10.625C11.0477 4.78125 11.4531 4.94916 11.752 5.24805C12.0508 5.54693 12.2188 5.95231 12.2188 6.375V13.8125C12.2188 14.2352 12.0508 14.6406 11.752 14.9395C11.4531 15.2383 11.0477 15.4062 10.625 15.4062ZM3.1875 5.84375C3.0466 5.84375 2.91148 5.89972 2.81185 5.99935C2.71222 6.09898 2.65625 6.2341 2.65625 6.375V13.8125C2.65625 13.9534 2.71222 14.0885 2.81185 14.1882C2.91148 14.2878 3.0466 14.3438 3.1875 14.3438H10.625C10.7659 14.3438 10.901 14.2878 11.0007 14.1882C11.1003 14.0885 11.1562 13.9534 11.1562 13.8125V6.375C11.1562 6.2341 11.1003 6.09898 11.0007 5.99935C10.901 5.89972 10.7659 5.84375 10.625 5.84375H3.1875ZM5.3125 4.25C5.1716 4.25 5.03648 4.19403 4.93685 4.0944C4.83722 3.99477 4.78125 3.85965 4.78125 3.71875V3.1875C4.78125 2.76481 4.94916 2.35943 5.24805 2.06055C5.54693 1.76166 5.95231 1.59375 6.375 1.59375H6.90625C7.04715 1.59375 7.18227 1.64972 7.2819 1.74935C7.38153 1.84898 7.4375 1.9841 7.4375 2.125C7.4375 2.2659 7.38153 2.40102 7.2819 2.50065C7.18227 2.60028 7.04715 2.65625 6.90625 2.65625H6.375C6.2341 2.65625 6.09898 2.71222 5.99935 2.81185C5.89972 2.91148 5.84375 3.0466 5.84375 3.1875V3.71875C5.84375 3.85965 5.78778 3.99477 5.68815 4.0944C5.58852 4.19403 5.4534 4.25 5.3125 4.25ZM13.8125 12.2188H13.2812C13.1404 12.2188 13.0052 12.1628 12.9056 12.0632C12.806 11.9635 12.75 11.8284 12.75 11.6875C12.75 11.5466 12.806 11.4115 12.9056 11.3118C13.0052 11.2122 13.1404 11.1562 13.2812 11.1562H13.8125C13.9534 11.1562 14.0885 11.1003 14.1882 11.0007C14.2878 10.901 14.3438 10.7659 14.3438 10.625V10.0938C14.3438 9.95285 14.3997 9.81773 14.4993 9.7181C14.599 9.61847 14.7341 9.5625 14.875 9.5625C15.0159 9.5625 15.151 9.61847 15.2507 9.7181C15.3503 9.81773 15.4062 9.95285 15.4062 10.0938V10.625C15.4062 11.0477 15.2383 11.4531 14.9395 11.752C14.6406 12.0508 14.2352 12.2188 13.8125 12.2188ZM14.875 4.25C14.7341 4.25 14.599 4.19403 14.4993 4.0944C14.3997 3.99477 14.3438 3.85965 14.3438 3.71875V3.1875C14.3438 3.0466 14.2878 2.91148 14.1882 2.81185C14.0885 2.71222 13.9534 2.65625 13.8125 2.65625H13.2812C13.1404 2.65625 13.0052 2.60028 12.9056 2.50065C12.806 2.40102 12.75 2.2659 12.75 2.125C12.75 1.9841 12.806 1.84898 12.9056 1.74935C13.0052 1.64972 13.1404 1.59375 13.2812 1.59375H13.8125C14.2352 1.59375 14.6406 1.76166 14.9395 2.06055C15.2383 2.35943 15.4062 2.76481 15.4062 3.1875V3.71875C15.4062 3.85965 15.3503 3.99477 15.2507 4.0944C15.151 4.19403 15.0159 4.25 14.875 4.25ZM14.875 8.5C14.7341 8.5 14.599 8.44403 14.4993 8.3444C14.3997 8.24477 14.3438 8.10965 14.3438 7.96875V5.84375C14.3438 5.70285 14.3997 5.56773 14.4993 5.4681C14.599 5.36847 14.7341 5.3125 14.875 5.3125C15.0159 5.3125 15.151 5.36847 15.2507 5.4681C15.3503 5.56773 15.4062 5.70285 15.4062 5.84375V7.96875C15.4062 8.10965 15.3503 8.24477 15.2507 8.3444C15.151 8.44403 15.0159 8.5 14.875 8.5ZM11.1562 2.65625H9.03125C8.89035 2.65625 8.75523 2.60028 8.6556 2.50065C8.55597 2.40102 8.5 2.2659 8.5 2.125C8.5 1.9841 8.55597 1.84898 8.6556 1.74935C8.75523 1.64972 8.89035 1.59375 9.03125 1.59375H11.1562C11.2971 1.59375 11.4323 1.64972 11.5319 1.74935C11.6315 1.84898 11.6875 1.9841 11.6875 2.125C11.6875 2.2659 11.6315 2.40102 11.5319 2.50065C11.4323 2.60028 11.2971 2.65625 11.1562 2.65625Z" fill="black"/>
<path d="M8.5 10.625H5.3125C5.1716 10.625 5.03648 10.569 4.93685 10.4694C4.83722 10.3698 4.78125 10.2346 4.78125 10.0938C4.78125 9.95285 4.83722 9.81773 4.93685 9.7181C5.03648 9.61847 5.1716 9.5625 5.3125 9.5625H8.5C8.6409 9.5625 8.77602 9.61847 8.87565 9.7181C8.97528 9.81773 9.03125 9.95285 9.03125 10.0938C9.03125 10.2346 8.97528 10.3698 8.87565 10.4694C8.77602 10.569 8.6409 10.625 8.5 10.625Z" fill="black"/>
<path d="M6.90625 12.2188C6.76535 12.2188 6.63023 12.1628 6.5306 12.0632C6.43097 11.9635 6.375 11.8284 6.375 11.6875V8.5C6.375 8.3591 6.43097 8.22398 6.5306 8.12435C6.63023 8.02472 6.76535 7.96875 6.90625 7.96875C7.04715 7.96875 7.18227 8.02472 7.2819 8.12435C7.38153 8.22398 7.4375 8.3591 7.4375 8.5V11.6875C7.4375 11.8284 7.38153 11.9635 7.2819 12.0632C7.18227 12.1628 7.04715 12.2188 6.90625 12.2188Z" fill="black"/>
</svg>
