<svg width="19" height="19" viewBox="0 0 19 19" fill="none" xmlns="http://www.w3.org/2000/svg">
<path d="M11.875 17.2188H3.5625C3.09008 17.2188 2.63702 17.0311 2.30297 16.697C1.96892 16.363 1.78125 15.9099 1.78125 15.4375V7.125C1.78125 6.65258 1.96892 6.19951 2.30297 5.86547C2.63702 5.53142 3.09008 5.34375 3.5625 5.34375H11.875C12.3474 5.34375 12.8005 5.53142 13.1345 5.86547C13.4686 6.19951 13.6562 6.65258 13.6562 7.125V15.4375C13.6562 15.9099 13.4686 16.363 13.1345 16.697C12.8005 17.0311 12.3474 17.2188 11.875 17.2188ZM3.5625 6.53125C3.40503 6.53125 3.25401 6.59381 3.14266 6.70516C3.03131 6.81651 2.96875 6.96753 2.96875 7.125V15.4375C2.96875 15.595 3.03131 15.746 3.14266 15.8573C3.25401 15.9687 3.40503 16.0312 3.5625 16.0312H11.875C12.0325 16.0312 12.1835 15.9687 12.2948 15.8573C12.4062 15.746 12.4688 15.595 12.4688 15.4375V7.125C12.4688 6.96753 12.4062 6.81651 12.2948 6.70516C12.1835 6.59381 12.0325 6.53125 11.875 6.53125H3.5625ZM5.9375 4.75C5.78003 4.75 5.62901 4.68744 5.51766 4.57609C5.40631 4.46474 5.34375 4.31372 5.34375 4.15625V3.5625C5.34375 3.09008 5.53142 2.63702 5.86547 2.30297C6.19951 1.96892 6.65258 1.78125 7.125 1.78125H7.71875C7.87622 1.78125 8.02724 1.84381 8.13859 1.95516C8.24994 2.06651 8.3125 2.21753 8.3125 2.375C8.3125 2.53247 8.24994 2.68349 8.13859 2.79484C8.02724 2.90619 7.87622 2.96875 7.71875 2.96875H7.125C6.96753 2.96875 6.81651 3.03131 6.70516 3.14266C6.59381 3.25401 6.53125 3.40503 6.53125 3.5625V4.15625C6.53125 4.31372 6.46869 4.46474 6.35734 4.57609C6.24599 4.68744 6.09497 4.75 5.9375 4.75ZM15.4375 13.6562H14.8438C14.6863 13.6562 14.5353 13.5937 14.4239 13.4823C14.3126 13.371 14.25 13.22 14.25 13.0625C14.25 12.905 14.3126 12.754 14.4239 12.6427C14.5353 12.5313 14.6863 12.4688 14.8438 12.4688H15.4375C15.595 12.4688 15.746 12.4062 15.8573 12.2948C15.9687 12.1835 16.0312 12.0325 16.0312 11.875V11.2812C16.0312 11.1238 16.0938 10.9728 16.2052 10.8614C16.3165 10.7501 16.4675 10.6875 16.625 10.6875C16.7825 10.6875 16.9335 10.7501 17.0448 10.8614C17.1562 10.9728 17.2188 11.1238 17.2188 11.2812V11.875C17.2188 12.3474 17.0311 12.8005 16.697 13.1345C16.363 13.4686 15.9099 13.6562 15.4375 13.6562ZM16.625 4.75C16.4675 4.75 16.3165 4.68744 16.2052 4.57609C16.0938 4.46474 16.0312 4.31372 16.0312 4.15625V3.5625C16.0312 3.40503 15.9687 3.25401 15.8573 3.14266C15.746 3.03131 15.595 2.96875 15.4375 2.96875H14.8438C14.6863 2.96875 14.5353 2.90619 14.4239 2.79484C14.3126 2.68349 14.25 2.53247 14.25 2.375C14.25 2.21753 14.3126 2.06651 14.4239 1.95516C14.5353 1.84381 14.6863 1.78125 14.8438 1.78125H15.4375C15.9099 1.78125 16.363 1.96892 16.697 2.30297C17.0311 2.63702 17.2188 3.09008 17.2188 3.5625V4.15625C17.2188 4.31372 17.1562 4.46474 17.0448 4.57609C16.9335 4.68744 16.7825 4.75 16.625 4.75ZM16.625 9.5C16.4675 9.5 16.3165 9.43744 16.2052 9.32609C16.0938 9.21474 16.0312 9.06372 16.0312 8.90625V6.53125C16.0312 6.37378 16.0938 6.22276 16.2052 6.11141C16.3165 6.00006 16.4675 5.9375 16.625 5.9375C16.7825 5.9375 16.9335 6.00006 17.0448 6.11141C17.1562 6.22276 17.2188 6.37378 17.2188 6.53125V8.90625C17.2188 9.06372 17.1562 9.21474 17.0448 9.32609C16.9335 9.43744 16.7825 9.5 16.625 9.5ZM12.4688 2.96875H10.0938C9.93628 2.96875 9.78525 2.90619 9.6739 2.79484C9.56256 2.68349 9.5 2.53247 9.5 2.375C9.5 2.21753 9.56256 2.06651 9.6739 1.95516C9.78525 1.84381 9.93628 1.78125 10.0938 1.78125H12.4688C12.6262 1.78125 12.7772 1.84381 12.8886 1.95516C12.9999 2.06651 13.0625 2.21753 13.0625 2.375C13.0625 2.53247 12.9999 2.68349 12.8886 2.79484C12.7772 2.90619 12.6262 2.96875 12.4688 2.96875Z" fill="black"/>
</svg>
