<svg width="16" height="16" viewBox="0 0 16 16" fill="none" xmlns="http://www.w3.org/2000/svg">
<path d="M9.02938 2.53125C9.1537 2.53125 9.27292 2.58064 9.36083 2.66854C9.44874 2.75645 9.49813 2.87568 9.49813 3C9.49813 3.12432 9.44874 3.24355 9.36083 3.33146C9.27292 3.41936 9.1537 3.46875 9.02938 3.46875H3.625C3.25204 3.46875 2.89435 3.61691 2.63063 3.88063C2.36691 4.14435 2.21875 4.50204 2.21875 4.875V12.375C2.21875 12.748 2.36691 13.1056 2.63063 13.3694C2.89435 13.6331 3.25204 13.7812 3.625 13.7812H11.125C11.498 13.7812 11.8556 13.6331 12.1194 13.3694C12.3831 13.1056 12.5312 12.748 12.5312 12.375V6.97062C12.5312 6.8463 12.5806 6.72708 12.6685 6.63917C12.7565 6.55126 12.8757 6.50187 13 6.50187C13.1243 6.50187 13.2435 6.55126 13.3315 6.63917C13.4194 6.72708 13.4688 6.8463 13.4688 6.97062V12.375C13.4688 12.9966 13.2218 13.5927 12.7823 14.0323C12.3427 14.4718 11.7466 14.7188 11.125 14.7188H3.625C3.0034 14.7188 2.40726 14.4718 1.96772 14.0323C1.52818 13.5927 1.28125 12.9966 1.28125 12.375V4.875C1.28125 4.2534 1.52818 3.65726 1.96772 3.21772C2.40726 2.77818 3.0034 2.53125 3.625 2.53125H9.02938Z" fill="black"/>
<path d="M14.3075 3.68119L8.78187 9.20682C8.73044 9.25824 8.66774 9.29697 8.59874 9.31995L6.60999 9.98244C6.52746 10.0101 6.43886 10.0141 6.35414 9.99419C6.26942 9.97425 6.19194 9.93108 6.1304 9.86954C6.06885 9.808 6.02569 9.73052 6.00574 9.6458C5.9858 9.56108 5.98987 9.47248 6.01749 9.38995L6.67999 7.40119C6.70296 7.33219 6.7417 7.2695 6.79312 7.21807L12.3187 1.69244C12.5824 1.42929 12.9397 1.28149 13.3122 1.28149C13.6847 1.28149 14.042 1.42929 14.3056 1.69244L14.3075 1.69432C14.5706 1.95797 14.7184 2.31525 14.7184 2.68776C14.7184 3.06026 14.5706 3.41755 14.3075 3.68119ZM13.6444 3.01869C13.6878 2.97528 13.7222 2.92374 13.7457 2.86701C13.7692 2.81028 13.7813 2.74948 13.7813 2.68807C13.7813 2.62666 13.7692 2.56586 13.7457 2.50913C13.7222 2.4524 13.6878 2.40086 13.6444 2.35744L13.6425 2.35557C13.5991 2.31214 13.5475 2.27769 13.4908 2.25419C13.4341 2.23069 13.3733 2.21859 13.3119 2.21859C13.2505 2.21859 13.1897 2.23069 13.1329 2.25419C13.0762 2.27769 13.0247 2.31214 12.9812 2.35557L7.53437 7.80244L7.20312 8.79682L8.19749 8.46557L13.6444 3.01869Z" fill="black"/>
<path d="M13.2012 4.12436C13.2867 4.21272 13.334 4.33111 13.333 4.45401C13.332 4.57692 13.2827 4.69451 13.1958 4.78146C13.109 4.86842 12.9914 4.91777 12.8685 4.91889C12.7456 4.92002 12.6272 4.87283 12.5387 4.78748L11.2125 3.46123C11.1271 3.37278 11.0799 3.25435 11.0811 3.13145C11.0822 3.00854 11.1316 2.891 11.2185 2.80413C11.3055 2.71726 11.423 2.66802 11.546 2.66701C11.6689 2.666 11.7872 2.7133 11.8756 2.79873L13.2012 4.12436Z" fill="black"/>
</svg>
