<svg width="15" height="16" viewBox="0 0 15 16" fill="none" xmlns="http://www.w3.org/2000/svg">
<g clip-path="url(#clip0_129_852)">
<path d="M14.6944 6.96876C14.4324 5.05914 13.4225 3.33181 11.8869 2.16677C10.3513 1.00173 8.41586 0.494413 6.50624 0.756418C4.59662 1.01842 2.86929 2.02829 1.70425 3.56386C0.539209 5.09943 0.0318888 7.03492 0.293894 8.94454C0.509751 10.5251 1.23608 11.9918 2.36233 13.1216C3.48858 14.2513 4.95308 14.9821 6.53296 15.2028C6.85623 15.2452 7.18192 15.2665 7.50796 15.2666C8.82522 15.2687 10.1178 14.9093 11.2448 14.2274C11.4046 14.1311 11.5196 13.9754 11.5645 13.7944C11.6094 13.6134 11.5806 13.422 11.4844 13.2622C11.3881 13.1024 11.2324 12.9875 11.0514 12.9425C10.8704 12.8976 10.679 12.9264 10.5192 13.0227C9.71701 13.5042 8.81117 13.7866 7.87747 13.8462C6.94377 13.9059 6.00935 13.7411 5.15239 13.3657C4.29542 12.9902 3.54082 12.415 2.95171 11.6882C2.36261 10.9613 1.95613 10.1039 1.76627 9.18781C1.57641 8.27167 1.6087 7.32338 1.86044 6.42228C2.11217 5.52117 2.57603 4.69345 3.21322 4.00835C3.8504 3.32325 4.64238 2.8007 5.5229 2.48441C6.40342 2.16811 7.34688 2.06727 8.27436 2.19032C9.13584 2.30487 9.96105 2.60961 10.6902 3.08247C11.4194 3.55532 12.0342 4.18446 12.4902 4.92429C12.9462 5.66412 13.2319 6.49612 13.3266 7.36C13.4213 8.22389 13.3226 9.09802 13.0378 9.91907C12.9639 10.1165 12.8303 10.286 12.6557 10.4041C12.4811 10.5222 12.274 10.5831 12.0633 10.5781C11.7855 10.5778 11.5193 10.4673 11.3229 10.2709C11.1265 10.0745 11.016 9.80822 11.0156 9.53048V5.18751C11.0156 5.00103 10.9415 4.82219 10.8097 4.69033C10.6778 4.55847 10.499 4.48439 10.3125 4.48439C10.126 4.48439 9.94717 4.55847 9.8153 4.69033C9.68344 4.82219 9.60936 5.00103 9.60936 5.18751V5.19407C9.07633 4.79177 8.43973 4.5496 7.77407 4.49592C7.10842 4.44223 6.44124 4.57926 5.85062 4.89094C5.26 5.20263 4.77038 5.6761 4.43905 6.25593C4.10772 6.83575 3.94839 7.49796 3.97971 8.16504C4.01103 8.83212 4.2317 9.47649 4.6159 10.0227C5.0001 10.569 5.53193 10.9945 6.14915 11.2494C6.76637 11.5044 7.44345 11.5783 8.10115 11.4625C8.75885 11.3467 9.36996 11.046 9.86296 10.5955C10.0621 11.0104 10.3742 11.3607 10.7634 11.6064C11.1525 11.852 11.6031 11.983 12.0633 11.9844C12.5664 11.9892 13.0585 11.8373 13.4713 11.5497C13.884 11.262 14.197 10.853 14.3667 10.3794C14.7456 9.28475 14.858 8.11552 14.6944 6.96876ZM7.49999 10.1094C7.08279 10.1094 6.67497 9.98567 6.32808 9.75389C5.9812 9.52211 5.71083 9.19267 5.55118 8.80723C5.39153 8.4218 5.34975 7.99767 5.43114 7.58849C5.51253 7.17931 5.71343 6.80346 6.00843 6.50846C6.30344 6.21346 6.67929 6.01256 7.08847 5.93117C7.49765 5.84978 7.92177 5.89155 8.30721 6.0512C8.69265 6.21086 9.02209 6.48122 9.25387 6.82811C9.48565 7.17499 9.60936 7.58282 9.60936 8.00001C9.60874 8.55926 9.38631 9.09543 8.99086 9.49088C8.59541 9.88633 8.05924 10.1088 7.49999 10.1094Z" fill="black"/>
</g>
<defs>
<clipPath id="clip0_129_852">
<rect width="15" height="15" fill="white" transform="translate(0 0.5)"/>
</clipPath>
</defs>
</svg>
