<svg width="20" height="19" viewBox="0 0 20 19" fill="none" xmlns="http://www.w3.org/2000/svg">
<path d="M13.5625 14.6458H2.08329C1.60829 14.6458 1.29163 14.3291 1.29163 13.8541C1.29163 13.3791 1.60829 13.0625 2.08329 13.0625H13.5625C15.5416 13.0625 17.125 11.4791 17.125 9.49996C17.125 7.52079 15.5416 5.93746 13.5625 5.93746H6.04163C5.56663 5.93746 5.24996 5.62079 5.24996 5.14579C5.24996 4.67079 5.56663 4.35413 6.04163 4.35413H13.5625C16.4125 4.35413 18.7083 6.64996 18.7083 9.49996C18.7083 12.35 16.4125 14.6458 13.5625 14.6458Z" fill="black"/>
<path d="M4.06246 16.625C3.82496 16.625 3.66663 16.5458 3.50829 16.3875L1.52913 14.4083C1.21246 14.0917 1.21246 13.6167 1.52913 13.3L3.50829 11.3208C3.82496 11.0042 4.29996 11.0042 4.61663 11.3208C4.93329 11.6375 4.93329 12.1125 4.61663 12.4292L3.19163 13.8542L4.61663 15.2792C4.93329 15.5958 4.93329 16.0708 4.61663 16.3875C4.45829 16.5458 4.29996 16.625 4.06246 16.625ZM4.06246 7.91667C2.55829 7.91667 1.29163 6.65 1.29163 5.14583C1.29163 3.64167 2.55829 2.375 4.06246 2.375C5.56663 2.375 6.83329 3.64167 6.83329 5.14583C6.83329 6.65 5.56663 7.91667 4.06246 7.91667ZM4.06246 3.95833C3.42913 3.95833 2.87496 4.5125 2.87496 5.14583C2.87496 5.77917 3.42913 6.33333 4.06246 6.33333C4.69579 6.33333 5.24996 5.77917 5.24996 5.14583C5.24996 4.5125 4.69579 3.95833 4.06246 3.95833Z" fill="black"/>
</svg>
