<svg width="19" height="19" viewBox="0 0 19 19" fill="none" xmlns="http://www.w3.org/2000/svg">
<path fill-rule="evenodd" clip-rule="evenodd" d="M16.6274 7.91659C16.8373 7.91659 17.0387 7.83318 17.1872 7.68471C17.3356 7.53625 17.4191 7.33488 17.4191 7.12492V2.37492C17.4191 2.16496 17.3356 1.96359 17.1872 1.81513C17.0387 1.66666 16.8373 1.58325 16.6274 1.58325H11.875C11.665 1.58325 11.4637 1.66666 11.3152 1.81513C11.1668 1.96359 11.0833 2.16496 11.0833 2.37492C11.0833 2.58488 11.1668 2.78625 11.3152 2.93471C11.4637 3.08318 11.665 3.16659 11.875 3.16659H14.7171L7.90322 9.98046C7.75901 10.1298 7.67921 10.3297 7.68102 10.5373C7.68282 10.7449 7.76608 10.9435 7.91286 11.0902C8.05964 11.237 8.2582 11.3203 8.46578 11.3221C8.67335 11.3239 8.87333 11.2441 9.02264 11.0999L15.8365 4.286V7.12492C15.8365 7.33488 15.9199 7.53625 16.0684 7.68471C16.2169 7.83318 16.4174 7.91659 16.6274 7.91659ZM3.95834 3.95825C3.32845 3.95825 2.72436 4.20847 2.27896 4.65387C1.83357 5.09927 1.58334 5.70336 1.58334 6.33325V15.0416C1.58334 15.6715 1.83357 16.2756 2.27896 16.721C2.72436 17.1664 3.32845 17.4166 3.95834 17.4166H12.6667C13.2966 17.4166 13.9007 17.1664 14.3461 16.721C14.7915 16.2756 15.0417 15.6715 15.0417 15.0416V10.2916C15.0417 10.0816 14.9583 9.88026 14.8098 9.73179C14.6613 9.58333 14.46 9.49992 14.25 9.49992C14.04 9.49992 13.8387 9.58333 13.6902 9.73179C13.5418 9.88026 13.4583 10.0816 13.4583 10.2916V15.0416C13.4583 15.2515 13.3749 15.4529 13.2265 15.6014C13.078 15.7498 12.8766 15.8333 12.6667 15.8333H3.95834C3.74838 15.8333 3.54702 15.7498 3.39855 15.6014C3.25008 15.4529 3.16668 15.2515 3.16668 15.0416V6.33325C3.16668 6.12329 3.25008 5.92193 3.39855 5.77346C3.54702 5.62499 3.74838 5.54159 3.95834 5.54159H8.70834C8.91831 5.54159 9.11967 5.45818 9.26814 5.30971C9.4166 5.16125 9.50001 4.95988 9.50001 4.74992C9.50001 4.53996 9.4166 4.33859 9.26814 4.19013C9.11967 4.04166 8.91831 3.95825 8.70834 3.95825H3.95834Z" fill="black"/>
</svg>
