<svg width="19" height="19" viewBox="0 0 19 19" fill="none" xmlns="http://www.w3.org/2000/svg">
<g clip-path="url(#clip0_138_2813)">
<path d="M11.9976 1.15039H7.03238C6.83344 1.15039 6.64967 1.25637 6.55022 1.42871C6.45076 1.60105 6.45073 1.81302 6.55022 1.98535L11.8584 11.1699H18.1197L12.4792 1.42815C12.4303 1.34373 12.36 1.27363 12.2755 1.22488C12.191 1.17613 12.0951 1.15044 11.9976 1.15039ZM5.71611 2.81835L0.075077 12.561C0.0273206 12.6433 0.00149216 12.7365 6.27389e-05 12.8317C-0.00136668 12.9269 0.0216508 13.0208 0.0669129 13.1045L2.47179 17.5577C2.51882 17.6448 2.58825 17.7178 2.67292 17.7691C2.75759 17.8204 2.85443 17.8482 2.95343 17.8496H2.96159C3.05931 17.8495 3.1553 17.8238 3.23993 17.775C3.32456 17.7261 3.39485 17.6559 3.44375 17.5713L8.84295 8.22871L5.71611 2.81835ZM18.9213 12.5545C18.872 12.4718 18.802 12.4033 18.7183 12.3557C18.6345 12.3082 18.5398 12.2832 18.4435 12.2832H7.81502L4.59845 17.8496H16.0387C16.139 17.8496 16.2375 17.8225 16.3238 17.7711C16.41 17.7197 16.4807 17.646 16.5284 17.5577L18.9333 13.1046C18.979 13.0197 19.002 12.9244 18.9999 12.8279C18.9978 12.7315 18.9707 12.6373 18.9213 12.5545Z" fill="url(#paint0_linear_138_2813)"/>
</g>
<defs>
<linearGradient id="paint0_linear_138_2813" x1="3.16454" y1="2.8291" x2="18.8035" y2="15.0368" gradientUnits="userSpaceOnUse">
<stop stop-color="#7388D9"/>
<stop offset="1" stop-color="#5364A6"/>
</linearGradient>
<clipPath id="clip0_138_2813">
<rect width="19" height="19" fill="white"/>
</clipPath>
</defs>
</svg>
