<svg width="35" height="35" viewBox="0 0 35 35" fill="none" xmlns="http://www.w3.org/2000/svg">
<path d="M31.1719 1.09375H3.82812C3.10292 1.09375 2.40742 1.38184 1.89463 1.89463C1.38184 2.40742 1.09375 3.10292 1.09375 3.82812V31.1719C1.09375 31.8971 1.38184 32.5926 1.89463 33.1054C2.40742 33.6182 3.10292 33.9062 3.82812 33.9062H31.1719C31.8971 33.9062 32.5926 33.6182 33.1054 33.1054C33.6182 32.5926 33.9062 31.8971 33.9062 31.1719V3.82812C33.9062 3.10292 33.6182 2.40742 33.1054 1.89463C32.5926 1.38184 31.8971 1.09375 31.1719 1.09375ZM32.8125 31.1719C32.8125 31.607 32.6396 32.0243 32.332 32.332C32.0243 32.6396 31.607 32.8125 31.1719 32.8125H3.82812C3.393 32.8125 2.9757 32.6396 2.66803 32.332C2.36035 32.0243 2.1875 31.607 2.1875 31.1719V3.82812C2.1875 3.393 2.36035 2.9757 2.66803 2.66803C2.9757 2.36035 3.393 2.1875 3.82812 2.1875H31.1719C31.607 2.1875 32.0243 2.36035 32.332 2.66803C32.6396 2.9757 32.8125 3.393 32.8125 3.82812V31.1719Z" fill="black"/>
<path d="M28.4375 4.375H6.5625C6.12738 4.375 5.71008 4.54785 5.4024 4.85553C5.09473 5.1632 4.92188 5.5805 4.92188 6.01562V10.3906C4.92188 10.8257 5.09473 11.243 5.4024 11.5507C5.71008 11.8584 6.12738 12.0312 6.5625 12.0312H28.4375C28.8726 12.0312 29.2899 11.8584 29.5976 11.5507C29.9053 11.243 30.0781 10.8257 30.0781 10.3906V6.01562C30.0781 5.5805 29.9053 5.1632 29.5976 4.85553C29.2899 4.54785 28.8726 4.375 28.4375 4.375ZM28.9844 10.3906C28.9844 10.5357 28.9268 10.6748 28.8242 10.7773C28.7216 10.8799 28.5825 10.9375 28.4375 10.9375H6.5625C6.41746 10.9375 6.27836 10.8799 6.1758 10.7773C6.07324 10.6748 6.01562 10.5357 6.01562 10.3906V6.01562C6.01562 5.87058 6.07324 5.73149 6.1758 5.62893C6.27836 5.52637 6.41746 5.46875 6.5625 5.46875H28.4375C28.5825 5.46875 28.7216 5.52637 28.8242 5.62893C28.9268 5.73149 28.9844 5.87058 28.9844 6.01562V10.3906ZM6.5625 21.4156H10.9375C11.3726 21.4156 11.7899 21.2428 12.0976 20.9351C12.4053 20.6274 12.5781 20.2101 12.5781 19.775V15.4C12.5781 14.9649 12.4053 14.5476 12.0976 14.2399C11.7899 13.9322 11.3726 13.7594 10.9375 13.7594H6.5625C6.12738 13.7594 5.71008 13.9322 5.4024 14.2399C5.09473 14.5476 4.92188 14.9649 4.92188 15.4V19.775C4.92188 20.2101 5.09473 20.6274 5.4024 20.9351C5.71008 21.2428 6.12738 21.4156 6.5625 21.4156ZM6.01562 15.4C6.01562 15.255 6.07324 15.1159 6.1758 15.0133C6.27836 14.9107 6.41746 14.8531 6.5625 14.8531H10.9375C11.0825 14.8531 11.2216 14.9107 11.3242 15.0133C11.4268 15.1159 11.4844 15.255 11.4844 15.4V19.775C11.4844 19.92 11.4268 20.0591 11.3242 20.1617C11.2216 20.2643 11.0825 20.3219 10.9375 20.3219H6.5625C6.41746 20.3219 6.27836 20.2643 6.1758 20.1617C6.07324 20.0591 6.01562 19.92 6.01562 19.775V15.4ZM19.6875 21.4156C20.1226 21.4156 20.5399 21.2428 20.8476 20.9351C21.1553 20.6274 21.3281 20.2101 21.3281 19.775V15.4C21.3281 14.9649 21.1553 14.5476 20.8476 14.2399C20.5399 13.9322 20.1226 13.7594 19.6875 13.7594H15.3125C14.8774 13.7594 14.4601 13.9322 14.1524 14.2399C13.8447 14.5476 13.6719 14.9649 13.6719 15.4V19.775C13.6719 20.2101 13.8447 20.6274 14.1524 20.9351C14.4601 21.2428 14.8774 21.4156 15.3125 21.4156H19.6875ZM14.7656 19.775V15.4C14.7656 15.255 14.8232 15.1159 14.9258 15.0133C15.0284 14.9107 15.1675 14.8531 15.3125 14.8531H19.6875C19.8325 14.8531 19.9716 14.9107 20.0742 15.0133C20.1768 15.1159 20.2344 15.255 20.2344 15.4V19.775C20.2344 19.92 20.1768 20.0591 20.0742 20.1617C19.9716 20.2643 19.8325 20.3219 19.6875 20.3219H15.3125C15.1675 20.3219 15.0284 20.2643 14.9258 20.1617C14.8232 20.0591 14.7656 19.92 14.7656 19.775ZM28.4375 13.7594H24.0625C23.6274 13.7594 23.2101 13.9322 22.9024 14.2399C22.5947 14.5476 22.4219 14.9649 22.4219 15.4V19.775C22.4219 20.2101 22.5947 20.6274 22.9024 20.9351C23.2101 21.2428 23.6274 21.4156 24.0625 21.4156H28.4375C28.8726 21.4156 29.2899 21.2428 29.5976 20.9351C29.9053 20.6274 30.0781 20.2101 30.0781 19.775V15.4C30.0781 14.9649 29.9053 14.5476 29.5976 14.2399C29.2899 13.9322 28.8726 13.7594 28.4375 13.7594ZM28.9844 19.775C28.9844 19.92 28.9268 20.0591 28.8242 20.1617C28.7216 20.2643 28.5825 20.3219 28.4375 20.3219H24.0625C23.9175 20.3219 23.7784 20.2643 23.6758 20.1617C23.5732 20.0591 23.5156 19.92 23.5156 19.775V15.4C23.5156 15.255 23.5732 15.1159 23.6758 15.0133C23.7784 14.9107 23.9175 14.8531 24.0625 14.8531H28.4375C28.5825 14.8531 28.7216 14.9107 28.8242 15.0133C28.9268 15.1159 28.9844 15.255 28.9844 15.4V19.775ZM29.5312 24.15H5.46875C5.32371 24.15 5.18461 24.2076 5.08205 24.3102C4.97949 24.4127 4.92188 24.5518 4.92188 24.6969C4.92188 24.8419 4.97949 24.981 5.08205 25.0836C5.18461 25.1861 5.32371 25.2437 5.46875 25.2437H29.5312C29.6763 25.2437 29.8154 25.1861 29.9179 25.0836C30.0205 24.981 30.0781 24.8419 30.0781 24.6969C30.0781 24.5518 30.0205 24.4127 29.9179 24.3102C29.8154 24.2076 29.6763 24.15 29.5312 24.15ZM29.5312 28.4375H5.46875C5.32371 28.4375 5.18461 28.4951 5.08205 28.5977C4.97949 28.7002 4.92188 28.8393 4.92188 28.9844C4.92188 29.1294 4.97949 29.2685 5.08205 29.3711C5.18461 29.4736 5.32371 29.5312 5.46875 29.5312H29.5312C29.6763 29.5312 29.8154 29.4736 29.9179 29.3711C30.0205 29.2685 30.0781 29.1294 30.0781 28.9844C30.0781 28.8393 30.0205 28.7002 29.9179 28.5977C29.8154 28.4951 29.6763 28.4375 29.5312 28.4375Z" fill="black"/>
</svg>
