<svg width="22" height="22" viewBox="0 0 22 22" fill="none" xmlns="http://www.w3.org/2000/svg">
<path d="M18.7773 11.5222H16.6238C16.3307 11.5222 16.047 11.5623 15.7769 11.6359C15.2442 10.5887 14.1566 9.86914 12.9033 9.86914H9.0967C7.84343 9.86914 6.75581 10.5887 6.22308 11.6359C5.94709 11.5605 5.66227 11.5223 5.37616 11.5222H3.22266C1.44568 11.5222 0 12.9679 0 14.7449V18.1875C0 19.2536 0.86741 20.1211 1.93359 20.1211H20.0664C21.1326 20.1211 22 19.2536 22 18.1875V14.7449C22 12.9679 20.5543 11.5222 18.7773 11.5222ZM5.87404 13.0919V18.832H1.93359C1.5782 18.832 1.28906 18.5429 1.28906 18.1875V14.7449C1.28906 13.6788 2.15647 12.8113 3.22266 12.8113H5.37616C5.55113 12.8113 5.72056 12.8351 5.88186 12.8789C5.87692 12.9498 5.87431 13.0208 5.87404 13.0919ZM14.8369 18.832H7.16311V13.0918C7.16311 12.0257 8.03052 11.1582 9.0967 11.1582H12.9033C13.9695 11.1582 14.8369 12.0257 14.8369 13.0918V18.832ZM20.7109 18.1875C20.7109 18.5429 20.4218 18.832 20.0664 18.832H16.126V13.0918C16.1257 13.0208 16.1231 12.9497 16.1181 12.8788C16.283 12.834 16.453 12.8113 16.6238 12.8113H18.7773C19.8435 12.8113 20.7109 13.6787 20.7109 14.7449V18.1875Z" fill="black"/>
<path d="M4.29949 5.43577C2.72043 5.43577 1.43579 6.7204 1.43579 8.29946C1.43575 9.87852 2.72043 11.1632 4.29949 11.1632C5.8785 11.1632 7.16318 9.87852 7.16318 8.29946C7.16318 6.7204 5.87854 5.43577 4.29949 5.43577ZM4.29944 9.87409C3.43117 9.87409 2.72481 9.16773 2.72481 8.29946C2.72481 7.43119 3.43117 6.72483 4.29944 6.72483C5.16771 6.72483 5.87408 7.43119 5.87408 8.29946C5.87408 9.16773 5.16771 9.87409 4.29944 9.87409ZM11 1.87903C8.89044 1.87903 7.17418 3.59529 7.17418 5.70488C7.17418 7.81447 8.89044 9.53073 11 9.53073C13.1096 9.53073 14.8259 7.81447 14.8259 5.70488C14.8259 3.59533 13.1096 1.87903 11 1.87903ZM11 8.24167C9.60123 8.24167 8.46324 7.10368 8.46324 5.70488C8.46324 4.30612 9.60123 3.16809 11 3.16809C12.3988 3.16809 13.5368 4.30607 13.5368 5.70488C13.5368 7.10368 12.3988 8.24167 11 8.24167ZM17.7006 5.43577C16.1216 5.43577 14.8369 6.7204 14.8369 8.29946C14.8369 9.87852 16.1216 11.1632 17.7006 11.1632C19.2796 11.1632 20.5643 9.87852 20.5643 8.29946C20.5643 6.7204 19.2796 5.43577 17.7006 5.43577ZM17.7006 9.87409C16.8324 9.87409 16.1259 9.16773 16.1259 8.29946C16.126 7.43119 16.8324 6.72483 17.7006 6.72483C18.5688 6.72483 19.2752 7.43119 19.2752 8.29946C19.2752 9.16773 18.5688 9.87409 17.7006 9.87409Z" fill="black"/>
</svg>
