<svg width="30" height="30" viewBox="0 0 30 30" fill="none" xmlns="http://www.w3.org/2000/svg">
<path d="M15.1706 11.8371C15.6657 11.8371 16.1376 11.9406 16.5666 12.1268C16.5988 11.4268 16.8401 10.7794 17.2272 10.2435C16.9504 10.1855 16.6684 10.1563 16.3857 10.1562H13.6584C13.3712 10.1562 13.0901 10.1863 12.8197 10.2426C13.247 10.8325 13.4789 11.5414 13.4827 12.2698C13.9997 11.9853 14.5804 11.8364 15.1706 11.8371Z" fill="black"/>
<path d="M15.0215 9.93701C16.7966 9.93701 18.2356 8.498 18.2356 6.7229C18.2356 4.9478 16.7966 3.50879 15.0215 3.50879C13.2464 3.50879 11.8074 4.9478 11.8074 6.7229C11.8074 8.498 13.2464 9.93701 15.0215 9.93701Z" fill="black"/>
<path d="M20.0695 15.4214C20.8548 15.4214 21.608 15.1094 22.1633 14.5541C22.7187 13.9988 23.0306 13.2456 23.0306 12.4602C23.0307 12.0714 22.9542 11.6863 22.8054 11.327C22.6566 10.9677 22.4385 10.6412 22.1635 10.3662C21.8885 10.0912 21.5621 9.8731 21.2028 9.72432C20.8435 9.57553 20.4584 9.499 20.0695 9.49908C18.4489 9.49908 17.1349 10.8008 17.1104 12.4155C18.0441 13.001 18.6988 13.9914 18.8182 15.1409C19.2096 15.3254 19.6368 15.4211 20.0695 15.4214ZM9.97393 9.49877C8.33778 9.49877 7.01245 10.8244 7.01245 12.4599C7.01245 14.0955 8.33778 15.4208 9.97393 15.4208C10.5316 15.4206 11.0777 15.2622 11.5488 14.9639C11.6923 14.0372 12.1853 13.2007 12.9265 12.6262C12.9296 12.5708 12.9348 12.516 12.9348 12.4599C12.9348 10.8244 11.6089 9.49877 9.97393 9.49877ZM21.9929 9.43569C22.9265 10.0212 23.5812 11.0115 23.7003 12.1614C24.0917 12.3457 24.519 12.4415 24.9516 12.4419C25.3405 12.4419 25.7255 12.3653 26.0848 12.2165C26.4441 12.0678 26.7705 11.8496 27.0455 11.5747C27.3205 11.2997 27.5386 10.9732 27.6874 10.6139C27.8362 10.2547 27.9128 9.86958 27.9127 9.4807C27.9128 9.09182 27.8362 8.70675 27.6874 8.34746C27.5386 7.98818 27.3205 7.66173 27.0455 7.38675C26.7705 7.11177 26.4441 6.89365 26.0848 6.74485C25.7255 6.59606 25.3405 6.51949 24.9516 6.51953C23.3314 6.51923 22.0174 7.82128 21.9929 9.43569Z" fill="black"/>
<path d="M15.1706 18.4789C16.8062 18.4789 18.1321 17.153 18.1321 15.5174C18.1321 13.8818 16.8062 12.5559 15.1706 12.5559C13.535 12.5559 12.2091 13.8818 12.2091 15.5174C12.2091 17.153 13.535 18.4789 15.1706 18.4789Z" fill="black"/>
<path d="M21.3263 15.6233H18.8324C18.807 16.5861 18.402 17.4998 17.7058 18.1652C19.564 18.7183 20.9239 20.4417 20.9239 22.4775V23.4243C23.3859 23.3334 24.805 22.6364 24.8984 22.5886L25.0962 22.4882H25.1167V19.4149C25.1173 17.3241 23.4166 15.6233 21.3263 15.6233Z" fill="black"/>
<path d="M26.208 12.6438H23.7147C23.6894 13.6065 23.2846 14.5202 22.5884 15.1858C24.4466 15.7388 25.8062 17.4619 25.8062 19.4977V20.4445C28.268 20.3539 29.6873 19.6569 29.7807 19.6088L29.9785 19.5087H29.9996V16.4354C29.9996 14.3449 28.2989 12.6438 26.208 12.6438ZM12.6335 18.165C11.9412 17.5027 11.5368 16.595 11.5075 15.6374C11.4153 15.6307 11.3237 15.623 11.2294 15.623H8.71749C6.6266 15.623 4.92554 17.3241 4.92554 19.415V22.4885L4.93319 22.536L5.14479 22.6028C6.74542 23.1028 8.17425 23.3325 9.41476 23.4054V22.4772C9.41537 20.4418 10.7747 18.7183 12.6335 18.165Z" fill="black"/>
<path d="M16.4267 18.6805H13.9138C11.8229 18.6805 10.1219 20.3822 10.1219 22.4722V25.5457L10.1298 25.5938L10.3411 25.6599C12.3365 26.2831 14.07 26.4913 15.4964 26.4913C18.2833 26.4913 19.8983 25.6967 19.9982 25.6462L20.196 25.5457H20.2168V22.4722C20.2177 20.3816 18.517 18.6805 16.4267 18.6805ZM5.04838 12.5362C5.481 12.5358 5.90821 12.44 6.29961 12.2557C6.41903 11.1058 7.07343 10.1152 8.0071 9.52968C7.98261 7.91558 6.66861 6.61353 5.04838 6.61353C4.65947 6.61349 4.27435 6.69006 3.91503 6.83887C3.55571 6.98769 3.22922 7.20583 2.95421 7.48083C2.67921 7.75584 2.46107 8.08233 2.31225 8.44165C2.16344 8.80097 2.08687 9.18608 2.08691 9.575C2.08691 9.96389 2.16351 10.349 2.31234 10.7083C2.46117 11.0676 2.67932 11.394 2.95432 11.669C3.22932 11.9439 3.5558 12.1621 3.9151 12.3109C4.2744 12.4597 4.65949 12.5362 5.04838 12.5362ZM7.4112 15.2802C6.71518 14.6144 6.31047 13.7005 6.28522 12.7377H3.79165C1.70076 12.738 0 14.439 0 16.5296V19.6032H0.0211293L0.218949 19.7033C0.312653 19.7505 1.73138 20.4483 4.19341 20.5387V19.5918C4.19341 17.5564 5.55273 15.833 7.4112 15.2802Z" fill="black"/>
<path d="M8.51177 9.20594C8.86699 9.06202 9.409 8.88533 9.92652 8.88533C10.5289 8.88533 11.118 9.04028 11.6435 9.33517C11.7608 9.21974 11.8684 9.09478 11.965 8.96158C11.4648 8.30458 11.1937 7.5017 11.1934 6.67593C11.1934 6.11922 11.3177 5.5668 11.5547 5.0649C11.0184 4.57798 10.3195 4.30918 9.59518 4.31128C8.95056 4.3119 8.32408 4.52483 7.81259 4.91715C7.30109 5.30948 6.93306 5.85935 6.76538 6.48179C7.75999 7.06055 8.40796 8.07231 8.51177 9.20594ZM18.103 8.79407C18.2072 8.95931 18.3278 9.1137 18.4628 9.25494C18.9469 9.01265 19.4807 8.88602 20.0221 8.88502C20.5515 8.88502 21.0589 9.02037 21.3915 9.13368C21.4439 8.52804 21.6518 7.9462 21.9952 7.44456C22.3385 6.94292 22.8057 6.5385 23.3513 6.2705C23.1505 5.69791 22.7769 5.20178 22.2821 4.85061C21.7873 4.49944 21.1956 4.31057 20.5889 4.31006C20.1907 4.30982 19.7966 4.39097 19.4309 4.54852C19.0652 4.70608 18.7355 4.93672 18.4622 5.22628C18.6563 5.68928 18.7546 6.17587 18.7546 6.67471C18.7563 7.43075 18.5291 8.1696 18.103 8.79407Z" fill="black"/>
</svg>
