<svg width="20" height="20" viewBox="0 0 20 20" fill="none" xmlns="http://www.w3.org/2000/svg">
<path d="M8.75015 3.4375C8.75015 3.49931 8.73182 3.55973 8.69749 3.61112C8.66315 3.66251 8.61434 3.70256 8.55724 3.72621C8.50014 3.74986 8.43731 3.75605 8.37669 3.744C8.31607 3.73194 8.26039 3.70217 8.21668 3.65847C8.17298 3.61477 8.14322 3.55908 8.13116 3.49847C8.1191 3.43785 8.12529 3.37501 8.14894 3.31791C8.17259 3.26081 8.21265 3.212 8.26404 3.17767C8.31543 3.14333 8.37585 3.125 8.43765 3.125C8.52053 3.125 8.60002 3.15792 8.65862 3.21653C8.71723 3.27513 8.75015 3.35462 8.75015 3.4375ZM9.37515 3.75H11.5627C11.6455 3.75 11.725 3.71708 11.7836 3.65847C11.8422 3.59987 11.8752 3.52038 11.8752 3.4375C11.8752 3.35462 11.8422 3.27513 11.7836 3.21653C11.725 3.15792 11.6455 3.125 11.5627 3.125H9.37515C9.29227 3.125 9.21279 3.15792 9.15418 3.21653C9.09558 3.27513 9.06265 3.35462 9.06265 3.4375C9.06265 3.52038 9.09558 3.59987 9.15418 3.65847C9.21279 3.71708 9.29227 3.75 9.37515 3.75ZM8.43765 4.375C8.37585 4.375 8.31543 4.39333 8.26404 4.42767C8.21265 4.462 8.17259 4.51081 8.14894 4.56791C8.12529 4.62501 8.1191 4.68785 8.13116 4.74847C8.14322 4.80908 8.17298 4.86477 8.21668 4.90847C8.26039 4.95217 8.31607 4.98194 8.37669 4.994C8.43731 5.00605 8.50014 4.99986 8.55724 4.97621C8.61434 4.95256 8.66315 4.91251 8.69749 4.86112C8.73182 4.80973 8.75015 4.74931 8.75015 4.6875C8.75015 4.60462 8.71723 4.52513 8.65862 4.46653C8.60002 4.40792 8.52053 4.375 8.43765 4.375ZM9.37515 5H11.5627C11.6455 5 11.725 4.96708 11.7836 4.90847C11.8422 4.84987 11.8752 4.77038 11.8752 4.6875C11.8752 4.60462 11.8422 4.52513 11.7836 4.46653C11.725 4.40792 11.6455 4.375 11.5627 4.375H9.37515C9.29227 4.375 9.21279 4.40792 9.15418 4.46653C9.09558 4.52513 9.06265 4.60462 9.06265 4.6875C9.06265 4.77038 9.09558 4.84987 9.15418 4.90847C9.21279 4.96708 9.29227 5 9.37515 5ZM8.43765 5.625C8.37585 5.625 8.31543 5.64333 8.26404 5.67767C8.21265 5.712 8.17259 5.76081 8.14894 5.81791C8.12529 5.87501 8.1191 5.93785 8.13116 5.99847C8.14322 6.05908 8.17298 6.11477 8.21668 6.15847C8.26039 6.20218 8.31607 6.23194 8.37669 6.244C8.43731 6.25605 8.50014 6.24986 8.55724 6.22621C8.61434 6.20256 8.66315 6.16251 8.69749 6.11112C8.73182 6.05973 8.75015 5.99931 8.75015 5.9375C8.75015 5.85462 8.71723 5.77513 8.65862 5.71653C8.60002 5.65792 8.52053 5.625 8.43765 5.625ZM9.37515 6.25H11.5627C11.6455 6.25 11.725 6.21708 11.7836 6.15847C11.8422 6.09987 11.8752 6.02038 11.8752 5.9375C11.8752 5.85462 11.8422 5.77513 11.7836 5.71653C11.725 5.65792 11.6455 5.625 11.5627 5.625H9.37515C9.29227 5.625 9.21279 5.65792 9.15418 5.71653C9.09558 5.77513 9.06265 5.85462 9.06265 5.9375C9.06265 6.02038 9.09558 6.09987 9.15418 6.15847C9.21279 6.21708 9.29227 6.25 9.37515 6.25ZM8.43765 6.875C8.37585 6.875 8.31543 6.89333 8.26404 6.92767C8.21265 6.962 8.17259 7.01081 8.14894 7.06791C8.12529 7.12501 8.1191 7.18785 8.13116 7.24847C8.14322 7.30908 8.17298 7.36477 8.21668 7.40847C8.26039 7.45218 8.31607 7.48194 8.37669 7.494C8.43731 7.50605 8.50014 7.49986 8.55724 7.47621C8.61434 7.45256 8.66315 7.41251 8.69749 7.36112C8.73182 7.30973 8.75015 7.24931 8.75015 7.1875C8.75015 7.10462 8.71723 7.02513 8.65862 6.96653C8.60002 6.90792 8.52053 6.875 8.43765 6.875ZM11.8752 7.1875C11.8752 7.10462 11.8422 7.02513 11.7836 6.96653C11.725 6.90792 11.6455 6.875 11.5627 6.875H9.37515C9.29227 6.875 9.21279 6.90792 9.15418 6.96653C9.09558 7.02513 9.06265 7.10462 9.06265 7.1875C9.06265 7.27038 9.09558 7.34987 9.15418 7.40847C9.21279 7.46708 9.29227 7.5 9.37515 7.5H11.5627C11.6455 7.5 11.725 7.46708 11.7836 7.40847C11.8422 7.34987 11.8752 7.27038 11.8752 7.1875ZM19.0764 18.0016C18.9956 18.102 18.8949 18.1848 18.7808 18.2446C18.6666 18.3044 18.5412 18.3401 18.4127 18.3494C17.8436 18.3897 17.0605 18.4375 16.5627 18.4375C16.0648 18.4375 15.2817 18.3897 14.7127 18.3494C14.5838 18.3402 14.4582 18.3044 14.3438 18.2443C14.2295 18.1843 14.1288 18.1012 14.048 18.0003C13.9673 17.8994 13.9084 17.7829 13.8748 17.6582C13.8413 17.5334 13.834 17.4031 13.8533 17.2753L14.0002 16.2953C14.0292 16.1032 14.1171 15.9248 14.2519 15.7847C14.3866 15.6447 14.5615 15.5499 14.7523 15.5134L15.3867 15.3925C15.139 15.1113 15.0017 14.7498 15.0002 14.375C15.0006 14.015 15.1252 13.6661 15.3529 13.3872C15.5806 13.1084 15.8975 12.9165 16.2502 12.8441V11.5625C16.2501 11.4796 16.2171 11.4002 16.1585 11.3416C16.0999 11.283 16.0205 11.2501 15.9377 11.25H10.3127V12.8441C10.6653 12.9165 10.9822 13.1084 11.2099 13.3872C11.4376 13.6661 11.5622 14.015 11.5627 14.375C11.5612 14.7498 11.4238 15.1113 11.1761 15.3925L11.8105 15.5134C12.0013 15.5499 12.1761 15.6447 12.3108 15.7847C12.4455 15.9248 12.5334 16.1032 12.5623 16.2953L12.7092 17.2753C12.7285 17.4031 12.7212 17.5334 12.6876 17.6582C12.6541 17.7829 12.5952 17.8994 12.5144 18.0003C12.4337 18.1012 12.333 18.1843 12.2186 18.2443C12.1043 18.3044 11.9787 18.3402 11.8498 18.3494C11.2814 18.3897 10.4983 18.4375 10.0002 18.4375C9.50203 18.4375 8.71922 18.3897 8.15015 18.3494C8.02129 18.3402 7.89572 18.3044 7.78134 18.2443C7.66697 18.1843 7.56626 18.1012 7.48554 18.0003C7.40483 17.8994 7.34586 17.7829 7.31234 17.6582C7.27883 17.5334 7.27148 17.4031 7.29078 17.2753L7.43765 16.2953C7.46668 16.1032 7.55463 15.9248 7.68935 15.7847C7.82408 15.6447 7.99896 15.5499 8.18984 15.5134L8.82421 15.3925C8.5765 15.1113 8.43915 14.7498 8.43765 14.375C8.43812 14.015 8.56271 13.6661 8.79041 13.3872C9.01811 13.1084 9.33499 12.9165 9.68765 12.8441V11.25H4.06265C3.9798 11.2501 3.90036 11.283 3.84177 11.3416C3.78319 11.4002 3.75024 11.4796 3.75015 11.5625V12.8441C4.10281 12.9165 4.4197 13.1084 4.6474 13.3872C4.8751 13.6661 4.99968 14.015 5.00015 14.375C4.99865 14.7498 4.86131 15.1113 4.61359 15.3925L5.24797 15.5134C5.43881 15.5499 5.61364 15.6447 5.74831 15.7847C5.88299 15.9248 5.97088 16.1032 5.99984 16.2953L6.14672 17.2753C6.16601 17.4031 6.15867 17.5334 6.12515 17.6582C6.09163 17.7829 6.03266 17.8994 5.95195 18.0003C5.87123 18.1012 5.77052 18.1843 5.65615 18.2443C5.54177 18.3044 5.4162 18.3402 5.28734 18.3494C4.7189 18.3897 3.93578 18.4375 3.43765 18.4375C2.93953 18.4375 2.15672 18.3897 1.58765 18.3494C1.45879 18.3402 1.33322 18.3044 1.21884 18.2443C1.10447 18.1843 1.00376 18.1012 0.923045 18.0003C0.842332 17.8994 0.783363 17.7829 0.749844 17.6582C0.716325 17.5334 0.708983 17.4031 0.728278 17.2753L0.875153 16.2953C0.904181 16.1032 0.992126 15.9248 1.12686 15.7847C1.26158 15.6447 1.43646 15.5499 1.62734 15.5134L2.26172 15.3925C2.014 15.1113 1.87665 14.7498 1.87515 14.375C1.87562 14.015 2.00021 13.6661 2.22791 13.3872C2.45561 13.1084 2.77249 12.9165 3.12515 12.8441V11.5625C3.1254 11.3139 3.22425 11.0756 3.40001 10.8999C3.57578 10.7241 3.81409 10.6252 4.06265 10.625H9.68765V9.0625H8.12515C7.87659 9.06225 7.63828 8.9634 7.46251 8.78764C7.28675 8.61188 7.1879 8.37356 7.18765 8.125V2.5C7.1879 2.25144 7.28675 2.01312 7.46251 1.83736C7.63828 1.6616 7.87659 1.56275 8.12515 1.5625H11.8752C12.1237 1.56275 12.362 1.6616 12.5378 1.83736C12.7136 2.01312 12.8124 2.25144 12.8127 2.5V8.125C12.8124 8.37356 12.7136 8.61188 12.5378 8.78764C12.362 8.9634 12.1237 9.06225 11.8752 9.0625H10.3127V10.625H15.9377C16.1862 10.6252 16.4245 10.7241 16.6003 10.8999C16.7761 11.0756 16.8749 11.3139 16.8752 11.5625V12.8441C17.2278 12.9165 17.5447 13.1084 17.7724 13.3872C18.0001 13.6661 18.1247 14.015 18.1252 14.375C18.1237 14.7498 17.9863 15.1113 17.7386 15.3925L18.373 15.5134C18.5638 15.5499 18.7386 15.6447 18.8733 15.7847C19.008 15.9248 19.0959 16.1032 19.1248 16.2953L19.2717 17.2753C19.2908 17.4033 19.2833 17.5338 19.2497 17.6588C19.2161 17.7837 19.1571 17.9004 19.0764 18.0016ZM8.12515 8.4375H11.8752C11.958 8.43742 12.0374 8.40447 12.096 8.34588C12.1546 8.28729 12.1876 8.20785 12.1877 8.125V2.5C12.1876 2.41715 12.1546 2.33771 12.096 2.27912C12.0374 2.22053 11.958 2.18758 11.8752 2.1875H8.12515C8.0423 2.18758 7.96286 2.22053 7.90427 2.27912C7.84569 2.33771 7.81274 2.41715 7.81265 2.5V8.125C7.81274 8.20785 7.84569 8.28729 7.90427 8.34588C7.96286 8.40447 8.0423 8.43742 8.12515 8.4375ZM5.13109 16.1275L3.83359 15.8806C3.70464 15.9167 3.57154 15.9358 3.43765 15.9375C3.30375 15.9357 3.17065 15.9165 3.04172 15.8803L1.74422 16.1272C1.68054 16.1393 1.6222 16.1709 1.5773 16.2177C1.5324 16.2645 1.50314 16.324 1.49359 16.3881L1.34672 17.3681C1.33999 17.4109 1.34231 17.4546 1.3535 17.4964C1.3647 17.5382 1.38453 17.5772 1.41172 17.6109C1.43835 17.6444 1.47168 17.6719 1.50957 17.6917C1.54745 17.7115 1.58906 17.7232 1.63172 17.7259C2.19078 17.7656 2.95828 17.8125 3.43765 17.8125C3.91703 17.8125 4.68453 17.7656 5.2439 17.7259C5.28653 17.7231 5.32809 17.7113 5.36592 17.6915C5.40375 17.6716 5.43702 17.6441 5.46359 17.6106C5.49074 17.577 5.51054 17.538 5.52174 17.4963C5.53293 17.4545 5.53527 17.4108 5.52859 17.3681L5.38172 16.3881C5.37212 16.3241 5.34289 16.2647 5.29805 16.218C5.25321 16.1713 5.19467 16.1397 5.13109 16.1275ZM3.43765 13.4375C3.25223 13.4375 3.07098 13.4925 2.91681 13.5955C2.76263 13.6985 2.64247 13.8449 2.57152 14.0162C2.50056 14.1875 2.48199 14.376 2.51817 14.5579C2.55434 14.7398 2.64363 14.9068 2.77474 15.0379C2.90585 15.169 3.0729 15.2583 3.25476 15.2945C3.43661 15.3307 3.62511 15.3121 3.79642 15.2411C3.96772 15.1702 4.11414 15.05 4.21716 14.8958C4.32017 14.7417 4.37515 14.5604 4.37515 14.375C4.3749 14.1264 4.27605 13.8881 4.10029 13.7124C3.92453 13.5366 3.68622 13.4377 3.43765 13.4375ZM11.6936 16.1275L10.3961 15.8806C10.1376 15.9568 9.86268 15.9568 9.60421 15.8806L8.30672 16.1275C8.24308 16.1396 8.18478 16.1712 8.13988 16.2179C8.09498 16.2646 8.0657 16.3241 8.05609 16.3881L7.90921 17.3681C7.90249 17.4109 7.90481 17.4546 7.916 17.4964C7.9272 17.5382 7.94703 17.5772 7.97422 17.6109C8.00085 17.6444 8.03418 17.6719 8.07207 17.6917C8.10995 17.7115 8.15156 17.7232 8.19422 17.7259C8.75328 17.7656 9.52078 17.8125 10.0002 17.8125C10.4795 17.8125 11.247 17.7656 11.8064 17.7259C11.849 17.7231 11.8906 17.7113 11.9284 17.6915C11.9662 17.6716 11.9995 17.6441 12.0261 17.6106C12.0532 17.577 12.073 17.538 12.0842 17.4963C12.0954 17.4545 12.0978 17.4108 12.0911 17.3681L11.9442 16.3881C11.9346 16.3241 11.9054 16.2647 11.8605 16.218C11.8157 16.1713 11.7572 16.1397 11.6936 16.1275ZM10.0002 13.4375C9.81473 13.4375 9.63348 13.4925 9.47931 13.5955C9.32513 13.6985 9.20497 13.8449 9.13402 14.0162C9.06306 14.1875 9.04449 14.376 9.08067 14.5579C9.11684 14.7398 9.20613 14.9068 9.33724 15.0379C9.46835 15.169 9.6354 15.2583 9.81726 15.2945C9.99911 15.3307 10.1876 15.3121 10.3589 15.2411C10.5302 15.1702 10.6766 15.05 10.7797 14.8958C10.8827 14.7417 10.9377 14.5604 10.9377 14.375C10.9374 14.1264 10.8386 13.8881 10.6628 13.7124C10.487 13.5366 10.2487 13.4377 10.0002 13.4375ZM15.6252 14.375C15.6252 14.5604 15.6801 14.7417 15.7831 14.8958C15.8862 15.05 16.0326 15.1702 16.2039 15.2411C16.3752 15.3121 16.5637 15.3307 16.7456 15.2945C16.9274 15.2583 17.0945 15.169 17.2256 15.0379C17.3567 14.9068 17.446 14.7398 17.4821 14.5579C17.5183 14.376 17.4997 14.1875 17.4288 14.0162C17.3578 13.8449 17.2377 13.6985 17.0835 13.5955C16.9293 13.4925 16.7481 13.4375 16.5627 13.4375C16.3141 13.4377 16.0758 13.5366 15.9 13.7124C15.7243 13.8881 15.6254 14.1264 15.6252 14.375ZM18.6536 17.3681L18.5067 16.3881C18.4971 16.3241 18.4679 16.2647 18.423 16.218C18.3782 16.1713 18.32 16.1397 18.2564 16.1275L16.9586 15.8806C16.7001 15.9568 16.4252 15.9568 16.1667 15.8806L14.8692 16.1275C14.8056 16.1396 14.7473 16.1712 14.7024 16.2179C14.6575 16.2646 14.6282 16.3241 14.6186 16.3881L14.4717 17.3681C14.465 17.4108 14.4674 17.4545 14.4786 17.4963C14.4898 17.538 14.5096 17.577 14.5367 17.6106C14.5633 17.6442 14.5966 17.6718 14.6345 17.6917C14.6724 17.7116 14.714 17.7234 14.7567 17.7262C15.3158 17.7656 16.0833 17.8125 16.5627 17.8125C17.042 17.8125 17.8095 17.7656 18.3689 17.7259C18.4115 17.7231 18.4531 17.7113 18.4909 17.6915C18.5287 17.6716 18.562 17.6441 18.5886 17.6106C18.6157 17.577 18.6355 17.538 18.6467 17.4963C18.6579 17.4545 18.6603 17.4108 18.6536 17.3681Z" fill="black"/>
</svg>
