<svg width="30" height="30" viewBox="0 0 30 30" fill="none" xmlns="http://www.w3.org/2000/svg">
<path d="M28.5938 6.09375H27.1875V4.6875C27.1875 4.56318 27.1381 4.44395 27.0502 4.35604C26.9623 4.26814 26.8431 4.21875 26.7188 4.21875H16.875C16.5099 4.22016 16.1502 4.30695 15.8247 4.47217C15.4991 4.6374 15.2167 4.87648 15 5.17031C14.7833 4.87648 14.5009 4.6374 14.1753 4.47217C13.8498 4.30695 13.4901 4.22016 13.125 4.21875H3.28125C3.15693 4.21875 3.0377 4.26814 2.94979 4.35604C2.86189 4.44395 2.8125 4.56318 2.8125 4.6875V6.09375H1.40625C1.28193 6.09375 1.1627 6.14314 1.07479 6.23104C0.986886 6.31895 0.9375 6.43818 0.9375 6.5625V25.3125C0.9375 25.4368 0.986886 25.556 1.07479 25.644C1.1627 25.7319 1.28193 25.7812 1.40625 25.7812H28.5938C28.7181 25.7812 28.8373 25.7319 28.9252 25.644C29.0131 25.556 29.0625 25.4368 29.0625 25.3125V6.5625C29.0625 6.43818 29.0131 6.31895 28.9252 6.23104C28.8373 6.14314 28.7181 6.09375 28.5938 6.09375ZM1.875 24.8438V7.03125H2.8125V23.4375C2.8125 23.5618 2.86189 23.681 2.94979 23.769C3.0377 23.8569 3.15693 23.9062 3.28125 23.9062H13.125C13.415 23.9077 13.6974 23.9985 13.934 24.1663C14.1705 24.334 14.3496 24.5706 14.4469 24.8438H1.875ZM14.5312 23.4516C14.1286 23.1399 13.6342 22.9702 13.125 22.9688H3.75V5.15625H13.125C13.4976 5.15736 13.8547 5.30588 14.1181 5.56936C14.3816 5.83284 14.5301 6.18988 14.5312 6.5625V23.4516ZM15 23.9203L14.9859 23.9062H15.0141L15 23.9203ZM15.4688 6.5625C15.4699 6.18988 15.6184 5.83284 15.8819 5.56936C16.1453 5.30588 16.5024 5.15736 16.875 5.15625H26.25V22.9688H16.875C16.3658 22.9702 15.8714 23.1399 15.4688 23.4516V6.5625ZM28.125 24.8438H15.5531C15.6504 24.5706 15.8295 24.334 16.066 24.1663C16.3026 23.9985 16.585 23.9077 16.875 23.9062H26.7188C26.8431 23.9062 26.9623 23.8569 27.0502 23.769C27.1381 23.681 27.1875 23.5618 27.1875 23.4375V7.03125H28.125V24.8438Z" fill="black"/>
<path d="M22.0312 6.09375C21.534 6.09375 21.0571 6.29129 20.7054 6.64292C20.3538 6.99456 20.1562 7.47147 20.1562 7.96875V19.2188C20.1563 19.3029 20.1789 19.3855 20.2219 19.4578L21.6281 21.8016C21.6696 21.8715 21.7286 21.9295 21.7993 21.9697C21.87 22.0099 21.9499 22.0311 22.0312 22.0311C22.1126 22.0311 22.1925 22.0099 22.2632 21.9697C22.3339 21.9295 22.3929 21.8715 22.4344 21.8016L23.8406 19.4578C23.8836 19.3855 23.9062 19.3029 23.9062 19.2188V7.96875C23.9062 7.47147 23.7087 6.99456 23.3571 6.64292C23.0054 6.29129 22.5285 6.09375 22.0312 6.09375ZM22.0312 20.6531L21.2578 19.3594L22.0312 18.8438L22.8047 19.3594L22.0312 20.6531ZM22.9688 18.3422L22.5 18.0281V11.7188H21.5625V18.0281L21.0938 18.3422V10.7812H22.9688V18.3422ZM22.9688 9.84375H21.0938V8.90625H22.9688V9.84375ZM21.0938 7.96875C21.0938 7.72011 21.1925 7.48165 21.3683 7.30584C21.5442 7.13002 21.7826 7.03125 22.0312 7.03125C22.2799 7.03125 22.5183 7.13002 22.6942 7.30584C22.87 7.48165 22.9688 7.72011 22.9688 7.96875H21.0938ZM4.6875 6.5625H13.5938V7.5H4.6875V6.5625ZM4.6875 8.4375H9.84375V9.375H4.6875V8.4375ZM10.7812 8.4375H13.5938V9.375H10.7812V8.4375ZM4.6875 10.3125H6.5625V11.25H4.6875V10.3125ZM7.5 10.3125H13.5938V11.25H7.5V10.3125Z" fill="black"/>
</svg>
