<svg width="30" height="30" viewBox="0 0 30 30" fill="none" xmlns="http://www.w3.org/2000/svg">
<path d="M12.1363 24.7641C7.27736 23.7226 3.75002 19.3535 3.75002 14.375C3.75002 8.51625 8.51627 3.75 14.375 3.75C19.3537 3.75 23.7226 7.27735 24.7637 12.1365C24.7981 12.2971 24.8637 12.4493 24.9569 12.5845C25.0501 12.7196 25.1691 12.8351 25.3069 12.9243C25.4447 13.0135 25.5988 13.0747 25.7603 13.1044C25.9218 13.1341 26.0875 13.1316 26.2481 13.0973C26.4086 13.0629 26.5608 12.9972 26.696 12.904C26.8312 12.8108 26.9466 12.6919 27.0359 12.554C27.1251 12.4162 27.1863 12.2621 27.2159 12.1007C27.2456 11.9392 27.2432 11.7734 27.2088 11.6129C25.9219 5.60825 20.5243 1.24998 14.375 1.24998C7.13809 1.24998 1.25 7.13778 1.25 14.375C1.25 20.5243 5.60791 25.9216 11.6126 27.2085C11.7731 27.2429 11.9388 27.2454 12.1002 27.2157C12.2617 27.186 12.4157 27.1249 12.5535 27.0357C12.6913 26.9465 12.8102 26.8311 12.9034 26.6959C12.9966 26.5608 13.0622 26.4087 13.0966 26.2482C13.131 26.0877 13.1334 25.922 13.1038 25.7605C13.0741 25.5991 13.013 25.445 12.9238 25.3072C12.8346 25.1694 12.7192 25.0505 12.584 24.9574C12.4489 24.8642 12.2968 24.7985 12.1363 24.7641Z" fill="black"/>
<path d="M13.125 6.87498V13.125H9.37503C9.04499 13.1273 8.72923 13.26 8.49665 13.4941C8.26407 13.7283 8.13354 14.045 8.13354 14.375C8.13354 14.7051 8.26407 15.0217 8.49665 15.2559C8.72923 15.4901 9.04499 15.6228 9.37503 15.625H14.375C14.7065 15.625 15.0245 15.4933 15.2589 15.2589C15.4933 15.0245 15.625 14.7065 15.625 14.375V6.87498C15.6228 6.54494 15.4901 6.22919 15.2559 5.99661C15.0217 5.76403 14.7051 5.6335 14.375 5.6335C14.045 5.6335 13.7283 5.76403 13.4942 5.99661C13.26 6.22919 13.1273 6.54494 13.125 6.87498ZM21.875 13.75C17.395 13.75 13.75 17.3946 13.75 21.875C13.75 26.3554 17.395 30 21.875 30C26.355 30 30 26.3555 30 21.875C30 17.3945 26.355 13.75 21.875 13.75ZM21.875 27.5C20.7625 27.5 19.675 27.1701 18.7499 26.552C17.8249 25.9339 17.1039 25.0554 16.6782 24.0276C16.2524 22.9997 16.141 21.8687 16.3581 20.7776C16.5751 19.6865 17.1109 18.6842 17.8975 17.8975C18.6842 17.1108 19.6865 16.5751 20.7776 16.3581C21.8688 16.141 22.9998 16.2524 24.0276 16.6782C25.0554 17.1039 25.9339 17.8249 26.552 18.7499C27.1701 19.6749 27.5 20.7625 27.5 21.875C27.4983 23.3663 26.9052 24.7961 25.8506 25.8506C24.7961 26.9051 23.3663 27.4983 21.875 27.5Z" fill="black"/>
<path d="M21.875 17.5C21.5435 17.5 21.2256 17.6317 20.9912 17.8662C20.7567 18.1006 20.625 18.4185 20.625 18.75V21.875C20.6239 22.0399 20.6554 22.2033 20.7177 22.356C20.78 22.5086 20.8719 22.6474 20.9881 22.7644C21.1043 22.8814 21.2425 22.9743 21.3947 23.0376C21.5469 23.101 21.7102 23.1336 21.875 23.1336C22.0399 23.1336 22.2032 23.101 22.3554 23.0376C22.5076 22.9743 22.6458 22.8814 22.762 22.7644C22.8782 22.6474 22.9701 22.5086 23.0324 22.356C23.0947 22.2033 23.1262 22.0399 23.125 21.875V18.75C23.125 18.4185 22.9933 18.1006 22.7589 17.8661C22.5245 17.6317 22.2065 17.5 21.875 17.5Z" fill="black"/>
<path d="M21.875 26.25C22.5653 26.25 23.125 25.6904 23.125 25C23.125 24.3097 22.5653 23.75 21.875 23.75C21.1846 23.75 20.625 24.3097 20.625 25C20.625 25.6904 21.1846 26.25 21.875 26.25Z" fill="black"/>
</svg>
