<svg width="30" height="30" viewBox="0 0 30 30" fill="none" xmlns="http://www.w3.org/2000/svg">
<path d="M18.8109 17.0532H11.1891C10.9359 17.0532 10.7344 17.2548 10.7344 17.5079V27.2907C10.7344 27.5438 10.9359 27.7454 11.1891 27.7454H18.8156C19.0688 27.7454 19.2703 27.5438 19.2703 27.2907V17.5079C19.2691 17.3869 19.2201 17.2712 19.1341 17.1861C19.0481 17.101 18.932 17.0532 18.8109 17.0532ZM18.3563 26.836H11.6438V17.9626H18.3609V26.836H18.3563Z" fill="black"/>
<path d="M27.5813 0H2.41877C1.66877 0 1.06409 0.609375 1.06409 1.35469V18.5578C1.06409 19.3078 1.67346 19.9125 2.41877 19.9125H8.47971V29.5406C8.47971 29.7938 8.68127 29.9953 8.9344 29.9953H21.0656C21.3188 29.9953 21.5203 29.7938 21.5203 29.5406V19.9172H27.5813C28.3266 19.9172 28.936 19.3078 28.936 18.5625V1.35469C28.936 0.609375 28.3313 0 27.5813 0ZM11.911 9.3C12.1922 9.21094 12.4735 9.09375 12.75 8.96719L14.7235 10.4859C14.8078 10.5469 14.9016 10.5797 15 10.5797C15.0985 10.5797 15.1969 10.5469 15.2766 10.4859L17.2735 8.94375C17.5453 9.07031 17.8125 9.1875 18.0469 9.28594C19.5281 9.90938 19.4485 11.8547 19.35 12.6609H18.0375V11.6953C18.0375 11.5747 17.9896 11.4591 17.9043 11.3738C17.8191 11.2885 17.7034 11.2406 17.5828 11.2406C17.4622 11.2406 17.3466 11.2885 17.2613 11.3738C17.1761 11.4591 17.1281 11.5747 17.1281 11.6953V12.6609H12.8625V11.6953C12.8625 11.4422 12.661 11.2406 12.4078 11.2406C12.1547 11.2406 11.9531 11.4422 11.9531 11.6953V12.6609H10.6406C10.5469 11.8172 10.4625 9.76406 11.911 9.3ZM13.4672 4.30781C13.4531 3.97031 13.5563 3.67031 13.7719 3.44531C14.0156 3.1875 14.3953 3.04219 14.8125 3.04219H15.1875C15.6 3.04219 15.9797 3.1875 16.2281 3.44531C16.4438 3.67031 16.5469 3.97031 16.5328 4.30781L16.5141 4.81406C16.5047 5.025 16.6641 5.2125 16.8656 5.27344C16.8703 5.30625 16.8703 5.3625 16.8516 5.45156C16.8047 5.69063 16.6735 5.90156 16.6125 5.9625C16.4625 6.00938 16.3453 6.13125 16.3031 6.28594C16.186 6.74531 15.9797 7.12031 15.7266 7.37344C15.6797 7.40156 15.6375 7.44375 15.6 7.49062C15.4125 7.63594 15.2063 7.71562 14.9953 7.71562C14.7844 7.71562 14.5781 7.63594 14.3906 7.48594C14.3584 7.44028 14.3169 7.40195 14.2688 7.37344C14.0156 7.12031 13.8094 6.74531 13.6922 6.28594C13.6734 6.20968 13.635 6.13968 13.5807 6.08293C13.5264 6.02618 13.4582 5.98465 13.3828 5.9625C13.3172 5.90156 13.1906 5.69063 13.1438 5.45156C13.125 5.3625 13.1297 5.30625 13.1297 5.27344C13.3406 5.22188 13.4906 5.02969 13.4813 4.81406L13.4672 4.30781ZM13.9969 8.31563C14.3063 8.51719 14.6485 8.62969 15.0047 8.62969C15.3656 8.62969 15.7078 8.51719 16.0172 8.31094C16.125 8.37187 16.2422 8.43281 16.3688 8.49844L15 9.55312L13.65 8.5125C13.7766 8.44219 13.8938 8.37656 13.9969 8.31563ZM12.4125 13.5656H22.6735L22.3828 14.7984H7.6219L7.33127 13.5656H12.4125ZM9.38909 29.0906V15.7125H20.611V29.0906H9.38909ZM28.0266 18.5578C28.0266 18.8062 27.825 19.0031 27.5813 19.0031H21.5203V15.7078H22.7391C22.95 15.7078 23.1328 15.5625 23.1797 15.3562L23.686 13.2141C23.7017 13.1475 23.7022 13.0783 23.6875 13.0115C23.6727 12.9448 23.643 12.8822 23.6006 12.8286C23.5582 12.7749 23.5042 12.7315 23.4427 12.7017C23.3812 12.6719 23.3137 12.6563 23.2453 12.6562H22.0547V8.61094C22.0547 8.45156 21.9703 8.30625 21.8391 8.22188L20.0813 7.14375L20.1469 7.05469C20.3016 6.85781 20.2641 6.57187 20.0625 6.41719C19.861 6.2625 19.5797 6.3 19.425 6.50156L18.6703 7.47656C18.6336 7.52379 18.6066 7.57785 18.591 7.63561C18.5753 7.69336 18.5713 7.75365 18.5791 7.81297C18.587 7.87229 18.6065 7.92946 18.6367 7.98115C18.6668 8.03284 18.7069 8.07802 18.7547 8.11406C18.9516 8.26875 19.2375 8.23125 19.3922 8.02969L19.5188 7.86563L21.1406 8.86406V12.6516H20.2688C20.386 11.5875 20.3953 9.28125 18.4031 8.44219C18.0844 8.30625 17.7516 8.16094 17.4422 8.01094H17.4375C17.161 7.87969 16.8985 7.74844 16.6782 7.63125C16.8657 7.36406 17.0203 7.05469 17.1281 6.70781C17.4657 6.46406 17.6766 5.97188 17.7422 5.625C17.8313 5.17969 17.7188 4.89844 17.611 4.73906C17.5594 4.66406 17.4985 4.59844 17.4282 4.54688L17.4375 4.34531C17.4656 3.76406 17.2688 3.22031 16.8797 2.8125C16.4578 2.37188 15.8531 2.12812 15.1828 2.12812H14.8078C14.1375 2.12812 13.5328 2.37188 13.111 2.8125C12.7266 3.21563 12.5297 3.75938 12.5531 4.34063L12.5625 4.54688C12.4922 4.59844 12.4313 4.66406 12.3797 4.73906C12.2719 4.89844 12.1641 5.18437 12.2485 5.625C12.3188 5.96719 12.525 6.46406 12.8625 6.70781C12.9703 7.06406 13.1297 7.37344 13.3219 7.64531C12.8719 7.89844 12.2203 8.24062 11.6297 8.42812C9.58596 9.07969 9.60471 11.5453 9.7219 12.6516H6.75002C6.68165 12.6516 6.61417 12.6672 6.55265 12.697C6.49113 12.7268 6.43715 12.7702 6.39477 12.8239C6.35238 12.8775 6.32269 12.9401 6.3079 13.0068C6.29312 13.0736 6.29363 13.1428 6.3094 13.2094L6.81565 15.3516C6.86252 15.5578 7.04534 15.7031 7.25627 15.7031H8.47502V18.9984H2.41877C2.30067 18.9984 2.1874 18.9515 2.10389 18.868C2.02038 18.7845 1.97346 18.6712 1.97346 18.5531V1.35469C1.97346 1.10625 2.17502 0.909375 2.41877 0.909375H27.5813C27.8297 0.909375 28.0266 1.11094 28.0266 1.35469V18.5578Z" fill="black"/>
</svg>
