<svg width="30" height="30" viewBox="0 0 30 30" fill="none" xmlns="http://www.w3.org/2000/svg">
<path d="M25.7288 2.0724H23.0426V0.9375C23.0426 0.419766 22.6229 0 22.1051 0C21.5873 0 21.1676 0.419766 21.1676 0.9375V2.0724H8.83215V0.9375C8.83215 0.419766 8.41244 0 7.89465 0C7.37686 0 6.95715 0.419766 6.95715 0.9375V2.0724H4.27098C2.48732 2.0724 1.03613 3.52359 1.03613 5.30725V26.7651C1.03613 28.5488 2.48732 29.9999 4.27098 29.9999H25.7289C27.5125 29.9999 28.9637 28.5487 28.9637 26.7651V5.30725C28.9637 3.52354 27.5125 2.0724 25.7288 2.0724ZM4.27098 3.9474H6.95721V5.08225C6.95721 5.59998 7.37691 6.01975 7.89471 6.01975C8.4125 6.01975 8.83221 5.59998 8.83221 5.08225V3.9474H21.1677V5.08225C21.1677 5.59998 21.5874 6.01975 22.1052 6.01975C22.6229 6.01975 23.0427 5.59998 23.0427 5.08225V3.9474H25.7289C26.4787 3.9474 27.0887 4.55742 27.0887 5.30725V9.17766H2.91113V5.30725C2.91113 4.55742 3.52115 3.9474 4.27098 3.9474ZM25.7288 28.125H4.27098C3.52115 28.125 2.91113 27.515 2.91113 26.7652V11.0527H27.0887V26.7652C27.0887 27.515 26.4787 28.125 25.7288 28.125ZM19.97 15.9445L16.3257 19.5888L19.97 23.2331C20.3362 23.5992 20.3362 24.1928 19.97 24.5589C19.787 24.742 19.547 24.8336 19.3071 24.8336C19.0672 24.8336 18.8273 24.742 18.6443 24.5589L14.9999 20.9146L11.3556 24.5589C11.2687 24.6461 11.1653 24.7152 11.0516 24.7624C10.9378 24.8095 10.8159 24.8337 10.6927 24.8335C10.5696 24.8337 10.4476 24.8095 10.3339 24.7624C10.2201 24.7152 10.1168 24.6461 10.0299 24.5589C9.66371 24.1928 9.66371 23.5992 10.0299 23.2331L13.6742 19.5888L10.0299 15.9445C9.66371 15.5784 9.66371 14.9848 10.0299 14.6187C10.396 14.2525 10.9896 14.2525 11.3557 14.6187L14.9999 18.263L18.6443 14.6187C19.0104 14.2526 19.604 14.2526 19.9701 14.6187C20.3362 14.9848 20.3362 15.5784 19.97 15.9445Z" fill="black"/>
</svg>
