<svg width="17" height="17" viewBox="0 0 17 17" fill="none" xmlns="http://www.w3.org/2000/svg">
<g clip-path="url(#clip0_162_1132)">
<path d="M7.04776 12.9572L5.04458 14.9604C4.21409 15.7909 2.86919 15.7909 2.03941 14.9605C1.20946 14.1306 1.20946 12.7856 2.03924 11.9558L6.04632 7.9487C6.8761 7.11888 8.22114 7.11888 9.05092 7.9487C9.32754 8.22532 9.77605 8.22532 10.0527 7.9487C10.3293 7.67208 10.3293 7.22357 10.0527 6.94696C8.66961 5.56391 6.42763 5.56391 5.04458 6.94696L1.03753 10.954C-0.345519 12.337 -0.345519 14.579 1.03753 15.9621C2.42042 17.3459 4.66257 17.3459 6.04635 15.9621L8.04954 13.9589C8.32616 13.6823 8.32616 13.2338 8.04954 12.9572C7.77293 12.6805 7.32438 12.6806 7.04776 12.9572Z" fill="black"/>
<path d="M15.9625 1.03729C14.5795 -0.345763 12.3368 -0.345763 10.9537 1.03729L8.55034 3.44068C8.27372 3.71729 8.27372 4.1658 8.55034 4.44242C8.82696 4.71904 9.27547 4.71904 9.55208 4.44242L11.9555 2.03903C12.7853 1.20922 14.131 1.20922 14.9608 2.03903C15.7906 2.86882 15.7906 4.21385 14.9608 5.04363L10.5535 9.45094C9.72371 10.2808 8.37871 10.2808 7.54893 9.45094C7.27231 9.17433 6.8238 9.17433 6.54718 9.45094C6.27057 9.72756 6.27057 10.1761 6.54718 10.4527C7.93024 11.8357 10.1722 11.8357 11.5553 10.4527L15.9625 6.04541C17.3456 4.66236 17.3456 2.42034 15.9625 1.03729Z" fill="black"/>
</g>
<defs>
<clipPath id="clip0_162_1132">
<rect width="17" height="17" fill="white"/>
</clipPath>
</defs>
</svg>
