<svg width="19" height="19" viewBox="0 0 19 19" fill="none" xmlns="http://www.w3.org/2000/svg">
<path d="M11.7266 5.19531C11.7266 3.96759 10.7277 2.96875 9.5 2.96875C8.27227 2.96875 7.27344 3.96759 7.27344 5.19531C7.27344 6.42304 8.27227 7.42188 9.5 7.42188C10.7277 7.42188 11.7266 6.42304 11.7266 5.19531ZM8.75781 5.19531C8.75781 4.78607 9.09076 4.45312 9.5 4.45312C9.90924 4.45312 10.2422 4.78607 10.2422 5.19531C10.2422 5.60455 9.90924 5.9375 9.5 5.9375C9.09076 5.9375 8.75781 5.60455 8.75781 5.19531ZM9.5 15.5903L10.1434 14.4716C14.4202 7.03497 14.6953 6.93697 14.6953 5.19531C14.6953 2.33062 12.3647 0 9.5 0C6.6353 0 4.30469 2.33062 4.30469 5.19531C4.30469 7.00577 4.80392 7.42458 8.85663 14.4716L9.5 15.5903ZM9.5 1.48438C11.5462 1.48438 13.2109 3.1491 13.2109 5.19531C13.2109 6.39239 13.1251 6.34125 9.49978 12.6159C6.06538 6.68099 5.78906 6.44979 5.78906 5.19531C5.78906 3.1491 7.45379 1.48438 9.5 1.48438ZM5.78906 19H13.2109V17.5156H5.78906V19Z" fill="black"/>
</svg>
