<svg width="15" height="16" viewBox="0 0 15 16" fill="none" xmlns="http://www.w3.org/2000/svg">
<path d="M11.25 5.5H10.625V4.25C10.625 2.525 9.225 1.125 7.5 1.125C5.775 1.125 4.375 2.525 4.375 4.25V5.5H3.75C3.0625 5.5 2.5 6.0625 2.5 6.75V13C2.5 13.6875 3.0625 14.25 3.75 14.25H11.25C11.9375 14.25 12.5 13.6875 12.5 13V6.75C12.5 6.0625 11.9375 5.5 11.25 5.5ZM5.625 4.25C5.625 3.2125 6.4625 2.375 7.5 2.375C8.5375 2.375 9.375 3.2125 9.375 4.25V5.5H5.625V4.25ZM11.25 13H3.75V6.75H11.25V13ZM7.5 11.125C8.1875 11.125 8.75 10.5625 8.75 9.875C8.75 9.1875 8.1875 8.625 7.5 8.625C6.8125 8.625 6.25 9.1875 6.25 9.875C6.25 10.5625 6.8125 11.125 7.5 11.125Z" fill="black"/>
</svg>
