<svg width="19" height="19" viewBox="0 0 19 19" fill="none" xmlns="http://www.w3.org/2000/svg">
<g clip-path="url(#clip0_181_1212)">
<path d="M18.9266 9.22383L14.4735 1.43086C14.4248 1.34566 14.3544 1.27484 14.2696 1.22558C14.1847 1.17632 14.0883 1.15038 13.9902 1.15039H5.00971C4.91158 1.1504 4.8152 1.17634 4.73033 1.22559C4.64546 1.27485 4.57512 1.34566 4.52643 1.43086L0.0733066 9.22383C0.0252287 9.30793 -6.10352e-05 9.40313 -6.10352e-05 9.5C-6.10352e-05 9.59687 0.0252287 9.69207 0.0733066 9.77617L4.52643 17.5691C4.57511 17.6543 4.64545 17.7252 4.73032 17.7744C4.81519 17.8237 4.91158 17.8496 5.00971 17.8496H13.9902C14.0883 17.8496 14.1847 17.8237 14.2696 17.7744C14.3544 17.7252 14.4248 17.6543 14.4735 17.5691L18.9266 9.77617C18.9747 9.69207 18.9999 9.59687 18.9999 9.5C18.9999 9.40313 18.9747 9.30793 18.9266 9.22383ZM13.6671 16.7363H5.33274L1.19772 9.5L5.33274 2.26367H13.6671L17.8022 9.5L13.6671 16.7363Z" fill="black"/>
</g>
<defs>
<clipPath id="clip0_181_1212">
<rect width="19" height="19" fill="white"/>
</clipPath>
</defs>
</svg>
