<svg width="13" height="13" viewBox="0 0 13 13" fill="none" xmlns="http://www.w3.org/2000/svg">
<g clip-path="url(#clip0_181_1125)">
<mask id="mask0_181_1125" style="mask-type:luminance" maskUnits="userSpaceOnUse" x="0" y="0" width="13" height="13">
<path fill-rule="evenodd" clip-rule="evenodd" d="M12.5 0.5V12.5L0.5 12.5V0.5L12.5 0.5Z" fill="white"/>
</mask>
<g mask="url(#mask0_181_1125)">
<path fill-rule="evenodd" clip-rule="evenodd" d="M5.375 2.75C5.375 3.5 5.75 3.875 6.5 3.875C7.25 3.875 7.625 3.5 7.625 2.75C7.625 2.375 7.53125 2.09375 7.34375 1.90625C7.15625 1.71875 6.875 1.625 6.5 1.625C5.75 1.625 5.375 2 5.375 2.75ZM6.5 5.375C5.75 5.375 5.375 5.75 5.375 6.5C5.375 7.25 5.75 7.625 6.5 7.625C7.25 7.625 7.625 7.25 7.625 6.5C7.625 5.75 7.25 5.375 6.5 5.375ZM6.5 9.125C5.75 9.125 5.375 9.5 5.375 10.25C5.375 11 5.75 11.375 6.5 11.375C7.25 11.375 7.625 11 7.625 10.25C7.625 9.5 7.25 9.125 6.5 9.125Z" fill="black"/>
</g>
</g>
<defs>
<clipPath id="clip0_181_1125">
<rect width="12" height="12" fill="white" transform="translate(0.5 0.5)"/>
</clipPath>
</defs>
</svg>
