<svg width="26" height="25" viewBox="0 0 26 25" fill="none" xmlns="http://www.w3.org/2000/svg">
<path d="M14.1823 5.98962C13.7563 5.98962 13.3573 5.78129 13.1136 5.43233L12.1792 4.09171C11.9153 3.71297 11.5639 3.4036 11.1547 3.18995C10.7455 2.9763 10.2908 2.86469 9.82921 2.86462H4.66671C3.90697 2.86462 3.17835 3.16643 2.64114 3.70364C2.10393 4.24085 1.80212 4.96947 1.80212 5.72921V19.2709C1.80212 20.0303 2.10421 20.7594 2.64067 21.2969C3.1784 21.8336 3.90699 22.1351 4.66671 22.1355H21.3334C22.0928 22.1355 22.8219 21.8334 23.3594 21.2969C23.8961 20.7592 24.1976 20.0306 24.198 19.2709V8.85421C24.198 8.09483 23.8959 7.36567 23.3594 6.82817C22.8217 6.29149 22.0931 5.98994 21.3334 5.98962H14.1823ZM14.1823 7.55212H21.3334C21.6785 7.55268 22.0094 7.69004 22.2535 7.9341C22.4975 8.17817 22.6349 8.50904 22.6355 8.85421V19.2709C22.6349 19.616 22.4975 19.9469 22.2535 20.191C22.0094 20.435 21.6785 20.5724 21.3334 20.573H4.66671C4.32154 20.5724 3.99067 20.435 3.7466 20.191C3.50254 19.9469 3.36518 19.616 3.36462 19.2709V5.72921C3.36462 5.01046 3.94796 4.42712 4.66671 4.42712H9.82921C10.2552 4.42712 10.6542 4.63546 10.898 4.98442L11.8323 6.32504C12.0961 6.70384 12.4476 7.01325 12.8568 7.22691C13.266 7.44057 13.7207 7.55215 14.1823 7.55212Z" fill="black"/>
<path d="M15.6042 13.2812H10.3959C10.1887 13.2812 9.98996 13.3636 9.84345 13.5101C9.69693 13.6566 9.61462 13.8553 9.61462 14.0625C9.61462 14.2697 9.69693 14.4684 9.84345 14.6149C9.98996 14.7614 10.1887 14.8438 10.3959 14.8438H15.6042C15.8114 14.8438 16.0101 14.7614 16.1566 14.6149C16.3031 14.4684 16.3855 14.2697 16.3855 14.0625C16.3855 13.8553 16.3031 13.6566 16.1566 13.5101C16.0101 13.3636 15.8114 13.2812 15.6042 13.2812Z" fill="black"/>
<path d="M12.9688 12.5313L14.499 14.0626L12.9688 15.5938C12.8963 15.6663 12.8388 15.7524 12.7995 15.8471C12.7603 15.9419 12.7401 16.0434 12.7401 16.1459C12.7401 16.2484 12.7603 16.35 12.7995 16.4447C12.8388 16.5394 12.8963 16.6255 12.9688 16.698C13.0413 16.7705 13.1274 16.828 13.2221 16.8672C13.3168 16.9065 13.4183 16.9267 13.5209 16.9267C13.6234 16.9267 13.7249 16.9065 13.8197 16.8672C13.9144 16.828 14.0005 16.7705 14.073 16.698L16.1563 14.6147C16.2289 14.5422 16.2864 14.4561 16.3257 14.3614C16.365 14.2667 16.3852 14.1651 16.3852 14.0626C16.3852 13.96 16.365 13.8585 16.3257 13.7638C16.2864 13.669 16.2289 13.583 16.1563 13.5105L14.073 11.4272C14.0005 11.3547 13.9144 11.2972 13.8197 11.2579C13.7249 11.2187 13.6234 11.1985 13.5209 11.1985C13.4183 11.1985 13.3168 11.2187 13.2221 11.2579C13.1274 11.2972 13.0413 11.3547 12.9688 11.4272C12.8963 11.4997 12.8388 11.5857 12.7995 11.6805C12.7603 11.7752 12.7401 11.8767 12.7401 11.9793C12.7401 12.0818 12.7603 12.1833 12.7995 12.278C12.8388 12.3728 12.8963 12.4588 12.9688 12.5313Z" fill="black"/>
</svg>
