<svg width="20" height="20" viewBox="0 0 20 20" fill="none" xmlns="http://www.w3.org/2000/svg">
<path d="M16.875 3.75H9.375C9.19885 3.55306 8.98307 3.39558 8.7418 3.28787C8.50053 3.18016 8.23922 3.12466 7.975 3.125H3.125C2.62772 3.125 2.15081 3.32255 1.79917 3.67418C1.44754 4.02581 1.25 4.50272 1.25 5V15C1.25 15.4973 1.44754 15.9742 1.79917 16.3258C2.15081 16.6775 2.62772 16.875 3.125 16.875H16.875C17.3723 16.875 17.8492 16.6775 18.2008 16.3258C18.5525 15.9742 18.75 15.4973 18.75 15V5.625C18.75 5.12772 18.5525 4.65081 18.2008 4.29918C17.8492 3.94755 17.3723 3.75 16.875 3.75ZM17.5 8.125V15C17.5 15.1658 17.4342 15.3247 17.3169 15.4419C17.1997 15.5592 17.0408 15.625 16.875 15.625H3.125C2.95924 15.625 2.80027 15.5592 2.68306 15.4419C2.56585 15.3247 2.5 15.1658 2.5 15V5C2.5 4.83424 2.56585 4.67527 2.68306 4.55806C2.80027 4.44085 2.95924 4.375 3.125 4.375H7.975C8.09148 4.37419 8.20586 4.40595 8.30526 4.46669C8.40465 4.52742 8.48509 4.61473 8.5375 4.71875L9.09375 5.8375C9.24965 6.14978 9.48962 6.41235 9.78665 6.59564C10.0837 6.77894 10.426 6.87569 10.775 6.875H16.875C17.0408 6.875 17.1997 6.94085 17.3169 7.05806C17.4342 7.17527 17.5 7.33424 17.5 7.5V8.125ZM17.5 5.7375C17.2996 5.66474 17.0882 5.62669 16.875 5.625H10.775C10.6585 5.62581 10.5441 5.59406 10.4447 5.53332C10.3454 5.47258 10.2649 5.38527 10.2125 5.28125L10.075 5H16.875C17.0408 5 17.1997 5.06585 17.3169 5.18306C17.4342 5.30027 17.5 5.45924 17.5 5.625V5.7375ZM12.5 11.25C12.5 11.4158 12.4342 11.5747 12.3169 11.6919C12.1997 11.8092 12.0408 11.875 11.875 11.875H10.625V13.125C10.625 13.2908 10.5592 13.4497 10.4419 13.5669C10.3247 13.6842 10.1658 13.75 10 13.75C9.83424 13.75 9.67527 13.6842 9.55806 13.5669C9.44085 13.4497 9.375 13.2908 9.375 13.125V11.875H8.125C7.95924 11.875 7.80027 11.8092 7.68306 11.6919C7.56585 11.5747 7.5 11.4158 7.5 11.25C7.5 11.0842 7.56585 10.9253 7.68306 10.8081C7.80027 10.6909 7.95924 10.625 8.125 10.625H9.375V9.375C9.375 9.20924 9.44085 9.05027 9.55806 8.93306C9.67527 8.81585 9.83424 8.75 10 8.75C10.1658 8.75 10.3247 8.81585 10.4419 8.93306C10.5592 9.05027 10.625 9.20924 10.625 9.375V10.625H11.875C12.0408 10.625 12.1997 10.6909 12.3169 10.8081C12.4342 10.9253 12.5 11.0842 12.5 11.25Z" fill="black"/>
</svg>
