<svg width="30" height="30" viewBox="0 0 30 30" fill="none" xmlns="http://www.w3.org/2000/svg">
<g clip-path="url(#clip0_182_1582)">
<path d="M23.4999 30.0001H6.49991C5.94843 30.0001 5.49988 29.5513 5.49988 29.0001V27.5C5.49986 27.4343 5.51279 27.3693 5.53791 27.3087C5.56303 27.248 5.59986 27.1929 5.6463 27.1464C5.69273 27.1 5.74786 27.0632 5.80853 27.038C5.8692 27.0129 5.93423 27 5.99989 27H23.9999C24.0655 27 24.1306 27.0129 24.1912 27.038C24.2519 27.0632 24.307 27.1 24.3535 27.1464C24.3999 27.1929 24.4367 27.248 24.4619 27.3087C24.487 27.3693 24.4999 27.4343 24.4999 27.5V29.0001C24.4999 29.5513 24.0515 30.0001 23.4999 30.0001ZM6.49991 28V29.0001H23.4999V28H6.49991Z" fill="black"/>
<path d="M23.7519 27.934L20.3672 25.9999H9.63276L6.24804 27.934L5.75195 27.0658L9.25195 25.0659C9.32755 25.0228 9.41304 25.0001 9.50005 25H20.5C20.5869 25 20.6727 25.023 20.7481 25.0659L24.2481 27.0658L23.7519 27.934Z" fill="black"/>
<path d="M19.9999 23.4999H20.9999V25.4998H19.9999V23.4999ZM8.99992 23.4999H9.99995V25.4998H8.99992V23.4999ZM0.5 19H29.5V20H0.5V19ZM6.5363 15.329L6.85665 14.4336L7.79863 14.7706L7.47829 15.666L6.5363 15.329ZM10.2172 14.7762L11.1591 14.4392L11.4795 15.3346L10.5375 15.6716L10.2172 14.7762Z" fill="black"/>
<path d="M15 19.5H14V17.5C14 16.6728 13.3271 15.9999 12.4999 15.9999H11.4491C11.2782 16.8768 10.6388 17.9999 8.99995 17.9999C7.36108 17.9999 6.72166 16.8768 6.55076 15.9999H5.49995C4.67279 15.9999 3.99991 16.6728 3.99991 17.5V19.4999H2.99988V17.5C2.99988 16.1215 4.12142 15 5.49984 15H7C7.13261 15 7.25979 15.0527 7.35356 15.1465C7.44734 15.2402 7.50002 15.3674 7.50002 15.5C7.5029 15.7484 7.58864 17.0001 9.00006 17.0001C10.4115 17.0001 10.4971 15.7484 10.5001 15.4974C10.5033 15.2234 10.7262 15 11.0001 15H12.5002C13.8786 15 15.0001 16.1215 15.0001 17.5V19.5H15Z" fill="black"/>
<path d="M27.9999 24H1.99995C0.897212 24 0 23.1028 0 22V4.00006C0 2.89733 0.897212 2.00012 1.99995 2.00012H14.9999V3.00015H1.99995C1.44846 3.00015 0.999915 3.44858 0.999915 4.00018V22.0002C0.999915 22.5516 1.44835 23.0002 1.99995 23.0002H27.9999C28.5514 23.0002 29 22.5518 29 22.0002V4.00006C29 3.44858 28.5515 3.00003 27.9999 3.00003H26.9999V2H27.9999C29.1027 2 29.9999 2.89721 29.9999 3.99995V21.9999C30 23.1028 29.1028 24 27.9999 24Z" fill="black"/>
<path d="M18.5009 13.501C18.3453 13.5008 18.1918 13.4644 18.0527 13.3946C17.8862 13.312 17.7462 13.1844 17.6485 13.0263C17.5508 12.8682 17.4993 12.6859 17.4999 12.5V11H15.9999C15.1727 11 14.4999 10.3271 14.4999 9.49995V1.50005C14.5 0.67288 15.1728 0 16 0H26C26.8271 0 27.5 0.67288 27.5 1.50005V9.50006C27.5 10.3272 26.8271 11.0001 26 11.0001H22.1667L19.1 13.2999C18.9275 13.4302 18.7172 13.5008 18.5009 13.501ZM16 1.00003C15.8674 1.00018 15.7404 1.05291 15.6466 1.14665C15.5529 1.24039 15.5002 1.36748 15.5 1.50005V9.50006C15.5002 9.63263 15.5529 9.75972 15.6466 9.85346C15.7404 9.9472 15.8674 9.99992 16 10.0001H18C18.1326 10.0001 18.2598 10.0528 18.3535 10.1465C18.4473 10.2403 18.5 10.3675 18.5 10.5001V12.5L21.6999 10.1001C21.7865 10.0352 21.8918 10.0001 22 10.0001H26C26.1325 9.99992 26.2596 9.9472 26.3534 9.85346C26.4471 9.75972 26.4998 9.63263 26.5 9.50006V1.50005C26.4998 1.36748 26.4471 1.24039 26.3534 1.14665C26.2596 1.05291 26.1325 1.00018 26 1.00003H16ZM12.8923 10.8764L11.9073 10.7035C12.059 9.83806 12.1024 8.64278 11.4474 7.86292C10.9664 7.29021 10.1429 6.99987 8.99991 6.99987C7.85691 6.99987 7.03332 7.29021 6.55246 7.86292C5.89746 8.64266 5.94085 9.83806 6.09249 10.7035L5.10757 10.8764C4.91913 9.80148 4.88393 8.29463 5.78657 7.21993C6.46649 6.41031 7.54753 5.99995 8.99991 5.99995C10.4523 5.99995 11.5333 6.41031 12.2133 7.21993C13.1159 8.29463 13.0808 9.80148 12.8923 10.8764Z" fill="black"/>
<path d="M8.99997 16.0001C8.23189 16.0001 6.55713 14.8162 6.24072 14.1697C6.11136 13.8677 6.02954 13.5675 5.99077 13.2625C5.84271 13.205 5.71107 13.1119 5.60742 12.9915C5.44136 12.7965 5.35889 12.5439 5.37789 12.2884C5.37639 12.2405 5.30219 12.0797 5.23676 11.9378C5.08121 11.6009 4.86864 11.1395 5.10763 10.6402C5.25903 10.306 5.59934 10.0846 5.97046 10.0745C6.01684 9.98279 6.06958 9.80646 6.10039 9.70318C6.16363 9.49224 6.22294 9.29306 6.33453 9.12897C6.56798 8.79766 6.92387 8.57749 7.31622 8.51736C7.70753 8.45632 8.11361 8.56006 8.42876 8.80101C8.76814 9.06838 9.23319 9.06838 9.566 8.80586C9.88772 8.56029 10.2928 8.45678 10.6853 8.51725C11.0772 8.57725 11.4331 8.79755 11.6616 9.1217C11.778 9.29283 11.8374 9.49201 11.9004 9.70295C11.9314 9.80623 11.9841 9.98244 12.0305 10.0743C12.2144 10.0795 12.393 10.1362 12.5463 10.2378C12.6996 10.3394 12.8213 10.4819 12.8977 10.6492C13.1316 11.1394 12.9192 11.6004 12.7642 11.9368C12.6988 12.0791 12.6246 12.2401 12.6246 12.3267C12.6427 12.5418 12.5592 12.7981 12.3937 12.9911C12.29 13.1116 12.1583 13.2047 12.0101 13.2623C11.9715 13.5667 11.8907 13.8642 11.7698 14.1463C11.4429 14.8162 9.76806 16.0001 8.99997 16.0001ZM5.99469 11.0742C5.97346 11.1475 6.0645 11.3447 6.14482 11.5188C6.25341 11.7541 6.37654 12.021 6.37654 12.327C6.71419 12.3933 6.94983 12.6598 6.96887 12.983C6.98426 13.2485 7.04556 13.5092 7.15004 13.7537C7.30675 14.0728 8.6442 14.9849 9.00009 15C9.35609 14.9849 10.6934 14.0728 10.861 13.7302C10.9555 13.5078 11.0168 13.2485 11.0326 12.9822C11.0416 12.8256 11.103 12.6766 11.207 12.5592C11.311 12.4418 11.4515 12.3628 11.6059 12.3349C11.6234 12.3317 11.6413 12.3295 11.6591 12.3281C11.6247 12.021 11.7477 11.7541 11.8561 11.5188C11.9364 11.3445 12.0272 11.147 11.9911 11.0711C11.2838 11.1278 11.0611 10.3868 10.9425 9.98937C10.9122 9.88782 10.8661 9.73423 10.8387 9.6898C10.7718 9.59506 10.6586 9.52501 10.5335 9.50574C10.4713 9.49661 10.408 9.4999 10.3471 9.51541C10.2862 9.53092 10.229 9.55834 10.1788 9.59609C9.4881 10.1412 8.51346 10.1412 7.816 9.59125C7.72172 9.51947 7.59167 9.48601 7.46808 9.50585C7.40595 9.51541 7.34639 9.53737 7.29292 9.57042C7.23945 9.60347 7.19318 9.64693 7.15685 9.69822C7.13516 9.73434 7.08923 9.88793 7.05876 9.98971C6.94002 10.3864 6.72123 11.1255 5.99469 11.0742ZM16.0001 22H14C13.8674 22 13.7402 21.9473 13.6464 21.8536C13.5527 21.7598 13.5 21.6326 13.5 21.5C13.5 21.3674 13.5527 21.2402 13.6464 21.1464C13.7402 21.0527 13.8674 21 14 21H16C16.0656 21 16.1306 21.0129 16.1913 21.038C16.252 21.0631 16.3071 21.1 16.3535 21.1464C16.4 21.1928 16.4368 21.2479 16.4619 21.3086C16.4871 21.3693 16.5 21.4343 16.5 21.4999C16.5 21.5656 16.4871 21.6306 16.462 21.6913C16.4369 21.752 16.4 21.8071 16.3536 21.8535C16.3072 21.9 16.2521 21.9368 16.1914 21.9619C16.1308 21.9871 16.0657 22 16.0001 22ZM24.5 4.00003H17.5C17.3674 4.00003 17.2402 3.94735 17.1464 3.85358C17.0527 3.75981 17 3.63263 17 3.50002C17 3.3674 17.0527 3.24022 17.1464 3.14645C17.2402 3.05268 17.3674 3 17.5 3H24.5C24.6326 3 24.7598 3.05268 24.8536 3.14645C24.9473 3.24022 25 3.3674 25 3.50002C25 3.63263 24.9473 3.75981 24.8536 3.85358C24.7598 3.94735 24.6326 4.00003 24.5 4.00003ZM24.5 5.99998H24C23.8674 5.99998 23.7402 5.9473 23.6464 5.85353C23.5526 5.75975 23.5 5.63257 23.5 5.49996C23.5 5.36735 23.5526 5.24017 23.6464 5.1464C23.7402 5.05263 23.8674 4.99995 24 4.99995H24.5C24.6326 4.99995 24.7598 5.05263 24.8536 5.1464C24.9473 5.24017 25 5.36735 25 5.49996C25 5.63257 24.9473 5.75975 24.8536 5.85353C24.7598 5.9473 24.6326 5.99998 24.5 5.99998ZM22 5.99998H17.5C17.3674 5.99998 17.2402 5.9473 17.1464 5.85353C17.0527 5.75975 17 5.63257 17 5.49996C17 5.36735 17.0527 5.24017 17.1464 5.1464C17.2402 5.05263 17.3674 4.99995 17.5 4.99995H22C22.1326 4.99995 22.2598 5.05263 22.3536 5.1464C22.4474 5.24017 22.5 5.36735 22.5 5.49996C22.5 5.63257 22.4474 5.75975 22.3536 5.85353C22.2598 5.9473 22.1326 5.99998 22 5.99998ZM21 8.00004H17.5C17.3674 8.00004 17.2402 7.94736 17.1464 7.85359C17.0527 7.75982 17 7.63263 17 7.50002C17 7.36741 17.0527 7.24023 17.1464 7.14646C17.2402 7.05269 17.3674 7.00001 17.5 7.00001H21C21.1326 7.00001 21.2598 7.05269 21.3536 7.14646C21.4473 7.24023 21.5 7.36741 21.5 7.50002C21.5 7.63263 21.4473 7.75982 21.3536 7.85359C21.2598 7.94736 21.1326 8.00004 21 8.00004Z" fill="black"/>
</g>
<defs>
<clipPath id="clip0_182_1582">
<rect width="30" height="30" fill="white"/>
</clipPath>
</defs>
</svg>
