<svg width="17" height="17" viewBox="0 0 17 17" fill="none" xmlns="http://www.w3.org/2000/svg">
<g clip-path="url(#clip0_181_1139)">
<path d="M16.8956 10.2155L13.8915 15.9009C13.7446 16.1836 13.328 16.4826 13.0062 16.4826L0.959225 16.4849C0.833247 16.4849 0.708494 16.4601 0.592098 16.4119C0.475702 16.3637 0.369946 16.2931 0.280876 16.204C0.101018 16.0241 -8.09765e-06 15.7801 1.52628e-05 15.5256L0.00196528 6.17102C0.00196528 5.64199 0.430827 5.21272 0.959913 5.21221L1.84072 5.21138V6.02855H1.25144C1.13603 6.02853 1.02534 6.07435 0.943711 6.15593C0.862153 6.23758 0.816338 6.34826 0.816329 6.46366L0.817189 15.2329C0.817189 15.4735 1.01211 15.668 1.25239 15.668H1.85589L4.70292 9.90869C4.86377 9.58697 5.16772 9.32695 5.48898 9.32695H12.4615L12.4638 7.00921C12.9191 7.05142 13.2784 7.42907 13.2784 7.89512V9.32698H16.4763C16.8539 9.33085 17.1719 9.70428 16.8956 10.2155ZM2.39619 12.7689C2.37018 9.90207 2.39619 1.30147 2.39619 1.30147C2.39619 0.867531 2.74909 0.514893 3.18259 0.514893H9.48042C9.5813 0.514893 9.67754 0.557105 9.74571 0.631349L11.7818 2.8435C11.8429 2.91015 11.8769 2.99726 11.877 3.08769V8.81843H11.2165V3.58253C11.2164 3.53899 11.1991 3.49723 11.1683 3.46645C11.1375 3.43566 11.0957 3.41837 11.0522 3.41836H9.49381C9.31143 3.41836 9.16311 3.2703 9.16311 3.08826V1.33969C9.16309 1.29614 9.14577 1.25439 9.11497 1.2236C9.08417 1.19281 9.0424 1.17552 8.99885 1.17552H3.183C3.1496 1.17556 3.11757 1.18884 3.09395 1.21245C3.07032 1.23606 3.05702 1.26807 3.05696 1.30147V12.0478L2.5515 13.0704C2.55153 13.0702 2.3988 13.059 2.39619 12.7689ZM9.82434 2.75808H10.8054L9.82434 1.69164V2.75808ZM10.1821 4.09112H4.09543C3.87118 4.09112 3.68914 4.27333 3.68914 4.49758C3.68914 4.72166 3.87135 4.90396 4.09543 4.90396H10.1823C10.4066 4.90396 10.5891 4.72152 10.5891 4.49758C10.5888 4.2735 10.4062 4.09112 10.1821 4.09112ZM10.5888 6.86442C10.5888 6.64034 10.4064 6.4583 10.1821 6.4583H4.09543C3.87118 6.4583 3.68914 6.64068 3.68914 6.86442C3.68914 7.0885 3.87135 7.27054 4.09543 7.27054H10.1823C10.4062 7.27057 10.5888 7.0885 10.5888 6.86442ZM3.68888 9.24729C3.68888 9.47134 3.87118 9.65341 4.09526 9.65341H4.2412C4.49808 8.93744 5.13488 8.84117 5.13488 8.84117H4.09526C3.87153 8.84117 3.68888 9.02321 3.68888 9.24729Z" fill="black"/>
</g>
<defs>
<clipPath id="clip0_181_1139">
<rect width="17" height="17" fill="white"/>
</clipPath>
</defs>
</svg>
