<svg width="19" height="19" viewBox="0 0 19 19" fill="none" xmlns="http://www.w3.org/2000/svg">
<g clip-path="url(#clip0_199_1435)">
<path d="M18.3214 8.82145H7.36793C6.99995 7.37562 5.52954 6.50185 4.08367 6.86983C3.61296 6.98963 3.18326 7.23413 2.83981 7.57759C2.49636 7.92104 2.25186 8.35074 2.13205 8.82145H0.678584C0.303806 8.82145 0 9.12526 0 9.50003C0 9.87481 0.303806 10.1786 0.678584 10.1786H2.13209C2.50007 11.6244 3.97047 12.4982 5.41635 12.1302C5.88706 12.0104 6.31676 11.7659 6.66021 11.4224C7.00366 11.079 7.24816 10.6493 7.36797 10.1786H18.3214C18.6962 10.1786 19 9.87477 19 9.49999C19 9.12522 18.6962 8.82145 18.3214 8.82145ZM4.75001 10.8572C4.00049 10.8572 3.39288 10.2495 3.39288 9.50003C3.39288 8.75052 4.00049 8.1429 4.75001 8.1429C5.49953 8.1429 6.10714 8.75052 6.10714 9.50003C6.10714 10.2495 5.49953 10.8572 4.75001 10.8572ZM18.3214 2.03573H16.1894C15.8214 0.589893 14.351 -0.283873 12.9051 0.0841057C12.4344 0.203912 12.0047 0.448412 11.6612 0.791865C11.3178 1.13532 11.0733 1.56502 10.9535 2.03573H0.678584C0.303806 2.03573 0 2.33953 0 2.71431C0 3.08909 0.303806 3.39289 0.678584 3.39289H10.9535C11.3215 4.83873 12.7919 5.71249 14.2377 5.34452C14.7085 5.22471 15.1382 4.98021 15.4816 4.63676C15.8251 4.2933 16.0696 3.8636 16.1894 3.39289H18.3214C18.6962 3.39289 19 3.08909 19 2.71431C19 2.33953 18.6962 2.03573 18.3214 2.03573ZM13.5714 4.07144C12.8219 4.07144 12.2143 3.46383 12.2143 2.71431C12.2143 1.96479 12.8219 1.35718 13.5714 1.35718C14.321 1.35718 14.9286 1.96479 14.9286 2.71431C14.9286 3.46383 14.321 4.07144 13.5714 4.07144ZM18.3214 15.6072H14.8322C14.4642 14.1613 12.9938 13.2876 11.5479 13.6556C11.0772 13.7754 10.6475 14.0199 10.3041 14.3633C9.96062 14.7068 9.71612 15.1365 9.59632 15.6072H0.678584C0.303806 15.6072 0 15.911 0 16.2857C0 16.6605 0.303806 16.9643 0.678584 16.9643H9.59636C9.96434 18.4101 11.4347 19.2839 12.8806 18.9159C13.3513 18.7961 13.781 18.5516 14.1245 18.2082C14.4679 17.8647 14.7124 17.435 14.8322 16.9643H18.3214C18.6962 16.9643 19 16.6605 19 16.2857C19 15.9109 18.6962 15.6072 18.3214 15.6072ZM12.2143 17.6429C11.4648 17.6429 10.8571 17.0353 10.8571 16.2858C10.8571 15.5362 11.4648 14.9286 12.2143 14.9286C12.9638 14.9286 13.5714 15.5362 13.5714 16.2858C13.5714 17.0353 12.9638 17.6429 12.2143 17.6429Z" fill="black"/>
</g>
<defs>
<clipPath id="clip0_199_1435">
<rect width="19" height="19" fill="white"/>
</clipPath>
</defs>
</svg>
