<svg width="15" height="16" viewBox="0 0 15 16" fill="none" xmlns="http://www.w3.org/2000/svg">
<g clip-path="url(#clip0_129_856)">
<path d="M13.5862 1.91378C11.7012 0.0287268 8.63397 0.0287561 6.74892 1.91378C5.46144 3.20126 5.01437 5.09908 5.57162 6.8205L0.12876 12.2634C0.0879394 12.3042 0.0555581 12.3527 0.0334652 12.406C0.0113724 12.4593 7.81894e-07 12.5165 0 12.5742L0 15.0605C0 15.3032 0.196787 15.5 0.439512 15.5H2.92582C3.04242 15.5 3.15416 15.4537 3.23663 15.3712L3.85831 14.7496C3.90518 14.7027 3.94085 14.6458 3.96263 14.5832C3.98441 14.5206 3.99174 14.4539 3.98408 14.388L3.9065 13.7205L4.83182 13.6333C4.93368 13.6237 5.029 13.5789 5.10135 13.5065C5.17369 13.4342 5.21854 13.3389 5.22814 13.237L5.31542 12.3116L5.98295 12.3892C6.04454 12.3963 6.10694 12.3904 6.16606 12.3717C6.22519 12.353 6.27969 12.3221 6.326 12.2808C6.3723 12.2396 6.40936 12.189 6.43473 12.1325C6.46011 12.0759 6.47323 12.0146 6.47323 11.9526V11.1341H7.27685C7.39254 11.1341 7.50354 11.0885 7.58584 11.0071L8.67779 9.92779C10.3996 10.4859 12.2984 10.0389 13.5862 8.75105C15.4712 6.86603 15.4712 3.7988 13.5862 1.91378ZM12.9647 8.12952C11.8553 9.23884 10.1912 9.5851 8.72531 9.01176C8.64615 8.9808 8.5597 8.97346 8.47644 8.99063C8.39319 9.0078 8.3167 9.04874 8.25624 9.1085L7.09629 10.2551H6.03369C5.79097 10.2551 5.59418 10.4519 5.59418 10.6946V11.459L4.97074 11.3866C4.91261 11.3798 4.85372 11.3847 4.79752 11.401C4.74132 11.4174 4.68894 11.4447 4.64345 11.4815C4.59796 11.5184 4.56029 11.5639 4.53263 11.6155C4.50498 11.667 4.48789 11.7236 4.48239 11.7819L4.38709 12.7923L3.37676 12.8875C3.31849 12.893 3.26191 12.9101 3.21033 12.9377C3.15875 12.9654 3.11321 13.0031 3.07639 13.0485C3.03956 13.094 3.01219 13.1464 2.99588 13.2026C2.97957 13.2588 2.97464 13.3177 2.9814 13.3759L3.08634 14.2783L2.74374 14.621H0.878994V12.7563L6.38965 7.24563C6.45007 7.18522 6.49157 7.1085 6.50907 7.02487C6.52658 6.94124 6.51933 6.85432 6.4882 6.77474C5.9148 5.30879 6.26112 3.64478 7.37045 2.5354C8.91281 0.993092 11.4223 0.993092 12.9646 2.5354C14.5069 4.07767 14.5069 6.58721 12.9647 8.12952Z" fill="black"/>
<path d="M12.343 3.15692C11.8289 2.64279 10.9924 2.64282 10.4783 3.15692C9.96422 3.67102 9.96422 4.50753 10.4783 5.02164C10.9924 5.53574 11.8289 5.5358 12.343 5.02164C12.8571 4.50753 12.8571 3.67102 12.343 3.15692ZM11.7215 4.40007C11.5501 4.57143 11.2713 4.57146 11.0999 4.40007C10.9286 4.22872 10.9286 3.9499 11.0999 3.77851C11.2717 3.60671 11.5497 3.60671 11.7215 3.77851C11.8933 3.95031 11.8932 4.22828 11.7215 4.40007Z" fill="black"/>
</g>
<defs>
<clipPath id="clip0_129_856">
<rect width="15" height="15" fill="white" transform="translate(0 0.5)"/>
</clipPath>
</defs>
</svg>
