<svg width="80" height="80" viewBox="0 0 80 80" fill="none" xmlns="http://www.w3.org/2000/svg">
<path d="M10.7308 73.8022C11.8788 77.3945 15.2088 80 19.1294 80H60.8705C64.7909 80 68.1209 77.3945 69.2689 73.8022H10.7308ZM67.1127 12.8539L56.8452 2.58639C56.427 2.16806 55.9684 1.79221 55.4761 1.46436V14.1667C55.4765 14.3057 55.532 14.4389 55.6304 14.5371C55.7289 14.6352 55.8622 14.6903 56.0012 14.6903H68.5239C68.1427 14.0259 67.6691 13.4103 67.1127 12.8539Z" fill="black"/>
<path d="M69.6975 19.3786H56.0013C53.1258 19.3786 50.7878 17.0406 50.7878 14.1667V0.003125C50.7269 0 50.6644 0 50.6034 0H19.1289C14.2623 0 10.3023 3.96016 10.3023 8.82812V32.9059H69.6977L69.6975 19.3786ZM40.0842 47.9525H37.9403V59.0091H40.0842C41.5295 59.0091 42.2522 58.2062 42.2522 56.6002V50.3614C42.252 48.7558 41.5294 47.9525 40.0842 47.9525ZM26.6192 47.9525H24.2345V53.035H26.6192C28.0645 53.035 28.7873 52.2322 28.7873 50.6261V50.3613C28.787 48.7558 28.0644 47.9525 26.6192 47.9525Z" fill="black"/>
<path d="M70.0027 37.5945H9.99719C6.73141 37.5945 4.07453 40.2514 4.07453 43.5171V63.1909C4.07453 66.4567 6.73141 69.1135 9.99719 69.1135H70.0025C73.2683 69.1135 75.9253 66.4567 75.9253 63.1909V43.5171C75.9253 40.2514 73.2684 37.5945 70.0027 37.5945ZM32.545 50.3371C32.545 52.2484 32.0028 53.6576 30.9189 54.5646C29.835 55.472 28.4017 55.9256 26.6192 55.9256H24.2345V61.1285C24.2345 61.4981 24.0497 61.7831 23.6805 61.9837C23.3109 62.1846 22.8694 62.2848 22.3556 62.2848C21.8414 62.2848 21.4 62.1846 21.0306 61.9837C20.6611 61.7831 20.4766 61.4981 20.4766 61.1285V45.8084C20.4766 45.5035 20.6048 45.2385 20.8619 45.0135C21.1186 44.7889 21.4558 44.6764 21.8736 44.6764H26.8598C28.578 44.6764 29.9553 45.122 30.9909 46.0134C32.0267 46.9046 32.5447 48.3059 32.5447 50.2167V50.3371H32.545ZM46.0098 56.6003C46.0098 58.5596 45.4716 59.9967 44.3959 60.912C43.3198 61.8273 41.8825 62.2851 40.0842 62.2851H35.8206C35.3388 62.2851 34.9452 62.1729 34.6403 61.9479C34.3352 61.7232 34.1825 61.4582 34.1825 61.1529V45.8087C34.1825 45.5039 34.335 45.2389 34.6403 45.0139C34.9452 44.7892 35.3389 44.6767 35.8206 44.6767H40.0842C41.8825 44.6767 43.32 45.1345 44.3959 46.0498C45.4716 46.9651 46.0098 48.4026 46.0098 50.3615V56.6003ZM59.222 47.4709C59.0211 47.7923 58.7439 47.9528 58.3911 47.9528H52.1523V52.0237H55.7895C56.1425 52.0237 56.4197 52.1682 56.6206 52.4571C56.8213 52.7462 56.9217 53.0918 56.9217 53.4929C56.9217 53.8625 56.8253 54.1915 56.6327 54.4806C56.44 54.7696 56.1588 54.914 55.7895 54.914H52.1523V61.1287C52.1523 61.4982 51.9675 61.7832 51.5983 61.9839C51.2288 62.1848 50.7872 62.285 50.2734 62.285C49.7592 62.285 49.3178 62.1848 48.9484 61.9839C48.5789 61.7832 48.3944 61.4982 48.3944 61.1287V45.8328C48.3944 45.4635 48.5547 45.1785 48.8763 44.9776C49.1972 44.777 49.5828 44.6765 50.0323 44.6765H58.3909C58.76 44.6765 59.0414 44.8371 59.2341 45.1584C59.4267 45.4798 59.5231 45.857 59.5231 46.2906C59.523 46.7564 59.4225 47.1496 59.222 47.4709Z" fill="black"/>
</svg>
