<svg width="25" height="25" viewBox="0 0 25 25" fill="none" xmlns="http://www.w3.org/2000/svg">
<path d="M13.5417 3.12508V9.79175C13.5417 10.9376 13.2292 12.0834 12.7083 13.1251C12.1875 14.1667 11.3542 15.0001 10.4167 15.7292C9.16667 16.6667 8.33333 18.2292 8.33333 19.8959V21.8751C8.33333 22.5001 7.91667 22.9167 7.29167 22.9167C6.66667 22.9167 6.25 22.5001 6.25 21.8751L6.25 19.8959C6.25 17.6042 7.39583 15.4167 9.27083 14.0626C9.89583 13.6459 10.5208 13.0209 10.8333 12.2917C11.25 11.5626 11.3542 10.7292 11.3542 10.0001V3.12508C11.3542 2.50008 11.7708 2.08341 12.3958 2.08341C13.0208 2.08341 13.5417 2.50008 13.5417 3.12508Z" fill="black"/>
<path d="M18.75 19.7917V21.8751C18.75 22.5001 18.3334 22.9167 17.7084 22.9167C17.0834 22.9167 16.6667 22.5001 16.6667 21.8751V19.7917C16.6667 18.9584 16.4584 18.1251 16.1459 17.5001C15.7292 16.7709 15.2084 16.1459 14.5834 15.7292C13.6459 15.1042 12.9167 14.1667 12.2917 13.1251C11.7709 12.0834 11.4584 10.9376 11.4584 9.79175L11.4584 4.16675C11.4584 3.54175 11.875 3.12508 12.5 3.12508C13.125 3.12508 13.5417 3.54175 13.5417 4.16675L13.5417 9.89591C13.5417 10.7292 13.75 11.5626 14.0625 12.1876C14.4792 12.9167 15 13.5417 15.625 13.9584C16.5625 14.5834 17.2917 15.5209 17.9167 16.5626C18.4375 17.6042 18.75 18.7501 18.75 19.7917Z" fill="black"/>
<path d="M16.6667 6.25008C16.6667 6.56258 16.5625 6.77091 16.3542 6.97925C15.9375 7.39591 15.3125 7.39591 14.8959 6.97925L12.5 4.58341L10.1042 6.97925C9.68754 7.39591 9.06254 7.39591 8.64587 6.97925C8.22921 6.56258 8.22921 5.93758 8.64587 5.52091L11.7709 2.39591C12.1875 1.97925 12.8125 1.97925 13.2292 2.39591L16.3542 5.52091C16.5625 5.72925 16.6667 5.93758 16.6667 6.25008Z" fill="black"/>
</svg>
