<svg width="30" height="30" viewBox="0 0 30 30" fill="none" xmlns="http://www.w3.org/2000/svg">
<g clip-path="url(#clip0_182_1595)">
<path d="M29.5688 25.2422L14.6508 10.3266C13.8077 9.48197 12.8766 8.73003 11.8734 8.08362L13.0453 6.91174C13.0889 6.86821 13.1235 6.81651 13.1471 6.75961C13.1706 6.7027 13.1828 6.64171 13.1828 6.5801C13.1828 6.5185 13.1706 6.45751 13.1471 6.4006C13.1235 6.3437 13.0889 6.292 13.0453 6.24846L12.4898 5.69065L13.2234 4.95706C14.4539 3.72659 16.875 4.18596 16.8914 4.19065C16.9673 4.20584 17.0457 4.20202 17.1197 4.17952C17.1937 4.15703 17.261 4.11657 17.3156 4.06174L18.0187 3.35862C18.0678 3.30949 18.1053 3.25009 18.1286 3.18469C18.1519 3.1193 18.1604 3.04954 18.1534 2.98047C18.1465 2.9114 18.1243 2.84473 18.0884 2.78529C18.0526 2.72585 18.004 2.67511 17.9461 2.63674C17.7609 2.51253 13.3336 -0.386693 10.6078 2.34143L9.87422 3.07503L9.49453 2.69534C9.40489 2.61062 9.28623 2.56341 9.16289 2.56341C9.03955 2.56341 8.92089 2.61062 8.83125 2.69534L3.86719 7.66174C3.77916 7.74925 3.72943 7.86809 3.72891 7.99221C3.72886 8.05407 3.74105 8.11532 3.76478 8.17244C3.78852 8.22956 3.82332 8.28142 3.86719 8.32503C3.96352 8.42152 4.03991 8.53604 4.09199 8.66205C4.14407 8.78806 4.17082 8.9231 4.17071 9.05945C4.1706 9.1958 4.14364 9.33079 4.09136 9.45672C4.03908 9.58265 3.96251 9.69705 3.86602 9.79339C3.76953 9.88972 3.655 9.96611 3.52899 10.0182C3.40298 10.0703 3.26794 10.097 3.13159 10.0969C2.99524 10.0968 2.86025 10.0698 2.73432 10.0176C2.60839 9.96527 2.49399 9.8887 2.39766 9.79221C2.30983 9.70491 2.19102 9.6559 2.06719 9.6559C1.94335 9.6559 1.82454 9.70491 1.73672 9.79221L0.138281 11.3907C0.0508229 11.4776 0.00114061 11.5955 0 11.7188C0.00052331 11.8429 0.0502529 11.9617 0.138281 12.0492L3.68906 15.6047C3.77657 15.6927 3.89541 15.7425 4.01953 15.743C4.08139 15.743 4.14264 15.7309 4.19976 15.7071C4.25688 15.6834 4.30874 15.6486 4.35234 15.6047L5.95078 14.0063C6.03152 13.9242 6.07925 13.8153 6.08487 13.7004C6.09049 13.5854 6.05361 13.4724 5.98125 13.3828C5.97181 13.3698 5.96163 13.3573 5.95078 13.3453C5.85429 13.249 5.77772 13.1346 5.72544 13.0087C5.67316 12.8827 5.6462 12.7478 5.64609 12.6114C5.64587 12.336 5.75505 12.0719 5.94961 11.877C6.14417 11.6821 6.40818 11.5725 6.68355 11.5723C6.95892 11.5721 7.2231 11.6812 7.41797 11.8758L7.45312 11.9039C7.5359 11.9736 7.64024 12.0126 7.74844 12.0141C7.81029 12.0141 7.87154 12.0019 7.92866 11.9782C7.98578 11.9545 8.03764 11.9197 8.08125 11.8758L9.25313 10.7039C9.90013 11.7067 10.652 12.6377 11.4961 13.4813L26.4117 28.3992C26.6887 28.6742 27.0632 28.8285 27.4535 28.8285C27.8438 28.8285 28.2183 28.6742 28.4953 28.3992L29.5617 27.3328C29.6997 27.1961 29.8093 27.0336 29.8843 26.8545C29.9593 26.6753 29.9983 26.4832 29.9989 26.289C29.9996 26.0948 29.9619 25.9024 29.8881 25.7227C29.8143 25.5431 29.7058 25.3798 29.5688 25.2422ZM11.2875 2.99768C13.0055 1.27971 15.8086 2.50549 16.943 3.11956L16.8305 3.22971C16.0852 3.12893 13.9008 2.96487 12.5766 4.28675L11.843 5.02268L10.5469 3.73128L11.2875 2.99768ZM4.02187 14.611L1.13203 11.7188L2.06953 10.7813L4.95469 13.6758L4.02187 14.611ZM5.28984 11.2125C5.03166 11.4702 4.85063 11.7949 4.76719 12.15L3.59531 10.9782C3.95051 10.8949 4.27528 10.7139 4.53281 10.4555C4.78981 10.1969 4.97064 9.87256 5.05547 9.51799L6.22734 10.6899C5.87154 10.7733 5.54606 10.9543 5.2875 11.2125H5.28984ZM9.01641 9.6094L7.74844 10.8774L4.86094 7.99221L9.17109 3.6844L9.54844 4.06174L10.1625 4.68753L12.0586 6.56253L10.793 7.83049L9.01641 9.6094ZM28.9055 26.6578L27.8391 27.7242C27.7385 27.8243 27.6024 27.8804 27.4605 27.8804C27.3187 27.8804 27.1826 27.8243 27.082 27.7242L12.1664 12.811C11.3217 11.9663 10.5748 11.0291 9.93984 10.0172L11.1937 8.76331C12.2069 9.39662 13.1449 10.1428 13.9898 10.9875L28.9055 25.9055C29.0055 26.0061 29.0617 26.1422 29.0617 26.284C29.0617 26.4259 29.0055 26.562 28.9055 26.6625V26.6578Z" fill="black"/>
<path d="M14.7797 18.8017L7.77184 25.8095L7.57028 25.6079L5.71403 23.7517L12.8086 16.6571C12.8895 16.5681 12.9331 16.4514 12.9304 16.3311C12.9276 16.2108 12.8787 16.0961 12.7938 16.0109C12.7089 15.9257 12.5944 15.8764 12.4741 15.8732C12.3538 15.87 12.2369 15.9132 12.1476 15.9939L4.72028 23.4212L3.31403 24.8157C2.87464 25.2552 2.62781 25.8513 2.62781 26.4728C2.62781 27.0942 2.87464 27.6903 3.31403 28.1298L3.38199 28.1978C3.82151 28.6371 4.41755 28.884 5.03903 28.884C5.6605 28.884 6.25654 28.6371 6.69606 28.1978L8.09059 26.7915L15.4406 19.4649C15.4877 19.4224 15.5257 19.3707 15.5523 19.313C15.5788 19.2553 15.5934 19.1929 15.595 19.1294C15.5967 19.0659 15.5855 19.0028 15.562 18.9438C15.5385 18.8848 15.5033 18.8311 15.4585 18.7862C15.4137 18.7412 15.3602 18.7058 15.3013 18.6821C15.2423 18.6584 15.1792 18.647 15.1157 18.6484C15.0523 18.6499 14.9897 18.6642 14.932 18.6905C14.8742 18.7169 14.8224 18.7547 14.7797 18.8017ZM6.04684 27.5345C5.91624 27.6652 5.76114 27.7689 5.59043 27.8397C5.41971 27.9105 5.23672 27.9469 5.05192 27.9469C4.86711 27.9469 4.68412 27.9105 4.51341 27.8397C4.34269 27.7689 4.1876 27.6652 4.05699 27.5345L3.98903 27.4665C3.85828 27.3359 3.75455 27.1808 3.68379 27.0101C3.61302 26.8394 3.57659 26.6564 3.57659 26.4716C3.57659 26.2868 3.61302 26.1038 3.68379 25.9331C3.75455 25.7624 3.85828 25.6073 3.98903 25.4767L5.05074 24.4149L5.25231 24.6165L7.10856 26.4845L6.04684 27.5345ZM24.8226 3.32588C24.8075 3.33631 24.7934 3.34808 24.7804 3.36104L17.1867 10.9548C17.1057 11.0438 17.0621 11.1606 17.0649 11.2809C17.0676 11.4012 17.1165 11.5158 17.2014 11.601C17.2864 11.6863 17.4008 11.7356 17.5211 11.7387C17.6414 11.7419 17.7583 11.6987 17.8476 11.6181L25.1132 4.35245L25.3148 4.55401L27.1711 6.41026L19.9828 13.5939C19.9392 13.6374 19.9047 13.6891 19.8811 13.746C19.8575 13.8029 19.8454 13.8639 19.8454 13.9255C19.8454 13.9871 19.8575 14.0481 19.8811 14.105C19.9047 14.1619 19.9392 14.2136 19.9828 14.2571C20.0263 14.3007 20.078 14.3352 20.1349 14.3588C20.1918 14.3824 20.2528 14.3945 20.3144 14.3945C20.376 14.3945 20.437 14.3824 20.4939 14.3588C20.5508 14.3352 20.6025 14.3007 20.6461 14.2571L28.1625 6.74073C28.1754 6.72775 28.1872 6.71363 28.1976 6.69854C28.2051 6.69181 28.2115 6.6839 28.2164 6.6751C28.2367 6.64569 28.254 6.61428 28.2679 6.58135L29.9695 2.16104C30.0026 2.07622 30.0102 1.9836 29.9915 1.89449C29.9729 1.80538 29.9286 1.72365 29.8642 1.65927C29.7999 1.59489 29.7181 1.55065 29.629 1.53196C29.5399 1.51327 29.4473 1.52093 29.3625 1.55401L24.9422 3.25557C24.9094 3.26727 24.8786 3.28386 24.8507 3.30479C24.8401 3.30994 24.8305 3.3171 24.8226 3.32588ZM28.7156 2.8126L27.6562 5.5712L25.957 3.86963L28.7156 2.8126Z" fill="black"/>
</g>
<defs>
<clipPath id="clip0_182_1595">
<rect width="30" height="30" fill="white"/>
</clipPath>
</defs>
</svg>
