<svg width="22" height="22" viewBox="0 0 22 22" fill="none" xmlns="http://www.w3.org/2000/svg">
<path d="M20.5084 1.29797H1.4916C1.09618 1.29855 0.717126 1.45537 0.437522 1.73403C0.157919 2.0127 0.000581926 2.39049 0 2.78459C0.000859949 3.1707 0.152413 3.54133 0.422588 3.81805C0.692763 4.09477 1.06036 4.25587 1.4476 4.26726V14.6867C1.4476 15.2915 1.94084 15.7831 2.5476 15.7831H10.56V17.3969C9.84148 17.5916 9.30864 18.2406 9.30864 19.0172C9.30864 19.9469 10.0676 20.7029 11 20.7029C11.9324 20.7029 12.6914 19.9469 12.6914 19.0172C12.6914 18.2406 12.1585 17.5916 11.44 17.3969V15.7831H19.4524C20.0596 15.7831 20.5524 15.2915 20.5524 14.6867V4.26726C20.9396 4.25588 21.3071 4.09484 21.5773 3.81821C21.8474 3.54158 21.999 3.17107 22 2.78503C22 1.96498 21.3308 1.29797 20.5084 1.29797ZM11.8109 19.0172C11.8109 19.4632 11.447 19.8259 10.9996 19.8259C10.5521 19.8259 10.1882 19.4632 10.1882 19.0172C10.1882 18.5712 10.5521 18.209 10.9996 18.209C11.447 18.209 11.8109 18.5717 11.8109 19.0172ZM19.6724 14.6867C19.6724 14.7449 19.6492 14.8007 19.608 14.8418C19.5667 14.8829 19.5107 14.906 19.4524 14.906H2.5476C2.48925 14.906 2.43329 14.8829 2.39204 14.8418C2.35078 14.8007 2.3276 14.7449 2.3276 14.6867V4.27165H19.6724V14.6867ZM20.5075 3.39459H1.4916C1.15456 3.39459 0.88 3.12094 0.88 2.78503C0.88 2.44912 1.15456 2.17503 1.4916 2.17503H20.5084C20.8454 2.17503 21.12 2.44868 21.12 2.78459C21.12 3.12051 20.8454 3.39459 20.5084 3.39459H20.5075Z" fill="black"/>
</svg>
