<svg width="25" height="25" viewBox="0 0 25 25" fill="none" xmlns="http://www.w3.org/2000/svg">
<g clip-path="url(#clip0_127_2171)">
<path d="M20.8822 0H4.11933C3.36222 0 2.75024 0.614397 2.75024 1.36828V23.6309C2.75024 24.388 3.36222 24.9992 4.11933 24.9992H16.7V20.1453C16.7 19.389 17.3144 18.7786 18.0691 18.7786H22.2497V1.36828C22.2497 0.614397 21.6385 0 20.8822 0ZM14.094 2.87686V2.93653C14.094 3.45901 13.6102 3.85329 13.0886 3.85329H12.2024C11.6808 3.85329 11.2567 3.45981 11.2567 2.93653V2.87686C11.2567 2.356 11.68 1.93188 12.2024 1.93188H13.0886C13.611 1.93188 14.094 2.356 14.094 2.87686ZM9.3659 0.957879C9.3659 0.437012 9.7892 0.0427337 10.3133 0.0427337H11.2881C11.809 0.0427337 12.2315 0.436206 12.2315 0.957879V0.987712C12.2315 1.50858 11.8098 1.93269 11.2881 1.93269H10.3133C10.0624 1.9329 9.82165 1.83349 9.644 1.6563C9.46636 1.4791 9.36633 1.23862 9.3659 0.987712V0.957879ZM10.2827 3.85329H11.2575C11.7816 3.85329 12.2033 4.24515 12.2033 4.76843C12.2033 5.2893 11.7824 5.71341 11.2575 5.71341H10.2827C10.032 5.7132 9.79155 5.61362 9.61412 5.4365C9.43669 5.25937 9.33671 5.01914 9.33607 4.76843C9.33607 4.24595 9.76098 3.85329 10.2827 3.85329ZM9.33607 8.5814V8.55157C9.33607 8.02748 9.76098 7.60498 10.2827 7.60498H11.2881C11.809 7.60498 12.2315 8.02667 12.2315 8.55157V8.5814C12.2315 9.10147 11.8098 9.52638 11.2881 9.52638H10.2827C10.0321 9.52575 9.79192 9.42603 9.61459 9.249C9.43725 9.07197 9.33713 8.83198 9.33607 8.5814ZM13.1482 18.9496H11.3171C10.7963 18.9496 10.3423 18.5246 10.3423 18.0014V13.3071C10.3423 12.7846 10.7955 12.3605 11.3171 12.3605H13.0894C13.611 12.3605 14.0642 12.7838 14.0642 13.3071L14.0948 18.0014C14.0948 18.2526 13.9951 18.4935 13.8177 18.6713C13.6402 18.849 13.3994 18.9491 13.1482 18.9496ZM13.1773 11.3873H12.2033C11.6816 11.3873 11.2575 10.9938 11.2575 10.4689C11.2575 9.94808 11.6808 9.52558 12.2033 9.52558H13.1773C13.3013 9.52526 13.4243 9.54943 13.539 9.59669C13.6537 9.64396 13.758 9.71339 13.8459 9.80103C13.9337 9.88866 14.0034 9.99276 14.051 10.1074C14.0986 10.222 14.123 10.3449 14.123 10.4689C14.1222 10.9938 13.6997 11.3873 13.1773 11.3873ZM13.1192 7.60498H12.1718C11.921 7.60498 11.6804 7.50534 11.503 7.32797C11.3257 7.1506 11.226 6.91003 11.226 6.6592C11.226 6.40836 11.3257 6.16779 11.503 5.99042C11.6804 5.81306 11.921 5.71341 12.1718 5.71341H13.1192C13.6401 5.71341 14.1222 6.13672 14.1222 6.66C14.1222 7.17926 13.6409 7.60498 13.1192 7.60498Z" fill="black"/>
<path d="M11.1978 14.9939H12.9571V15.934H11.1978V14.9939ZM18.0593 21.3604V25L22.2488 19.9107L19.4292 19.9913C19.2494 19.9912 19.0712 20.0265 18.905 20.0953C18.7389 20.1641 18.5878 20.2649 18.4606 20.392C18.3334 20.5192 18.2325 20.6701 18.1636 20.8363C18.0948 21.0024 18.0593 21.1805 18.0593 21.3604Z" fill="black"/>
</g>
<defs>
<clipPath id="clip0_127_2171">
<rect width="25" height="25" fill="white"/>
</clipPath>
</defs>
</svg>
