<svg width="15" height="15" viewBox="0 0 15 15" fill="none" xmlns="http://www.w3.org/2000/svg">
<g clip-path="url(#clip0_171_1427)">
<path d="M0.233887 4.14247V0.468496C0.233887 0.406274 0.258604 0.3466 0.302602 0.302602C0.3466 0.258604 0.406274 0.233887 0.468496 0.233887H4.14247C4.27205 0.233887 4.37708 0.338916 4.37708 0.468496C4.37708 0.598076 4.27205 0.703105 4.14247 0.703105H0.703105V4.14247C0.703105 4.20469 0.678388 4.26437 0.63439 4.30836C0.590392 4.35236 0.530718 4.37708 0.468496 4.37708C0.406274 4.37708 0.3466 4.35236 0.302602 4.30836C0.258604 4.26437 0.233887 4.20469 0.233887 4.14247ZM4.1425 14.2969H0.703105V10.8575C0.703105 10.728 0.598076 10.6229 0.468496 10.6229C0.338916 10.6229 0.233887 10.728 0.233887 10.8575V14.5316C0.233887 14.5938 0.258604 14.6534 0.302602 14.6974C0.3466 14.7414 0.406274 14.7662 0.468496 14.7662H4.14247C4.27205 14.7662 4.37708 14.6611 4.37708 14.5316C4.37708 14.402 4.27205 14.2969 4.1425 14.2969ZM14.5316 0.233887H10.8576C10.728 0.233887 10.623 0.338916 10.623 0.468496C10.623 0.598076 10.728 0.703105 10.8576 0.703105H14.2969V4.14247C14.2969 4.27205 14.402 4.37708 14.5316 4.37708C14.6611 4.37708 14.7662 4.27205 14.7662 4.14247V0.468496C14.7662 0.437687 14.7601 0.407178 14.7483 0.378713C14.7365 0.350247 14.7193 0.324382 14.6975 0.302595C14.6757 0.280809 14.6498 0.263527 14.6214 0.251738C14.5929 0.239949 14.5624 0.233883 14.5316 0.233887ZM14.5316 10.623C14.4694 10.623 14.4097 10.6477 14.3657 10.6917C14.3217 10.7357 14.297 10.7954 14.297 10.8576V14.2969H10.8576C10.728 14.2969 10.623 14.402 10.623 14.5316C10.623 14.6611 10.728 14.7662 10.8576 14.7662H14.5316C14.5938 14.7662 14.6535 14.7414 14.6975 14.6974C14.7415 14.6534 14.7662 14.5938 14.7662 14.5316V10.8575C14.7662 10.8267 14.7601 10.7962 14.7483 10.7678C14.7365 10.7393 14.7193 10.7134 14.6975 10.6917C14.6757 10.6699 14.6498 10.6526 14.6214 10.6408C14.5929 10.629 14.5624 10.623 14.5316 10.623ZM11.5737 9.98696L7.61737 12.2715C7.58107 12.2925 7.54056 12.303 7.50004 12.303C7.45952 12.303 7.419 12.2925 7.38271 12.2715L3.42637 9.98696C3.39071 9.96637 3.3611 9.93675 3.34052 9.90108C3.31993 9.86542 3.30909 9.82497 3.30909 9.78379V5.21623C3.30909 5.17505 3.31993 5.1346 3.34052 5.09894C3.3611 5.06327 3.39071 5.03365 3.42637 5.01306L7.38271 2.72846C7.41837 2.70784 7.45884 2.69699 7.50004 2.69699C7.54124 2.69699 7.58171 2.70784 7.61737 2.72846L11.5737 5.01306C11.6094 5.03365 11.639 5.06327 11.6596 5.09894C11.6801 5.1346 11.691 5.17505 11.691 5.21623V9.78379C11.691 9.82497 11.6801 9.86542 11.6596 9.90108C11.639 9.93674 11.6094 9.96636 11.5737 9.98696ZM4.01292 5.2162L7.50004 7.22913L10.9872 5.2162L7.50004 3.20254L4.01292 5.2162ZM3.77831 9.64835L7.26543 11.662V7.63548L3.77831 5.62255V9.64835ZM11.2218 9.64835V5.62255L7.73465 7.63548V11.662L11.2218 9.64835Z" fill="black"/>
</g>
<defs>
<clipPath id="clip0_171_1427">
<rect width="15" height="15" fill="white"/>
</clipPath>
</defs>
</svg>
