<svg width="20" height="19" viewBox="0 0 20 19" fill="none" xmlns="http://www.w3.org/2000/svg">
<g clip-path="url(#clip0_156_1077)">
<path d="M18.9424 4.32845L15.3799 0.765947C15.3244 0.710918 15.2586 0.667381 15.1863 0.637833C15.1139 0.608286 15.0365 0.593308 14.9583 0.59376H3.08331C2.6109 0.59376 2.15783 0.781427 1.82378 1.11548C1.48973 1.44953 1.30206 1.90259 1.30206 2.37501V16.625C1.30206 17.0974 1.48973 17.5505 1.82378 17.8845C2.15783 18.2186 2.6109 18.4063 3.08331 18.4063H17.3333C17.8057 18.4063 18.2588 18.2186 18.5928 17.8845C18.9269 17.5505 19.1146 17.0974 19.1146 16.625V4.75001C19.115 4.67187 19.1 4.59441 19.0705 4.52207C19.0409 4.44972 18.9974 4.38393 18.9424 4.32845ZM12.5833 1.78126V5.34376H7.83331V1.78126H12.5833ZM5.45831 17.2188V13.0625C5.45831 12.905 5.52087 12.754 5.63222 12.6427C5.74357 12.5313 5.89459 12.4688 6.05206 12.4688H14.3646C14.522 12.4688 14.6731 12.5313 14.7844 12.6427C14.8958 12.754 14.9583 12.905 14.9583 13.0625V17.2188H5.45831ZM17.9271 16.625C17.9271 16.7825 17.8645 16.9335 17.7532 17.0449C17.6418 17.1562 17.4908 17.2188 17.3333 17.2188H16.1458V13.0625C16.1458 12.5901 15.9581 12.137 15.6241 11.803C15.29 11.4689 14.837 11.2813 14.3646 11.2813H6.05206C5.57965 11.2813 5.12658 11.4689 4.79253 11.803C4.45848 12.137 4.27081 12.5901 4.27081 13.0625V17.2188H3.08331C2.92584 17.2188 2.77482 17.1562 2.66347 17.0449C2.55212 16.9335 2.48956 16.7825 2.48956 16.625V2.37501C2.48956 2.21754 2.55212 2.06651 2.66347 1.95517C2.77482 1.84382 2.92584 1.78126 3.08331 1.78126H6.64581V5.34376C6.64581 5.6587 6.77092 5.96075 6.99362 6.18345C7.21632 6.40615 7.51837 6.53126 7.83331 6.53126H12.5833C12.8983 6.53126 13.2003 6.40615 13.423 6.18345C13.6457 5.96075 13.7708 5.6587 13.7708 5.34376V1.78126H14.7149L17.9271 4.99345V16.625Z" fill="black"/>
</g>
<defs>
<clipPath id="clip0_156_1077">
<rect width="19" height="19" fill="white" transform="translate(0.708313)"/>
</clipPath>
</defs>
</svg>
