<svg width="15" height="15" viewBox="0 0 15 15" fill="none" xmlns="http://www.w3.org/2000/svg">
<g clip-path="url(#clip0_171_1431)">
<path d="M7.52431 0.524414C5.69808 0.524414 4.21243 2.0096 4.21243 3.83606C4.21243 5.66229 5.69808 7.14794 7.52431 7.14794C9.35054 7.14794 10.8362 5.66229 10.8362 3.83606C10.8364 2.01029 9.35031 0.524414 7.52431 0.524414ZM7.52431 6.68775C5.95225 6.68775 4.67331 5.40835 4.67331 3.83675C4.67331 2.26492 5.95225 0.985984 7.52431 0.985984C9.0966 0.985984 10.3753 2.26492 10.3753 3.83675C10.3755 5.40835 9.09706 6.68775 7.52431 6.68775ZM3.31188 14.4752C5.13811 14.4752 6.62375 12.9903 6.62375 11.1636C6.62375 9.33757 5.13811 7.85193 3.31188 7.85193C1.48564 7.85193 0 9.33757 0 11.1636C0 12.9898 1.48541 14.4752 3.31188 14.4752ZM3.31188 8.31212C4.88393 8.31212 6.16287 9.59129 6.16287 11.1633C6.16287 12.7345 4.88393 14.0141 3.31188 14.0141C1.73982 14.0141 0.460879 12.7347 0.460879 11.1633C0.460879 9.59129 1.73959 8.31212 3.31188 8.31212ZM11.6884 7.85124C9.86189 7.85124 8.37648 9.33688 8.37648 11.1633C8.37648 12.9898 9.86189 14.475 11.6884 14.475C13.5146 14.475 15 12.9898 15 11.1633C15.0005 9.33757 13.5144 7.85124 11.6884 7.85124ZM11.6884 14.0143C10.1165 14.0143 8.83735 12.7354 8.83735 11.1636C8.83735 9.59221 10.1165 8.31281 11.6884 8.31281C13.26 8.31281 14.5391 9.59221 14.5391 11.1636C14.5396 12.7356 13.2604 14.0143 11.6884 14.0143Z" fill="black"/>
</g>
<defs>
<clipPath id="clip0_171_1431">
<rect width="15" height="15" fill="white"/>
</clipPath>
</defs>
</svg>
