<svg width="19" height="19" viewBox="0 0 19 19" fill="none" xmlns="http://www.w3.org/2000/svg">
<g clip-path="url(#clip0_182_1909)">
<path d="M10.0631 11.3836V17.8715H17.4007C17.7124 17.8715 17.965 18.1241 17.965 18.4358C17.965 18.7474 17.7124 19 17.4007 19H1.59927C1.28763 19 1.035 18.7474 1.035 18.4358C1.035 18.1241 1.28763 17.8715 1.59927 17.8715H8.9346V11.3836C8.69701 11.2997 8.4813 11.1635 8.30338 10.9851L4.25376 6.93545C3.59369 6.27538 3.59399 5.2043 4.25376 4.54452L8.30338 0.494943C8.96345 -0.165131 10.0345 -0.164831 10.6943 0.494943L14.7439 4.54456C15.404 5.20463 15.4037 6.27572 14.7439 6.93549L10.6943 10.9851C10.5164 11.1635 10.3007 11.2997 10.0631 11.3836ZM5.05172 5.34252C4.83256 5.56169 4.83249 5.91825 5.05172 6.13749L9.10134 10.1871C9.3205 10.4063 9.67707 10.4063 9.89631 10.1871L13.9459 6.13749C14.1651 5.91833 14.1652 5.56176 13.9459 5.34252L9.89631 1.29291C9.67715 1.07374 9.32058 1.07367 9.10134 1.29291L5.05172 5.34252ZM9.89781 2.51975L12.7191 5.34103C12.9394 5.56139 12.9394 5.91866 12.7191 6.13899L9.89781 8.96026C9.67745 9.18062 9.32017 9.18062 9.09984 8.96026L6.27857 6.13899C6.05821 5.91863 6.05821 5.56135 6.27857 5.34103L9.09984 2.51975C9.3202 2.29939 9.67748 2.29939 9.89781 2.51975ZM7.47555 5.74001L9.49886 7.76332L11.5222 5.74001L9.49886 3.7167L7.47555 5.74001Z" fill="black"/>
</g>
<defs>
<clipPath id="clip0_182_1909">
<rect width="19" height="19" fill="white"/>
</clipPath>
</defs>
</svg>
