<svg width="26" height="25" viewBox="0 0 26 25" fill="none" xmlns="http://www.w3.org/2000/svg">
<g clip-path="url(#clip0_239_1466)">
<path d="M18.1672 16.8161C16.9694 16.8161 15.8902 17.3334 15.1412 18.1562L8.40423 13.9837C8.58919 13.5109 8.68402 13.0077 8.68382 12.5C8.68405 11.9923 8.58922 11.489 8.40423 11.0162L15.1412 6.84354C15.8902 7.66639 16.9694 8.18387 18.1672 8.18387C20.4235 8.18387 22.2592 6.34823 22.2592 4.09184C22.2592 1.83545 20.4235 0 18.1672 0C15.9108 0 14.0752 1.83564 14.0752 4.09203C14.0751 4.5997 14.1699 5.10291 14.3548 5.57572L7.618 9.74827C6.86898 8.92542 5.78983 8.40794 4.59203 8.40794C2.33564 8.40794 0.5 10.2438 0.5 12.5C0.5 14.7563 2.33564 16.592 4.59203 16.592C5.78978 16.592 6.86903 16.0747 7.618 15.2517L14.3548 19.4242C14.1699 19.8971 14.0751 20.4004 14.0752 20.9081C14.0752 23.1643 15.9108 25 18.1672 25C20.4235 25 22.2592 23.1643 22.2592 20.9082C22.2592 18.6517 20.4235 16.8161 18.1672 16.8161ZM15.5673 4.09203C15.5673 2.65844 16.7336 1.49214 18.1672 1.49214C19.6007 1.49214 20.767 2.65844 20.767 4.09203C20.767 5.52562 19.6007 6.69193 18.1672 6.69193C16.7336 6.69193 15.5673 5.52557 15.5673 4.09203ZM4.59203 15.0999C3.15825 15.0999 1.99194 13.9335 1.99194 12.5C1.99194 11.0664 3.15825 9.90008 4.59203 9.90008C6.02562 9.90008 7.19173 11.0664 7.19173 12.5C7.19173 13.9335 6.02557 15.0999 4.59203 15.0999ZM15.5673 20.908C15.5673 19.4744 16.7336 18.308 18.1672 18.308C19.6007 18.308 20.767 19.4744 20.767 20.9079C20.767 22.3415 19.6007 23.5078 18.1672 23.5078C16.7336 23.5078 15.5673 22.3415 15.5673 20.9079V20.908Z" fill="black"/>
</g>
<defs>
<clipPath id="clip0_239_1466">
<rect width="25" height="25" fill="white" transform="translate(0.5)"/>
</clipPath>
</defs>
</svg>
