<svg width="22" height="22" viewBox="0 0 22 22" fill="none" xmlns="http://www.w3.org/2000/svg">
<path d="M11 8.63672C10.5326 8.63672 10.0757 8.77532 9.68703 9.035C9.29839 9.29468 8.99549 9.66378 8.81661 10.0956C8.63774 10.5274 8.59094 11.0026 8.68213 11.4611C8.77332 11.9195 8.9984 12.3406 9.32891 12.6711C9.65942 13.0016 10.0805 13.2267 10.5389 13.3179C10.9974 13.4091 11.4726 13.3623 11.9044 13.1834C12.3362 13.0045 12.7053 12.7016 12.965 12.313C13.2247 11.9243 13.3633 11.4674 13.3633 11C13.3626 10.3734 13.1134 9.77271 12.6703 9.32966C12.2273 8.88661 11.6266 8.6374 11 8.63672ZM11 12.7617C10.6516 12.7617 10.311 12.6584 10.0212 12.4648C9.73153 12.2712 9.50573 11.9961 9.37239 11.6742C9.23904 11.3523 9.20416 10.998 9.27213 10.6563C9.34011 10.3146 9.5079 10.0007 9.75428 9.75428C10.0007 9.5079 10.3146 9.34011 10.6563 9.27213C10.998 9.20416 11.3523 9.23904 11.6742 9.37238C11.9961 9.50572 12.2712 9.73153 12.4648 10.0212C12.6584 10.311 12.7617 10.6516 12.7617 11C12.7612 11.4671 12.5754 11.9149 12.2452 12.2452C11.9149 12.5754 11.4671 12.7612 11 12.7617Z" fill="black"/>
<path d="M12.0316 10.6992C11.9518 10.6992 11.8753 10.7309 11.8189 10.7873C11.7625 10.8437 11.7308 10.9202 11.7308 11C11.7303 11.1279 11.6965 11.2535 11.6326 11.3643C11.5688 11.4751 11.477 11.5673 11.3666 11.6318C11.3325 11.6517 11.3026 11.6781 11.2787 11.7096C11.2548 11.741 11.2373 11.7769 11.2272 11.8151C11.2171 11.8533 11.2147 11.8931 11.22 11.9322C11.2253 11.9714 11.2383 12.0091 11.2582 12.0432C11.2781 12.0773 11.3045 12.1072 11.336 12.1311C11.3674 12.155 11.4033 12.1725 11.4415 12.1826C11.4797 12.1926 11.5195 12.1951 11.5586 12.1898C11.5978 12.1844 11.6355 12.1715 11.6696 12.1516C11.8708 12.0339 12.0378 11.8658 12.154 11.6639C12.2703 11.4619 12.3317 11.233 12.3324 11C12.3324 10.9202 12.3007 10.8437 12.2443 10.7873C12.1879 10.7309 12.1113 10.6992 12.0316 10.6992Z" fill="black"/>
<path d="M18.774 10.297C18.8836 10.3258 18.9965 10.3406 19.1098 10.341C19.3732 10.3409 19.6306 10.2627 19.8495 10.1163C20.0684 9.96995 20.239 9.76199 20.3398 9.5187C20.4406 9.27541 20.467 9.00771 20.4158 8.74941C20.3645 8.49111 20.2378 8.25381 20.0517 8.06747C20.0299 8.04581 20.0067 8.02622 19.983 8.00611C20.2064 7.19589 20.1548 6.49017 19.8192 5.9082C19.0973 4.65695 17.2017 4.24703 14.6007 4.76489C13.746 2.25345 12.4425 0.816406 11.0001 0.816406C9.55772 0.816406 8.25439 2.25328 7.3988 4.76506C4.7973 4.24686 2.9022 4.65695 2.1805 5.90803C1.85514 6.47006 1.79808 7.1763 2.00553 7.96022C1.76066 8.15193 1.59059 8.42327 1.52479 8.72721C1.45899 9.03115 1.50161 9.34854 1.64526 9.62436C1.78892 9.90018 2.02455 10.117 2.31132 10.2374C2.59808 10.3577 2.91791 10.3739 3.21536 10.2831C3.40117 10.5296 3.5961 10.7691 3.79973 11.001C2.05194 12.9955 1.45914 14.8419 2.18033 16.0918C2.69853 16.9902 3.82019 17.4561 5.37428 17.4561C6.0546 17.4478 6.73251 17.3734 7.39845 17.2341C8.25387 19.7462 9.55755 21.1836 11.0001 21.1836C11.6518 21.1836 12.2947 20.878 12.8723 20.3029C13.1565 20.4274 13.4753 20.4488 13.7736 20.3632C14.0719 20.2777 14.3309 20.0907 14.506 19.8344C14.681 19.5782 14.761 19.2689 14.7322 18.9599C14.7034 18.6509 14.5676 18.3617 14.3482 18.1423C14.3266 18.1204 14.3034 18.1007 14.2805 18.0807C14.3976 17.8023 14.5051 17.5199 14.6026 17.2341C15.2682 17.3735 15.9459 17.4479 16.6259 17.4561C18.1798 17.4561 19.3017 16.99 19.8199 16.0918C20.5417 14.8419 19.9482 12.9955 18.2008 11.0012C18.4004 10.7735 18.5916 10.5387 18.774 10.297ZM19.6262 9.526C19.4891 9.66271 19.3034 9.73947 19.1098 9.73947C18.9162 9.73947 18.7305 9.66271 18.5934 9.526C18.4913 9.42387 18.4218 9.29377 18.3937 9.15216C18.3656 9.01054 18.3801 8.86377 18.4354 8.73039C18.4906 8.59701 18.5842 8.48302 18.7043 8.40281C18.8243 8.32261 18.9655 8.27981 19.1098 8.27981C19.2542 8.27981 19.3954 8.32261 19.5154 8.40281C19.6355 8.48302 19.7291 8.59701 19.7843 8.73039C19.8396 8.86377 19.8541 9.01054 19.826 9.15216C19.7979 9.29377 19.7282 9.42387 19.6262 9.526ZM19.2987 6.20881C19.534 6.61736 19.5794 7.12525 19.4378 7.72131C19.1553 7.64948 18.8571 7.67233 18.5889 7.78636C18.3207 7.90038 18.0973 8.09928 17.953 8.35251C17.8088 8.60575 17.7516 8.89933 17.7903 9.18819C17.829 9.47705 17.9614 9.74523 18.1673 9.95156C18.1889 9.97339 18.2121 9.99298 18.235 10.0131C18.0954 10.1948 17.9481 10.3752 17.7929 10.5542C17.0557 9.78861 16.2527 9.0892 15.3932 8.46398C15.281 7.40744 15.0774 6.3626 14.7848 5.34119C17.0515 4.90291 18.7278 5.21916 19.2987 6.20881ZM14.1951 16.5313C13.3583 16.3271 12.538 16.0605 11.741 15.7336C12.7782 15.2338 13.7765 14.6568 14.7274 14.0076C14.6133 14.861 14.4353 15.7046 14.1951 16.5313ZM7.80511 16.5313C7.56466 15.7046 7.38656 14.861 7.2723 14.0076C8.22351 14.6567 9.22197 15.2336 10.2593 15.7336C9.46233 16.0605 8.64196 16.3271 7.80511 16.5313ZM7.80511 5.46872C8.64191 5.67287 9.46223 5.93951 10.2591 6.26639C9.22209 6.76736 8.22362 7.34455 7.27195 7.99322C7.38626 7.13957 7.56448 6.2957 7.80511 5.46872ZM6.53134 12.7246C5.84905 12.1992 5.20771 11.6227 4.61287 11C5.20776 10.3774 5.8491 9.80085 6.53134 9.27541C6.44497 10.4235 6.44497 11.5765 6.53134 12.7246ZM9.03505 14.4055C8.39633 14.037 7.77641 13.6367 7.17759 13.2064C7.10575 12.486 7.06794 11.7454 7.06794 11C7.06794 10.2546 7.10575 9.51414 7.17759 8.79364C7.7764 8.36325 8.39632 7.96303 9.03505 7.59447C9.67322 7.22581 10.3291 6.88864 11.0003 6.58419C11.6715 6.88867 12.3275 7.22584 12.9658 7.59447C13.6045 7.96304 14.2245 8.36327 14.8233 8.79364C14.8951 9.51397 14.9329 10.2546 14.9329 11C14.9329 11.7454 14.8951 12.4859 14.8233 13.2064C14.2245 13.6367 13.6046 14.037 12.9658 14.4055C12.3277 14.7742 11.6718 15.1114 11.0006 15.4158C10.3292 15.1114 9.67309 14.7742 9.0347 14.4055H9.03505ZM14.1954 5.46803C14.4359 6.29474 14.614 7.13832 14.7282 7.99167C14.2527 7.66756 13.7654 7.36101 13.2673 7.07266C12.7684 6.78548 12.2593 6.51655 11.7409 6.26639C12.5379 5.93954 13.3582 5.6729 14.1951 5.46872L14.1954 5.46803ZM15.4688 9.27541C16.1511 9.80079 16.7925 10.3773 17.3873 11C16.7924 11.6226 16.1511 12.1991 15.4688 12.7246C15.5552 11.5765 15.5552 10.4235 15.4688 9.27541ZM11.0001 1.41797C12.141 1.41797 13.2539 2.71202 14.0105 4.89414C12.9791 5.15053 11.9719 5.49556 10.9999 5.92539C10.0281 5.49551 9.02096 5.15048 7.9897 4.89414C8.74647 2.71184 9.85919 1.41797 11.0001 1.41797ZM2.3082 9.526C2.18833 9.40649 2.11361 9.24909 2.09679 9.08066C2.07997 8.91222 2.12208 8.74316 2.21596 8.6023C2.30984 8.46144 2.44966 8.3575 2.61159 8.30819C2.77353 8.25888 2.94755 8.26726 3.104 8.3319C3.26045 8.39654 3.38964 8.51344 3.46954 8.66267C3.54945 8.8119 3.57512 8.98422 3.54219 9.15026C3.50927 9.31631 3.41977 9.46579 3.28896 9.57323C3.15816 9.68067 2.99414 9.73942 2.82486 9.73947C2.72887 9.73987 2.63376 9.7212 2.54504 9.68456C2.45632 9.64791 2.37593 9.59402 2.3082 9.526ZM3.76656 8.06747C3.61092 7.9121 3.41923 7.79768 3.20861 7.73443C2.99798 7.67118 2.77497 7.66107 2.55948 7.70498C2.42061 7.11614 2.46702 6.61358 2.70128 6.20967C3.27242 5.2195 4.94872 4.90342 7.21541 5.34188C6.92279 6.36335 6.71916 7.40824 6.6068 8.46484C5.74729 9.0894 4.94425 9.78817 4.20691 10.5531C4.0395 10.3599 3.88309 10.1679 3.73769 9.977C3.74714 9.96806 3.75728 9.95981 3.76656 9.9507C4.01606 9.70074 4.15619 9.362 4.15619 9.00883C4.15619 8.65566 4.01606 8.31691 3.76656 8.06695V8.06747ZM2.70094 15.791C2.13134 14.8024 2.69544 13.1921 4.20777 11.4469C4.94488 12.2121 5.74769 12.9111 6.60697 13.536C6.71923 14.5926 6.9228 15.6374 7.21541 16.6588C4.94855 17.0968 3.27225 16.7808 2.70128 15.791H2.70094ZM13.9228 19.6006C13.8033 19.7205 13.6459 19.7953 13.4774 19.8121C13.3089 19.829 13.1398 19.7869 12.9989 19.693C12.858 19.5991 12.754 19.4592 12.7047 19.2972C12.6554 19.1353 12.6637 18.9612 12.7284 18.8047C12.7931 18.6482 12.91 18.519 13.0593 18.4391C13.2085 18.3591 13.3809 18.3335 13.547 18.3664C13.7131 18.3993 13.8626 18.4889 13.9701 18.6197C14.0775 18.7506 14.1363 18.9146 14.1363 19.084C14.1363 19.2777 14.0596 19.4635 13.9228 19.6006ZM13.4072 17.7525C13.1537 17.7524 12.9055 17.8248 12.6917 17.961C12.4779 18.0972 12.3074 18.2916 12.2003 18.5213C12.0932 18.7511 12.0539 19.0066 12.087 19.258C12.1201 19.5093 12.2243 19.7459 12.3873 19.9401C11.9404 20.3658 11.475 20.582 11.001 20.582C9.86005 20.582 8.74716 19.288 7.99056 17.1059C9.02192 16.8495 10.0292 16.5044 11.0011 16.0746C11.9732 16.5045 12.9805 16.8495 14.012 17.1059C13.9278 17.3473 13.8402 17.5785 13.7484 17.7977C13.6368 17.7679 13.5218 17.7527 13.4063 17.7525H13.4072ZM19.2998 15.791C18.7286 16.781 17.0523 17.0973 14.7856 16.6588C15.0783 15.6373 15.2819 14.5924 15.3943 13.5358C16.2532 12.911 17.0557 12.212 17.7924 11.4469C19.3048 13.1921 19.8688 14.8024 19.2989 15.791H19.2998Z" fill="black"/>
</svg>
