<svg width="22" height="22" viewBox="0 0 22 22" fill="none" xmlns="http://www.w3.org/2000/svg">
<g clip-path="url(#clip0_137_1651)">
<path d="M5.48086 0.907717C5.24268 0.914776 5.01656 1.01417 4.85031 1.18488L1.1848 4.85732C1.01449 5.02925 0.918939 5.26146 0.918939 5.50347C0.918939 5.74547 1.01449 5.97768 1.1848 6.14961L4.85031 9.81512C4.93296 9.90958 5.03409 9.98608 5.14747 10.0399C5.26084 10.0938 5.38405 10.1238 5.50948 10.1281C5.63492 10.1325 5.75991 10.111 5.87674 10.0652C5.99357 10.0193 6.09975 9.95 6.18874 9.86149C6.27772 9.77298 6.34761 9.66717 6.3941 9.55058C6.44058 9.434 6.46267 9.30913 6.45899 9.18367C6.45532 9.05822 6.42596 8.93485 6.37273 8.82119C6.3195 8.70753 6.24354 8.60599 6.14953 8.52284L3.13189 5.5052L6.14953 2.48063C6.28117 2.35139 6.37082 2.1855 6.40681 2.00457C6.44279 1.82363 6.42344 1.63606 6.35126 1.46629C6.27909 1.29651 6.15745 1.15242 6.0022 1.05279C5.84694 0.953152 5.66527 0.9026 5.48086 0.907717ZM6.40937 4.57323C6.16587 4.57323 5.93235 4.66996 5.76017 4.84214C5.58799 5.01432 5.49126 5.24784 5.49126 5.49134C5.49126 5.73484 5.58799 5.96836 5.76017 6.14054C5.93235 6.31272 6.16587 6.40945 6.40937 6.40945H19.2456V9.12567C19.2456 9.36917 19.3423 9.60269 19.5145 9.77487C19.6867 9.94705 19.9202 10.0438 20.1637 10.0438C20.4072 10.0438 20.6407 9.94705 20.8129 9.77487C20.9851 9.60269 21.0818 9.36917 21.0818 9.12567V6.40599C21.0818 5.40819 20.2468 4.56977 19.2456 4.56977L6.40937 4.57323ZM1.81882 11.9043C1.57652 11.9088 1.34586 12.009 1.17712 12.1829C1.00837 12.3568 0.915243 12.5904 0.91803 12.8328V15.5524C0.91803 16.5537 1.75299 17.3887 2.75425 17.3887H15.5801C15.8236 17.3887 16.0571 17.2919 16.2293 17.1198C16.4015 16.9476 16.4982 16.7141 16.4982 16.4706C16.4982 16.2271 16.4015 15.9935 16.2293 15.8214C16.0571 15.6492 15.8236 15.5524 15.5801 15.5524H2.75425V12.8328C2.75566 12.7098 2.73238 12.5879 2.68578 12.4742C2.63919 12.3604 2.57022 12.2572 2.48298 12.1706C2.39574 12.084 2.292 12.0158 2.17792 11.9701C2.06383 11.9243 1.94171 11.9019 1.81882 11.9043ZM16.4878 11.9043C16.3056 11.9054 16.1279 11.9608 15.9773 12.0633C15.8267 12.1658 15.7099 12.3107 15.642 12.4798C15.574 12.6488 15.5578 12.8342 15.5955 13.0124C15.6333 13.1907 15.7232 13.3536 15.8538 13.4806L18.868 16.4983L15.8538 19.5159C15.7593 19.5986 15.6828 19.6997 15.629 19.8131C15.5751 19.9264 15.5451 20.0496 15.5408 20.1751C15.5364 20.3005 15.5579 20.4255 15.6037 20.5423C15.6496 20.6592 15.7189 20.7653 15.8074 20.8543C15.8959 20.9433 16.0017 21.0132 16.1183 21.0597C16.2349 21.1062 16.3598 21.1283 16.4852 21.1246C16.6107 21.1209 16.734 21.0916 16.8477 21.0383C16.9614 20.9851 17.0629 20.9091 17.1461 20.8151L20.8116 17.1496C20.8969 17.0643 20.9647 16.9631 21.0109 16.8516C21.0571 16.7401 21.0809 16.6207 21.0809 16.5C21.0809 16.3793 21.0571 16.2599 21.0109 16.1484C20.9647 16.0369 20.8969 15.9357 20.8116 15.8504L17.1495 12.1814C17.0639 12.0936 16.9615 12.0238 16.8484 11.9762C16.7354 11.9286 16.6139 11.9041 16.4913 11.9043H16.4878Z" fill="black"/>
</g>
<defs>
<clipPath id="clip0_137_1651">
<rect width="22" height="22" fill="white"/>
</clipPath>
</defs>
</svg>
