<svg width="20" height="19" viewBox="0 0 20 19" fill="none" xmlns="http://www.w3.org/2000/svg">
<g clip-path="url(#clip0_127_3135)">
<path d="M9.85574 4.89025C9.85574 3.20912 8.48883 1.83981 6.80531 1.83981C5.12164 1.83981 3.75742 3.20912 3.75742 4.89025C3.75742 6.57123 5.12413 7.94069 6.80785 7.94069C8.49132 7.94069 9.85574 6.57372 9.85574 4.89025ZM4.60045 4.89025C4.60045 3.67423 5.58923 2.68285 6.80785 2.68285C8.02393 2.68285 9.01506 3.67163 9.01506 4.89025C9.01506 6.10632 8.02647 7.0975 6.80785 7.0975C5.59178 7.0975 4.60045 6.10887 4.60045 4.89025Z" fill="black"/>
<path d="M19.5 1.19348C19.5 0.557279 18.9788 0.0386353 18.3375 0.0386353H2.43391C1.79771 0.0386353 1.27927 0.557279 1.27927 1.19348V7.50623C1.27927 7.73875 1.46838 7.92787 1.70071 7.92787C1.93323 7.92787 2.1223 7.73875 2.1223 7.50623V1.19348C2.1223 1.01964 2.25777 0.881618 2.43396 0.881618H18.3375C18.5139 0.881618 18.657 1.02218 18.657 1.19348V10.5005C18.657 10.6717 18.5139 10.8122 18.3375 10.8122H16.3831C16.1507 10.8122 15.9617 11.0013 15.9617 11.2338C15.9617 11.4664 16.1508 11.6554 16.3831 11.6554H18.3375C18.9788 11.6554 19.5 11.1367 19.5 10.5005V1.19348Z" fill="black"/>
<path d="M17.313 12.6746C16.8891 12.2939 16.281 12.1739 15.7266 12.3553L14.071 12.897C13.9254 12.9455 13.7618 12.879 13.6903 12.741L12.1448 9.75713C11.7564 9.00865 10.9849 8.54355 10.1341 8.54355H3.68062C1.92819 8.54355 0.5 9.96915 0.5 11.7242V13.1268C0.500017 13.6444 0.626381 14.1542 0.868121 14.6119C1.10986 15.0696 1.45967 15.4614 1.88717 15.7533C1.88717 15.7533 1.88977 15.7533 1.88977 15.7558L1.89226 15.7583L1.97415 15.8119H1.97664C2.25849 16.004 2.57015 16.1482 2.89901 16.2386V16.4353C2.89901 17.0715 3.41746 17.5902 4.05366 17.5902H9.74327C10.3795 17.5902 10.8979 17.0715 10.8979 16.4353V14.3914L10.9619 14.5142C11.3094 15.1808 11.8842 15.7073 12.5842 15.9907C12.9665 16.1456 13.3751 16.2254 13.7876 16.2258C14.1234 16.2255 14.4571 16.1721 14.7762 16.0675L16.7306 15.4262C17.2824 15.2473 17.6964 14.7824 17.8165 14.2152C17.9365 13.6505 17.745 13.0578 17.313 12.6746ZM11.7078 14.1257L10.8494 12.4703C10.8494 12.4703 10.8494 12.4678 10.8469 12.4678C10.8418 12.46 10.8367 12.4524 10.8317 12.4423C10.829 12.437 10.8264 12.4345 10.8239 12.4294C10.8188 12.4243 10.8163 12.4167 10.8112 12.4114C10.806 12.4064 10.8034 12.4013 10.7984 12.3963C10.7958 12.3938 10.7933 12.391 10.7907 12.3885C10.7652 12.3604 10.7397 12.3348 10.7089 12.3144C10.6681 12.2863 10.6196 12.2659 10.5683 12.2532C10.5658 12.2532 10.5633 12.2506 10.5582 12.2506C10.5506 12.2479 10.5428 12.2479 10.5378 12.2479C10.5302 12.2479 10.5251 12.2454 10.5173 12.2454H10.5021C10.4917 12.2454 10.4841 12.2429 10.474 12.2429H10.4612C10.451 12.2429 10.4432 12.2429 10.4331 12.2454C10.428 12.2454 10.4227 12.2479 10.4177 12.2479C10.4101 12.2479 10.4025 12.2506 10.3922 12.2506C10.3846 12.2531 10.3795 12.2531 10.3717 12.2557C10.3641 12.2582 10.359 12.2582 10.3512 12.2608C10.3436 12.2633 10.336 12.2659 10.3282 12.2684C10.3231 12.2709 10.3181 12.2709 10.313 12.2737C10.3027 12.2761 10.295 12.2812 10.2875 12.2863C10.285 12.2888 10.2822 12.2888 10.2771 12.2914C10.2771 12.2914 10.2746 12.2914 10.2746 12.2939C10.267 12.2992 10.2567 12.3042 10.2491 12.3093C10.244 12.3118 10.2415 12.3144 10.2364 12.3169C10.2312 12.3222 10.2235 12.3247 10.2185 12.3298C10.2135 12.3348 10.2082 12.3374 10.2031 12.3425C10.2006 12.3452 10.198 12.3477 10.1955 12.3502C10.1674 12.3758 10.1419 12.4013 10.1214 12.4319C10.0934 12.4728 10.0729 12.5214 10.06 12.5699C10.06 12.5724 10.0575 12.5775 10.0575 12.5801C10.0549 12.5879 10.0549 12.5929 10.0549 12.6005C10.0549 12.6083 10.0524 12.6159 10.0524 12.621V12.6364C10.0524 12.6465 10.0499 12.6541 10.0499 12.6645V16.4378C10.0499 16.6117 9.91442 16.7495 9.73823 16.7495H4.05371C4.01271 16.7498 3.97206 16.7419 3.93412 16.7263C3.89619 16.7107 3.86172 16.6878 3.83273 16.6588C3.80373 16.6298 3.78078 16.5953 3.76522 16.5574C3.74965 16.5195 3.74177 16.4788 3.74205 16.4378V16.3561H3.74963C4.14718 16.3558 4.54126 16.2822 4.91211 16.139C4.94835 16.1338 4.98365 16.1235 5.01695 16.1082L5.69392 15.817L5.87266 15.9755C6.021 16.1032 6.20478 16.1671 6.38881 16.1671C6.57283 16.1671 6.75681 16.1032 6.9049 15.9755L9.02289 14.1308C9.22208 13.9572 9.28855 13.6685 9.18621 13.4308L8.14653 11.0167V11.0141C8.06739 10.8301 7.90891 10.6972 7.71989 10.6564C7.52829 10.6155 7.33413 10.6716 7.18598 10.8096L5.28775 12.5674L3.6935 10.8582C3.51456 10.6666 3.2259 10.6079 2.99103 10.7176C2.7585 10.8251 2.62048 11.0753 2.64857 11.3385L2.8836 13.4283C2.90914 13.6583 3.03179 13.8626 3.21831 13.9905C3.21831 13.9905 3.22081 13.9905 3.22081 13.993H3.22335L3.30519 14.0466C3.31028 14.0491 3.31282 14.0517 3.31791 14.0542C3.44651 14.1375 3.59642 14.1819 3.74963 14.1821C3.85452 14.1821 3.9592 14.1616 4.05626 14.1207L5.38226 13.5509C5.71692 13.4488 6.06951 13.6148 6.20733 13.9392C6.34534 14.2637 6.22269 14.6315 5.91866 14.8029L4.77938 15.2933C4.7486 15.2983 4.71801 15.3087 4.68737 15.3213C3.94124 15.6408 3.1033 15.5615 2.44683 15.112H2.44429C2.44429 15.112 2.44155 15.112 2.44155 15.1093L2.36241 15.0557C2.04801 14.8411 1.7908 14.553 1.61313 14.2164C1.43546 13.8798 1.34272 13.5049 1.34298 13.1243V11.7216C1.34298 10.434 2.3905 9.38404 3.68062 9.38404H10.1315C10.6681 9.38404 11.151 9.67524 11.3936 10.1428L12.9393 13.1268C13.0367 13.3152 13.184 13.4732 13.3652 13.5836C13.5463 13.694 13.7542 13.7525 13.9663 13.7528C14.0905 13.7531 14.2138 13.7332 14.3316 13.694L15.9872 13.1523C16.2605 13.063 16.5441 13.1166 16.7486 13.2979C16.9553 13.4819 17.0473 13.7655 16.9912 14.039C16.9624 14.1734 16.8989 14.2979 16.807 14.4001C16.7151 14.5022 16.5981 14.5786 16.4675 14.6214L14.5131 15.2678C13.4196 15.6254 12.2394 15.1452 11.7078 14.1257ZM3.75218 13.3312L3.71904 13.3083L3.56586 11.9567L4.53398 12.9941L3.75218 13.3312ZM7.50778 11.6579L8.34572 13.602L6.99946 14.7746C7.14507 14.4118 7.15016 13.993 6.9815 13.602C6.83086 13.2469 6.56245 12.9787 6.2432 12.8255L7.50778 11.6579Z" fill="black"/>
</g>
<defs>
<clipPath id="clip0_127_3135">
<rect width="19" height="19" fill="white" transform="translate(0.5)"/>
</clipPath>
</defs>
</svg>
