<svg width="22" height="22" viewBox="0 0 22 22" fill="none" xmlns="http://www.w3.org/2000/svg">
<path d="M19.6908 14.8431L16.7167 12.7325C16.4806 12.5669 16.2276 12.427 15.9618 12.3152C15.3396 12.0622 14.7442 12.0972 14.1956 12.419C13.7872 12.6129 13.2414 13.1835 12.7856 13.6407C11.2703 12.6864 9.41406 10.835 8.34431 9.21044L8.34362 9.20906C8.74237 8.79106 9.34256 8.22937 9.55362 7.81481C9.89874 7.24694 9.93449 6.63781 9.66568 6.01631C9.55157 5.74577 9.40597 5.48963 9.23187 5.25319L7.15768 2.33063C6.73831 1.73044 6.05287 1.38187 5.27049 1.375C4.41593 1.375 3.62668 1.72494 2.95224 2.39044C1.50437 3.68088 1.04718 5.58319 1.63156 7.89181C2.92887 13.0144 9.17893 19.2184 14.2499 20.4153C16.1928 20.9158 18.3461 20.5556 19.6097 19.0211C20.0717 18.502 20.6217 17.6729 20.6155 16.6719C20.6038 15.8744 20.2779 15.2357 19.6908 14.8431ZM18.5757 18.1136C17.6675 19.1661 16.3193 19.4886 14.5655 19.0761C9.99156 17.996 4.13612 12.1811 2.96531 7.55288C2.50812 5.74819 2.81131 4.35669 3.89206 3.3935C4.56031 2.79262 5.35024 2.40006 6.03431 3.12194C6.25568 3.46844 8.30512 6.23012 8.39793 6.54913C8.50793 6.80212 8.47356 6.94306 8.35531 7.14037C8.20337 7.42431 7.57499 8.008 7.31924 8.29331C6.89643 8.6735 6.83524 9.35206 7.16318 9.91719C8.33056 11.7088 10.3992 13.7713 12.0987 14.8321C12.5738 15.1112 13.2819 15.1394 13.6697 14.696C14.0045 14.3859 14.5277 13.7796 14.879 13.6104C15.1836 13.3884 15.6036 13.6414 15.9316 13.8607L18.9091 15.9734C19.5444 16.4312 19.1745 17.4811 18.5757 18.1136Z" fill="black"/>
</svg>
