<svg width="19" height="19" viewBox="0 0 19 19" fill="none" xmlns="http://www.w3.org/2000/svg">
<g clip-path="url(#clip0_138_2800)">
<path d="M18.7067 0.440257C18.4744 0.156446 18.1268 3.05176e-05 17.7277 3.05176e-05C17.5106 3.05176e-05 17.2809 0.0458233 17.0446 0.135999L0.961374 6.27539C0.107862 6.60113 -0.00706561 7.08993 0.000319126 7.35245C0.00770386 7.61481 0.150203 8.09637 1.02082 8.37325C1.02602 8.37499 1.03125 8.37644 1.03648 8.37803L3.29198 9.02336L14.2769 3.41133C14.5506 3.27128 14.8861 3.38001 15.0259 3.65384C15.1358 3.86896 15.0918 4.12179 14.9352 4.28819L14.9356 4.2886L8.82797 10.7783L8.65371 11.4843L10.8348 13.2406L13.8571 15.6743C13.8597 15.6763 13.8623 15.6785 13.8651 15.6805C14.1976 15.9386 14.5609 16.0748 14.9156 16.075C15.6088 16.075 16.1606 15.5619 16.3214 14.7682L18.9566 1.75619C19.0623 1.23402 18.9736 0.766522 18.7067 0.44022L18.7067 0.440257Z" fill="url(#paint0_linear_138_2800)"/>
<path d="M7.78216 10.3697C7.80495 10.2768 7.85139 10.1913 7.91698 10.1216L11.9246 5.86313L4.48779 9.66252L6.17641 14.4918C6.27267 14.7669 6.41588 15.0012 6.59304 15.1846L7.78183 10.3696L7.78216 10.3697ZM7.62953 15.6315C8.03091 15.6282 8.42534 15.4589 8.7709 15.1407L10.0064 14.0031L8.3591 12.6767L7.62953 15.6315Z" fill="url(#paint1_linear_138_2800)"/>
</g>
<defs>
<linearGradient id="paint0_linear_138_2800" x1="3.16454" y1="1.61599" x2="18.3484" y2="13.9287" gradientUnits="userSpaceOnUse">
<stop stop-color="#7388D9"/>
<stop offset="1" stop-color="#5364A6"/>
</linearGradient>
<linearGradient id="paint1_linear_138_2800" x1="5.72643" y1="6.84511" x2="13.4661" y2="10.8877" gradientUnits="userSpaceOnUse">
<stop stop-color="#7388D9"/>
<stop offset="1" stop-color="#5364A6"/>
</linearGradient>
<clipPath id="clip0_138_2800">
<rect width="19" height="19" fill="white"/>
</clipPath>
</defs>
</svg>
