<svg width="21" height="20" viewBox="0 0 21 20" fill="none" xmlns="http://www.w3.org/2000/svg">
<path d="M18.3125 0.625H2.6875C2.2731 0.625 1.87567 0.78962 1.58265 1.08265C1.28962 1.37567 1.125 1.7731 1.125 2.1875V17.8125C1.125 18.2269 1.28962 18.6243 1.58265 18.9174C1.87567 19.2104 2.2731 19.375 2.6875 19.375H18.3125C18.7269 19.375 19.1243 19.2104 19.4174 18.9174C19.7104 18.6243 19.875 18.2269 19.875 17.8125V2.1875C19.875 1.7731 19.7104 1.37567 19.4174 1.08265C19.1243 0.78962 18.7269 0.625 18.3125 0.625ZM19.25 17.8125C19.25 18.0611 19.1512 18.2996 18.9754 18.4754C18.7996 18.6512 18.5611 18.75 18.3125 18.75H2.6875C2.43886 18.75 2.2004 18.6512 2.02459 18.4754C1.84877 18.2996 1.75 18.0611 1.75 17.8125V2.1875C1.75 1.93886 1.84877 1.7004 2.02459 1.52459C2.2004 1.34877 2.43886 1.25 2.6875 1.25H18.3125C18.5611 1.25 18.7996 1.34877 18.9754 1.52459C19.1512 1.7004 19.25 1.93886 19.25 2.1875V17.8125Z" fill="black"/>
<path d="M16.75 2.5H4.25C4.00136 2.5 3.7629 2.59877 3.58709 2.77459C3.41127 2.9504 3.3125 3.18886 3.3125 3.4375V5.9375C3.3125 6.18614 3.41127 6.4246 3.58709 6.60041C3.7629 6.77623 4.00136 6.875 4.25 6.875H16.75C16.9986 6.875 17.2371 6.77623 17.4129 6.60041C17.5887 6.4246 17.6875 6.18614 17.6875 5.9375V3.4375C17.6875 3.18886 17.5887 2.9504 17.4129 2.77459C17.2371 2.59877 16.9986 2.5 16.75 2.5ZM17.0625 5.9375C17.0625 6.02038 17.0296 6.09987 16.971 6.15847C16.9124 6.21708 16.8329 6.25 16.75 6.25H4.25C4.16712 6.25 4.08763 6.21708 4.02903 6.15847C3.97042 6.09987 3.9375 6.02038 3.9375 5.9375V3.4375C3.9375 3.35462 3.97042 3.27513 4.02903 3.21653C4.08763 3.15792 4.16712 3.125 4.25 3.125H16.75C16.8329 3.125 16.9124 3.15792 16.971 3.21653C17.0296 3.27513 17.0625 3.35462 17.0625 3.4375V5.9375ZM4.25 12.2375H6.75C6.99864 12.2375 7.2371 12.1387 7.41291 11.9629C7.58873 11.7871 7.6875 11.5486 7.6875 11.3V8.8C7.6875 8.55136 7.58873 8.3129 7.41291 8.13709C7.2371 7.96127 6.99864 7.8625 6.75 7.8625H4.25C4.00136 7.8625 3.7629 7.96127 3.58709 8.13709C3.41127 8.3129 3.3125 8.55136 3.3125 8.8V11.3C3.3125 11.5486 3.41127 11.7871 3.58709 11.9629C3.7629 12.1387 4.00136 12.2375 4.25 12.2375ZM3.9375 8.8C3.9375 8.71712 3.97042 8.63763 4.02903 8.57903C4.08763 8.52042 4.16712 8.4875 4.25 8.4875H6.75C6.83288 8.4875 6.91237 8.52042 6.97097 8.57903C7.02958 8.63763 7.0625 8.71712 7.0625 8.8V11.3C7.0625 11.3829 7.02958 11.4624 6.97097 11.521C6.91237 11.5796 6.83288 11.6125 6.75 11.6125H4.25C4.16712 11.6125 4.08763 11.5796 4.02903 11.521C3.97042 11.4624 3.9375 11.3829 3.9375 11.3V8.8ZM11.75 12.2375C11.9986 12.2375 12.2371 12.1387 12.4129 11.9629C12.5887 11.7871 12.6875 11.5486 12.6875 11.3V8.8C12.6875 8.55136 12.5887 8.3129 12.4129 8.13709C12.2371 7.96127 11.9986 7.8625 11.75 7.8625H9.25C9.00136 7.8625 8.7629 7.96127 8.58709 8.13709C8.41127 8.3129 8.3125 8.55136 8.3125 8.8V11.3C8.3125 11.5486 8.41127 11.7871 8.58709 11.9629C8.7629 12.1387 9.00136 12.2375 9.25 12.2375H11.75ZM8.9375 11.3V8.8C8.9375 8.71712 8.97042 8.63763 9.02903 8.57903C9.08763 8.52042 9.16712 8.4875 9.25 8.4875H11.75C11.8329 8.4875 11.9124 8.52042 11.971 8.57903C12.0296 8.63763 12.0625 8.71712 12.0625 8.8V11.3C12.0625 11.3829 12.0296 11.4624 11.971 11.521C11.9124 11.5796 11.8329 11.6125 11.75 11.6125H9.25C9.16712 11.6125 9.08763 11.5796 9.02903 11.521C8.97042 11.4624 8.9375 11.3829 8.9375 11.3ZM16.75 7.8625H14.25C14.0014 7.8625 13.7629 7.96127 13.5871 8.13709C13.4113 8.3129 13.3125 8.55136 13.3125 8.8V11.3C13.3125 11.5486 13.4113 11.7871 13.5871 11.9629C13.7629 12.1387 14.0014 12.2375 14.25 12.2375H16.75C16.9986 12.2375 17.2371 12.1387 17.4129 11.9629C17.5887 11.7871 17.6875 11.5486 17.6875 11.3V8.8C17.6875 8.55136 17.5887 8.3129 17.4129 8.13709C17.2371 7.96127 16.9986 7.8625 16.75 7.8625ZM17.0625 11.3C17.0625 11.3829 17.0296 11.4624 16.971 11.521C16.9124 11.5796 16.8329 11.6125 16.75 11.6125H14.25C14.1671 11.6125 14.0876 11.5796 14.029 11.521C13.9704 11.4624 13.9375 11.3829 13.9375 11.3V8.8C13.9375 8.71712 13.9704 8.63763 14.029 8.57903C14.0876 8.52042 14.1671 8.4875 14.25 8.4875H16.75C16.8329 8.4875 16.9124 8.52042 16.971 8.57903C17.0296 8.63763 17.0625 8.71712 17.0625 8.8V11.3ZM17.375 13.8H3.625C3.54212 13.8 3.46263 13.8329 3.40403 13.8915C3.34542 13.9501 3.3125 14.0296 3.3125 14.1125C3.3125 14.1954 3.34542 14.2749 3.40403 14.3335C3.46263 14.3921 3.54212 14.425 3.625 14.425H17.375C17.4579 14.425 17.5374 14.3921 17.596 14.3335C17.6546 14.2749 17.6875 14.1954 17.6875 14.1125C17.6875 14.0296 17.6546 13.9501 17.596 13.8915C17.5374 13.8329 17.4579 13.8 17.375 13.8ZM17.375 16.25H3.625C3.54212 16.25 3.46263 16.2829 3.40403 16.3415C3.34542 16.4001 3.3125 16.4796 3.3125 16.5625C3.3125 16.6454 3.34542 16.7249 3.40403 16.7835C3.46263 16.8421 3.54212 16.875 3.625 16.875H17.375C17.4579 16.875 17.5374 16.8421 17.596 16.7835C17.6546 16.7249 17.6875 16.6454 17.6875 16.5625C17.6875 16.4796 17.6546 16.4001 17.596 16.3415C17.5374 16.2829 17.4579 16.25 17.375 16.25Z" fill="black"/>
</svg>
