<svg width="22" height="22" viewBox="0 0 22 22" fill="none" xmlns="http://www.w3.org/2000/svg">
<g clip-path="url(#clip0_133_925)">
<path d="M8.83897 0.820706C8.73584 0.880862 8.67139 1.05274 8.70576 1.18594C8.71866 1.2418 8.82608 1.36211 8.94209 1.45664L9.14834 1.61992L8.64561 1.74024C7.61866 1.98086 6.52295 2.43633 5.64209 2.97774C3.96631 4.01758 2.51397 5.71055 1.7878 7.48516C1.65889 7.79883 1.6417 7.87617 1.67608 7.975C1.75772 8.18125 1.95967 8.26719 2.14444 8.16836C2.18741 8.14258 2.32061 7.90195 2.44522 7.62695C2.56983 7.34766 2.7503 6.98672 2.84912 6.81914C4.04366 4.69649 6.08037 3.11953 8.45225 2.47071C9.18702 2.26875 9.19131 2.26875 9.00225 2.54375C8.88623 2.71133 8.85186 2.79297 8.87334 2.87461C8.9335 3.12813 9.23428 3.21836 9.42334 3.03789C9.4835 2.98633 9.70694 2.72422 9.92178 2.45782C10.3214 1.95938 10.3815 1.82188 10.2612 1.66289C10.2312 1.62422 9.96475 1.40938 9.67256 1.18594C9.13116 0.769144 9.01514 0.717581 8.83897 0.820706Z" fill="black"/>
<path d="M11.6147 1.55117C11.4299 1.61992 11.3698 1.89492 11.5073 2.0625C11.6147 2.19571 12.1991 2.27305 12.3538 2.17422C12.5686 2.03242 12.5471 1.70586 12.3194 1.61563C12.1389 1.54258 11.735 1.50391 11.6147 1.55117Z" fill="black"/>
<path d="M13.127 1.91211C12.9035 2.13125 13.0496 2.39766 13.4578 2.50938C13.7844 2.60391 13.8918 2.59531 13.9992 2.4793C14.2055 2.26016 14.0852 2.02383 13.6985 1.89492C13.3547 1.77891 13.2559 1.78321 13.127 1.91211Z" fill="black"/>
<path d="M14.6613 2.44922C14.5667 2.53946 14.541 2.71133 14.5925 2.85743C14.6097 2.8961 14.7558 2.99493 14.9191 3.07657C15.1468 3.19258 15.2499 3.22266 15.3445 3.20118C15.5464 3.15821 15.6495 2.93907 15.5722 2.72852C15.5378 2.64258 14.9921 2.36329 14.8546 2.36329C14.7988 2.36329 14.7128 2.40196 14.6613 2.44922Z" fill="black"/>
<path d="M16.1007 3.22695C15.9847 3.2957 15.9289 3.47617 15.9847 3.60938C16.0449 3.75547 16.5046 4.08203 16.6507 4.08203C16.7925 4.08203 16.973 3.90586 16.973 3.76836C16.973 3.63086 16.8441 3.47617 16.5992 3.31289C16.3929 3.17539 16.2339 3.14961 16.1007 3.22695Z" fill="black"/>
<path d="M9.73264 3.84571C6.60022 4.34844 4.151 6.64297 3.4635 9.71524C3.01233 11.7391 3.40764 13.8273 4.57639 15.5762C5.31545 16.6891 6.37678 17.6043 7.60569 18.193C9.67678 19.1855 12.0444 19.1898 14.1283 18.1973C16.5947 17.0199 18.2448 14.6051 18.4295 11.8938C18.5799 9.67227 17.8151 7.60977 16.2639 6.03282C15.1553 4.90703 13.8447 4.20664 12.2463 3.88438C11.7393 3.78555 10.2655 3.75977 9.73264 3.84571ZM11.7737 4.48594C14.717 4.88125 17.0287 7.04688 17.6647 10.0117C17.7979 10.6133 17.8065 11.9582 17.6905 12.5898C17.2264 15.0648 15.426 17.1402 13.0756 17.918C12.2592 18.1887 11.9326 18.2359 10.8928 18.2402C10.0592 18.2402 9.89162 18.2273 9.47912 18.1414C7.13303 17.6387 5.21662 15.9973 4.38733 13.7887C4.2928 13.5438 4.16389 13.1098 4.09944 12.8262C3.98342 12.3449 3.97912 12.2504 3.97912 11.3652C3.97912 10.5488 3.99202 10.3598 4.07366 9.98164C4.38303 8.56367 4.9717 7.48516 5.99436 6.4668C6.80217 5.65469 7.63577 5.13047 8.65412 4.79102C9.07092 4.64922 9.80569 4.48594 10.1623 4.45586C10.5877 4.41719 11.3612 4.43438 11.7737 4.48594Z" fill="black"/>
<path d="M10.42 5.18203C9.57783 5.26797 8.7915 5.48711 8.11689 5.82226C6.38525 6.69453 5.2208 8.21133 4.8083 10.1406C4.72666 10.5145 4.70947 10.7207 4.70947 11.3652C4.71377 12.2246 4.77822 12.6371 5.03174 13.3762C5.40986 14.4848 6.19619 15.5719 7.10713 16.2465C7.30049 16.3883 7.52393 16.5559 7.60557 16.6203C7.68721 16.6848 7.86338 16.7836 7.99228 16.8395C9.04932 17.2906 9.43174 17.4023 10.304 17.5055C10.8153 17.5613 10.9271 17.5613 11.4384 17.5055C12.1216 17.4238 12.6759 17.2906 13.1786 17.0801C13.9435 16.7578 14.0122 16.7234 14.1067 16.6418C14.1583 16.5945 14.3302 16.4699 14.4849 16.3582C15.7353 15.4816 16.672 13.9906 16.9599 12.4051C17.0587 11.8551 17.0587 10.8109 16.9556 10.2695C16.7149 9.00625 16.1177 7.87617 15.2325 6.98672C14.3345 6.08867 13.17 5.48281 11.9196 5.26367C11.5501 5.19922 10.7079 5.15195 10.42 5.18203ZM10.5274 6.17461C10.5274 6.55273 10.5876 6.70742 10.7466 6.76328C11.056 6.8707 11.2149 6.66445 11.2149 6.16601C11.2149 5.79219 11.172 5.81367 11.7606 5.9082C12.3235 5.99844 13.3204 6.3293 13.3204 6.42812C13.3204 6.44531 13.2431 6.57851 13.1485 6.7289C12.9509 7.04258 12.9251 7.24453 13.0626 7.36914C13.1657 7.46367 13.372 7.47226 13.4751 7.38633C13.5181 7.35195 13.6341 7.19297 13.7372 7.03398L13.922 6.7418L14.1927 6.94805C14.5966 7.25742 14.8931 7.54961 15.1938 7.93203C15.3442 8.12539 15.4688 8.29297 15.4688 8.31015C15.4688 8.32305 15.3786 8.3832 15.2669 8.44765C14.8544 8.68398 14.7813 8.75703 14.7813 8.9332C14.7813 9.28555 15.052 9.33711 15.5118 9.075L15.8169 8.89453L15.9157 9.12226C16.1392 9.61641 16.3712 10.5445 16.3712 10.9184V11.043H15.9845C15.645 11.043 15.5892 11.0559 15.5118 11.1375C15.3958 11.2664 15.4001 11.4512 15.5333 11.5801C15.6278 11.6789 15.6708 11.6875 16.006 11.6875C16.3626 11.6875 16.3712 11.6918 16.3712 11.7906C16.3712 11.9625 16.2423 12.6414 16.1478 12.9551C16.0747 13.2086 15.8427 13.7758 15.7954 13.823C15.7868 13.8316 15.6493 13.7586 15.486 13.6641C15.3228 13.5695 15.1423 13.4922 15.0821 13.4922C14.8587 13.4922 14.7169 13.75 14.8071 13.982C14.82 14.0207 14.9747 14.1324 15.1466 14.2312L15.4646 14.4074L15.3313 14.6008C15.0606 14.9961 14.0681 15.9414 13.922 15.9414C13.9048 15.9414 13.8103 15.8082 13.7114 15.6406C13.6126 15.4773 13.4966 15.3227 13.4493 15.2969C13.2259 15.1766 12.9767 15.3184 12.9767 15.5633C12.9767 15.6449 13.0454 15.8168 13.1528 15.9973C13.2474 16.1605 13.3204 16.298 13.3118 16.3066C13.2817 16.3324 12.9466 16.4699 12.6544 16.5687C12.2548 16.7105 11.8767 16.7965 11.5114 16.8266L11.2149 16.8566V16.5387C11.2149 16.182 11.1591 16.0402 10.9958 15.9457C10.9013 15.8941 10.8583 15.8941 10.7552 15.9371C10.579 16.0102 10.5274 16.1434 10.5274 16.5301V16.8566L10.231 16.8266C10.0634 16.8137 9.80986 16.7707 9.65947 16.7363C9.16103 16.6203 8.42197 16.341 8.42197 16.268C8.42197 16.2465 8.49072 16.1047 8.57236 15.9543C8.654 15.8039 8.72275 15.6277 8.72275 15.5676C8.72275 15.4043 8.56807 15.2539 8.40049 15.2539C8.23721 15.2539 8.13408 15.357 7.9751 15.6707C7.91494 15.791 7.84619 15.9027 7.82471 15.9156C7.73018 15.9758 6.85361 15.1852 6.48408 14.6996L6.26924 14.4203L6.49697 14.2828C6.87939 14.0551 6.96104 13.9734 6.96104 13.823C6.96104 13.6598 6.81494 13.4922 6.66885 13.4922C6.60869 13.4922 6.41963 13.5695 6.24775 13.6684L5.92979 13.8402L5.83955 13.634C5.60322 13.0926 5.37119 12.2074 5.37119 11.8422V11.6875H5.73643C6.07158 11.6875 6.11455 11.6789 6.20908 11.5801C6.33799 11.4512 6.34658 11.3051 6.22627 11.1547C6.14463 11.0473 6.11885 11.043 5.75361 11.043H5.37119V10.8969C5.37119 10.493 5.57744 9.65937 5.80088 9.16523L5.92549 8.89453L6.21768 9.06211C6.50986 9.22969 6.57002 9.25117 6.71611 9.24258C6.84072 9.23398 6.96104 9.0793 6.96104 8.92031C6.96104 8.75703 6.87939 8.67539 6.47978 8.44765C6.36377 8.3832 6.27354 8.31875 6.27354 8.30586C6.27354 8.28867 6.38096 8.13398 6.51416 7.96211C6.76768 7.63125 7.29189 7.11992 7.61846 6.88789L7.80752 6.75039L7.98369 7.06836C8.18994 7.425 8.31455 7.50664 8.53799 7.41211C8.77861 7.30898 8.78291 7.14141 8.55088 6.72461L8.379 6.41094L8.69697 6.27773C9.24268 6.05 9.96885 5.86953 10.4114 5.84805L10.5274 5.84375V6.17461Z" fill="black"/>
<path d="M10.4113 9.16524C10.0117 9.56485 9.97305 9.67656 10.1664 9.86992C10.2481 9.95156 10.3082 9.97305 10.4027 9.96016L10.5273 9.93867V10.248C10.5273 10.5574 10.5273 10.5617 10.377 10.6605C10.1535 10.8109 9.99454 11.1547 10.0203 11.434C10.0977 12.2031 11.1375 12.4824 11.5543 11.8465L11.6574 11.6875H12.7445H13.8316L13.8059 11.8336C13.7887 11.9539 13.8016 12.0012 13.8918 12.0914C14.0852 12.2848 14.2141 12.2461 14.5492 11.898C14.893 11.55 14.966 11.4297 14.9274 11.2836C14.8973 11.1547 14.2613 10.5273 14.1625 10.5273C14.0551 10.5273 13.8488 10.6434 13.8188 10.7207C13.8059 10.7594 13.793 10.8496 13.793 10.9184V11.043H12.7617H11.7305L11.4727 10.7809L11.2148 10.5188V10.2309V9.93867L11.3395 9.96016C11.5027 9.98164 11.6875 9.80977 11.6875 9.64219C11.6875 9.48321 11.0258 8.8086 10.8711 8.8086C10.8023 8.8086 10.6606 8.92032 10.4113 9.16524ZM11.0344 11.3223C11.0473 11.4039 11.0258 11.4641 10.9742 11.5027C10.8625 11.5844 10.7938 11.5715 10.7207 11.4555C10.6176 11.3008 10.6949 11.1805 10.8797 11.1891C11.0043 11.1934 11.0215 11.2105 11.0344 11.3223Z" fill="black"/>
<path d="M17.3164 4.29688C17.2648 4.34844 17.2305 4.43867 17.2305 4.5332C17.2305 4.66211 17.282 4.73945 17.5785 5.06172C18.7645 6.33359 19.5465 7.88477 19.8773 9.61211C20.0148 10.334 20.0664 11.6574 19.9848 12.3793C19.9246 12.9035 19.7613 13.6555 19.6195 14.0766L19.5207 14.373L19.4348 14.1711C19.3016 13.8746 19.1039 13.8016 18.8891 13.9691C18.7301 14.0938 18.743 14.2184 18.9707 14.807C19.0781 15.082 19.1641 15.3355 19.1641 15.3699C19.1641 15.4688 19.4047 15.6836 19.5121 15.6836C19.6625 15.6836 20.8484 15.1766 20.9387 15.0734C21.0289 14.966 21.0332 14.8285 20.943 14.7039C20.8227 14.5277 20.6938 14.5105 20.4016 14.6309C20.2555 14.691 20.1309 14.734 20.1266 14.7254C20.118 14.7168 20.1695 14.5406 20.234 14.3301C21.0031 11.9281 20.8098 9.26836 19.6969 6.98242C19.2758 6.11016 18.7086 5.28945 18.0383 4.58477C17.7332 4.2625 17.6602 4.21094 17.5441 4.21094C17.4582 4.21094 17.368 4.24531 17.3164 4.29688Z" fill="black"/>
<path d="M1.5168 8.34453C1.42656 8.44336 1.28906 8.85156 1.28906 9.01914C1.28906 9.15234 1.47812 9.32422 1.62422 9.32422C1.7918 9.32422 1.90781 9.18242 1.99375 8.88594C2.08828 8.55937 2.07969 8.47773 1.95508 8.35742C1.82187 8.21992 1.63281 8.21562 1.5168 8.34453Z" fill="black"/>
<path d="M1.18159 9.93438C1.08706 10.0203 1.06987 10.0762 1.04409 10.3813C1.0226 10.6992 1.0269 10.7379 1.11284 10.8238C1.23315 10.9441 1.46948 10.9441 1.5812 10.8281C1.62846 10.7766 1.67573 10.6434 1.69292 10.5145C1.74018 10.1105 1.72729 10.0246 1.60698 9.93008C1.46088 9.81406 1.31909 9.81406 1.18159 9.93438Z" fill="black"/>
<path d="M1.08723 11.5844C0.984104 11.6875 0.979807 11.709 1.00988 12.0227C1.03137 12.2676 1.06145 12.3793 1.1302 12.448C1.25051 12.5813 1.46106 12.577 1.58567 12.4438C1.6759 12.3492 1.68449 12.3063 1.66731 11.9883C1.65442 11.6832 1.64153 11.6273 1.55129 11.5543C1.40949 11.4383 1.22043 11.4512 1.08723 11.5844Z" fill="black"/>
<path d="M1.36633 13.1312C1.30188 13.1656 1.23313 13.243 1.22024 13.2988C1.18586 13.4449 1.32336 13.9863 1.41789 14.0723C1.53821 14.1797 1.79602 14.141 1.90344 13.9992C1.98938 13.8832 1.98938 13.8746 1.91633 13.5566C1.80891 13.1098 1.64133 12.9809 1.36633 13.1312Z" fill="black"/>
<path d="M1.85634 14.6781C1.68017 14.7984 1.66298 14.9273 1.7833 15.2195C1.9165 15.5504 2.03681 15.6836 2.20009 15.6836C2.34619 15.6836 2.53525 15.516 2.53525 15.3828C2.53525 15.241 2.29892 14.7555 2.1872 14.6781C2.06259 14.5922 1.98095 14.5922 1.85634 14.6781Z" fill="black"/>
<path d="M2.87039 16.573C2.76297 16.702 2.75867 16.7191 2.68132 17.4195C2.62117 17.9738 2.62117 18.1156 2.66414 18.1973C2.74148 18.3391 2.91765 18.3949 3.08093 18.3262C3.22703 18.266 3.24422 18.2273 3.28718 17.948L3.31726 17.7547L3.77273 18.2273C5.37976 19.8902 7.58836 20.9559 9.90007 21.1793C10.5532 21.2438 10.9657 21.2395 11.0645 21.1664C11.1333 21.1148 11.1591 21.1148 11.2407 21.1664C11.361 21.248 11.9153 21.2008 12.0356 21.102C12.1645 20.9945 12.1817 20.7926 12.0743 20.6551C11.9884 20.5477 11.9583 20.5391 11.6747 20.5391C11.4899 20.5391 11.318 20.5648 11.245 20.6035C11.1634 20.6465 11.0946 20.6508 11.0302 20.625C10.9786 20.6035 10.6434 20.5648 10.2825 20.5434C8.31453 20.4059 6.55281 19.7227 5.04461 18.5023C4.67507 18.2059 3.88875 17.4367 3.8157 17.2992C3.77273 17.2219 3.78992 17.2219 4.09929 17.252C4.40867 17.2777 4.42586 17.2734 4.53328 17.1703C4.67078 17.0328 4.67507 16.848 4.54187 16.7191C4.45593 16.6418 4.34422 16.616 3.90593 16.5645C3.18406 16.4785 2.95203 16.4828 2.87039 16.573Z" fill="black"/>
<path d="M18.2918 16.8309C18.0511 17.1445 18.0253 17.2348 18.1113 17.3981C18.18 17.5398 18.3261 17.6 18.4937 17.557C18.614 17.527 18.9406 17.1102 18.975 16.9383C19.0136 16.7535 18.8589 16.5859 18.6484 16.5859C18.498 16.5859 18.4636 16.6074 18.2918 16.8309Z" fill="black"/>
<path d="M17.4238 17.8707C17.3551 17.9137 17.2218 18.0297 17.1316 18.1199C16.9898 18.2703 16.9683 18.3176 16.9812 18.4551C16.9898 18.5711 17.0285 18.6441 17.1101 18.7043C17.2691 18.8203 17.4066 18.7773 17.6859 18.5109C17.875 18.3348 17.9179 18.266 17.9179 18.1543C17.9179 17.8707 17.6558 17.7203 17.4238 17.8707Z" fill="black"/>
<path d="M15.9545 19.0523C15.8127 19.1555 15.6838 19.2844 15.6709 19.3402C15.6365 19.4777 15.7268 19.6453 15.8685 19.7141C15.9717 19.7656 16.0103 19.7613 16.1693 19.684C16.2682 19.6367 16.4228 19.5379 16.5131 19.4648C16.642 19.3574 16.6721 19.3016 16.6721 19.1813C16.6721 18.9922 16.5475 18.8633 16.3584 18.8633C16.2596 18.8633 16.1393 18.9191 15.9545 19.0523Z" fill="black"/>
<path d="M14.6096 19.7742C14.2186 19.9504 14.1154 20.1781 14.3303 20.3887C14.4635 20.5262 14.5709 20.5219 14.8889 20.3758C15.1939 20.2297 15.267 20.1523 15.2627 19.9762C15.2541 19.684 14.992 19.6023 14.6096 19.7742Z" fill="black"/>
<path d="M13.041 20.3027C12.8047 20.3715 12.6758 20.4918 12.6758 20.6551C12.6758 20.9473 12.8734 21.0332 13.2988 20.9258C13.7285 20.8184 13.8617 20.6078 13.6598 20.35C13.5566 20.2211 13.3934 20.2082 13.041 20.3027Z" fill="black"/>
</g>
<defs>
<clipPath id="clip0_133_925">
<rect width="22" height="22" fill="white"/>
</clipPath>
</defs>
</svg>
