<svg width="19" height="19" viewBox="0 0 19 19" fill="none" xmlns="http://www.w3.org/2000/svg">
<g clip-path="url(#clip0_181_1218)">
<path d="M7.87693 14.4817L5.63811 16.7205C4.70994 17.6487 3.20684 17.6487 2.27945 16.7207C1.35188 15.7932 1.35188 14.2899 2.27927 13.3625L6.75769 8.8841C7.68508 7.95668 9.18832 7.95668 10.1157 8.8841C10.4249 9.19326 10.9261 9.19326 11.2353 8.8841C11.5444 8.57495 11.5444 8.07368 11.2353 7.76453C9.68955 6.21879 7.18385 6.21879 5.63811 7.76453L1.15973 12.2429C-0.386007 13.7887 -0.386007 16.2944 1.15973 17.8401C2.70528 19.3867 5.21117 19.3867 6.75772 17.8401L8.99654 15.6013C9.3057 15.2921 9.3057 14.7909 8.99654 14.4817C8.68739 14.1726 8.18608 14.1726 7.87693 14.4817Z" fill="black"/>
<path d="M17.8404 6.7568C19.3861 5.21106 19.3861 2.70535 17.8404 1.15962C16.2947 -0.386081 13.7891 -0.386081 12.2425 1.15943L9.55627 3.84571C9.24711 4.15487 9.24711 4.65613 9.55627 4.96529C9.86542 5.27444 10.3667 5.27444 10.6758 4.96529L13.3619 2.27919C14.29 1.35177 15.7934 1.35177 16.7208 2.27919C17.6482 3.20658 17.6482 4.70983 16.7208 5.63722L11.7951 10.5629C10.8677 11.4903 9.36445 11.4903 8.43706 10.5629C8.12791 10.2538 7.62664 10.2538 7.31748 10.5629C7.00833 10.8721 7.00833 11.3733 7.31748 11.6825C8.86322 13.2282 11.3689 13.2282 12.9147 11.6825L17.8404 6.7568ZM14.8102 13.6905C14.501 13.3813 13.9997 13.3813 13.6906 13.6905C13.3814 13.9996 13.3814 14.5009 13.6906 14.81L16.0648 17.1842C16.3739 17.4934 16.8752 17.4934 17.1843 17.1842C17.4935 16.8751 17.4935 16.3738 17.1843 16.0646L14.8102 13.6905ZM4.19132 5.31077C4.50047 5.61993 5.00174 5.61993 5.31089 5.31077C5.62005 5.00162 5.62005 4.50035 5.31089 4.1912L2.93433 1.81463C2.62517 1.50547 2.1239 1.50547 1.81475 1.81463C1.50559 2.12378 1.50559 2.62505 1.81475 2.9342L4.19132 5.31077ZM18.2083 11.8749H15.8333C15.3961 11.8749 15.0416 12.2293 15.0416 12.6665C15.0416 13.1037 15.3961 13.4581 15.8333 13.4581H18.2083C18.6455 13.4581 18.9999 13.1037 18.9999 12.6665C18.9999 12.2293 18.6455 11.8749 18.2083 11.8749ZM6.33339 3.9583C6.77061 3.9583 7.12504 3.60387 7.12504 3.16665V0.791682C7.12504 0.354427 6.77061 0 6.33339 0C5.89618 0 5.54175 0.354427 5.54175 0.791645V3.16662C5.54171 3.60383 5.89618 3.9583 6.33339 3.9583ZM0.791767 7.12492H3.16674C3.60396 7.12492 3.95838 6.77049 3.95838 6.33327C3.95838 5.89605 3.60396 5.54163 3.16674 5.54163H0.791767C0.35455 5.54163 0.00012207 5.89605 0.00012207 6.33327C0.00012207 6.77049 0.35455 7.12492 0.791767 7.12492ZM12.6666 15.0415C12.2294 15.0415 11.875 15.3959 11.875 15.8331V18.2081C11.875 18.6453 12.2294 18.9997 12.6666 18.9997C13.1038 18.9997 13.4583 18.6453 13.4583 18.2081V15.8331C13.4583 15.3959 13.1038 15.0415 12.6666 15.0415Z" fill="black"/>
</g>
<defs>
<clipPath id="clip0_181_1218">
<rect width="19" height="19" fill="white"/>
</clipPath>
</defs>
</svg>
