<svg width="25" height="25" viewBox="0 0 25 25" fill="none" xmlns="http://www.w3.org/2000/svg">
<path d="M22.7037 5.03076L19.1881 1.51513C19.0792 1.40631 18.9501 1.31998 18.8079 1.26108C18.6657 1.20219 18.5133 1.17188 18.3594 1.17188C18.2055 1.17188 18.0531 1.20219 17.9109 1.26108C17.7688 1.31998 17.6396 1.40631 17.5307 1.51513L14.0151 5.03076C13.7953 5.25053 13.6719 5.54861 13.6719 5.85942C13.6719 6.17023 13.7953 6.4683 14.0151 6.68808C14.2349 6.90785 14.533 7.03132 14.8438 7.03132C15.1546 7.03132 15.4527 6.90785 15.6724 6.68808L17.1875 5.17294V9.3936C17.1898 10.0913 16.9818 10.7735 16.5906 11.3512C16.1994 11.929 15.6432 12.3754 14.9946 12.6323C14.0034 13.0276 13.1403 13.6884 12.5 14.5421C11.8598 13.6884 10.9967 13.0276 10.0055 12.6323C9.35678 12.3754 8.80059 11.9289 8.40941 11.3512C8.01824 10.7735 7.81023 10.0913 7.81253 9.3936V5.17294L9.32762 6.68808C9.54739 6.90785 9.84547 7.03132 10.1563 7.03132C10.4671 7.03132 10.7652 6.90785 10.9849 6.68808C11.2047 6.4683 11.3282 6.17023 11.3282 5.85942C11.3282 5.54861 11.2047 5.25053 10.9849 5.03076L7.46932 1.51513C7.3605 1.40631 7.23131 1.31998 7.08913 1.26108C6.94694 1.20219 6.79455 1.17188 6.64066 1.17188C6.48676 1.17188 6.33437 1.20219 6.19218 1.26108C6.05 1.31998 5.92081 1.40631 5.81199 1.51513L2.29637 5.03076C2.07659 5.25053 1.95312 5.54861 1.95312 5.85942C1.95312 6.17023 2.07659 6.4683 2.29637 6.68808C2.51614 6.90785 2.81422 7.03132 3.12503 7.03132C3.43584 7.03132 3.73392 6.90785 3.95369 6.68808L5.46878 5.17294V9.3936C5.46874 10.5592 5.81802 11.6982 6.47155 12.6634C7.12508 13.6286 8.05286 14.3758 9.13519 14.8086C9.78383 15.0656 10.34 15.512 10.7312 16.0897C11.1224 16.6674 11.3304 17.3495 11.3282 18.0472V22.6563C11.3282 22.9671 11.4516 23.2652 11.6714 23.4849C11.8912 23.7047 12.1892 23.8282 12.5 23.8282C12.8108 23.8282 13.1089 23.7047 13.3287 23.4849C13.5484 23.2652 13.6719 22.9671 13.6719 22.6563V18.0472C13.6697 17.3495 13.8777 16.6674 14.2689 16.0896C14.66 15.5119 15.2162 15.0655 15.8648 14.8085C16.9471 14.3757 17.8749 13.6285 18.5285 12.6633C19.182 11.6981 19.5313 10.5592 19.5313 9.3936V5.17294L21.0464 6.68808C21.2661 6.90785 21.5642 7.03132 21.875 7.03132C22.1858 7.03132 22.4839 6.90785 22.7037 6.68808C22.9235 6.4683 23.0469 6.17023 23.0469 5.85942C23.0469 5.54861 22.9235 5.25053 22.7037 5.03076Z" fill="black"/>
</svg>
