<svg width="15" height="16" viewBox="0 0 15 16" fill="none" xmlns="http://www.w3.org/2000/svg">
<path d="M13.9519 11.8439L8.7075 3.43785C8.58061 3.23229 8.40333 3.06253 8.19247 2.94465C7.98161 2.82677 7.74415 2.76468 7.50258 2.76425C7.261 2.76383 7.02332 2.82509 6.81205 2.94223C6.60078 3.05938 6.42292 3.22852 6.29531 3.43364L1.0425 11.8538C0.920361 12.068 0.856154 12.3103 0.856201 12.5569C0.856249 12.8035 0.92055 13.0458 1.04277 13.2599C1.16498 13.4741 1.3409 13.6527 1.55317 13.7781C1.76544 13.9036 2.00673 13.9716 2.25328 13.9754H12.7467C12.9942 13.9714 13.2363 13.9028 13.4491 13.7764C13.6618 13.65 13.8378 13.4702 13.9597 13.2548C14.0815 13.0393 14.1448 12.7958 14.1435 12.5483C14.1421 12.3008 14.0761 12.058 13.9519 11.8439Z" fill="#FFD54F"/>
<path d="M7.07204 9.58036L6.94735 7.71661C6.92298 7.34161 6.79501 6.73552 7.08141 6.43083C7.29938 6.19646 7.81548 6.15614 7.97204 6.48099C8.10517 6.86271 8.13461 7.27292 8.05735 7.66974L7.89048 9.58833C7.8833 9.76891 7.84377 9.94673 7.77376 10.1133C7.7462 10.1672 7.70442 10.2126 7.65294 10.2445C7.60145 10.2763 7.54224 10.2935 7.48169 10.2941C7.42115 10.2948 7.36159 10.2788 7.30946 10.248C7.25733 10.2172 7.21461 10.1728 7.18594 10.1194C7.11997 9.94681 7.08154 9.76491 7.07204 9.58036ZM7.50376 12.1411C7.35594 12.1403 7.21399 12.0832 7.10679 11.9814C6.9996 11.8796 6.93521 11.7408 6.92673 11.5932C6.91825 11.4457 6.96631 11.3004 7.06114 11.187C7.15597 11.0736 7.29044 11.0006 7.43719 10.9829C7.51603 10.9733 7.59599 10.98 7.67213 11.0026C7.74828 11.0252 7.81899 11.0631 7.87991 11.114C7.94083 11.165 7.99066 11.2279 8.02633 11.2988C8.062 11.3698 8.08276 11.4473 8.08731 11.5266C8.09187 11.6058 8.08013 11.6852 8.05282 11.7598C8.02551 11.8344 7.98321 11.9025 7.92853 11.9601C7.87385 12.0177 7.80795 12.0635 7.73489 12.0946C7.66183 12.1258 7.58317 12.1416 7.50376 12.1411Z" fill="#596C76"/>
</svg>
