<svg width="19" height="19" viewBox="0 0 19 19" fill="none" xmlns="http://www.w3.org/2000/svg">
<g clip-path="url(#clip0_138_2804)">
<path d="M16.1768 2.75916C14.3919 0.980949 12.0175 0.00100195 9.49043 0C6.96903 0 4.59084 0.979057 2.79422 2.75686C0.99442 4.53759 0.00233789 6.9042 0 9.41198V9.41662C0.000296875 10.9345 0.399074 12.4657 1.15603 13.8634L0.0259766 19L5.22173 17.8181C6.53763 18.4813 8.00594 18.831 9.48686 18.8316H9.49061C12.0116 18.8316 14.3898 17.8524 16.1867 16.0744C17.9881 14.2922 18.9806 11.9286 18.9817 9.41925C18.9825 6.92758 17.9865 4.56226 16.1768 2.75916H16.1768ZM9.49043 17.3486H9.48709C8.15738 17.348 6.83985 17.0142 5.67714 16.3829L5.43148 16.2496L1.97652 17.0354L2.72695 13.6248L2.58229 13.3753C1.863 12.1349 1.48289 10.7656 1.48289 9.41502C1.48564 5.04354 5.07742 1.48289 9.49009 1.48289C11.6219 1.48378 13.6249 2.31021 15.1302 3.80965C16.6582 5.33228 17.4994 7.32431 17.4986 9.41884C17.4969 13.7914 13.9044 17.3486 9.49043 17.3486Z" fill="url(#paint0_linear_138_2804)"/>
<path d="M6.90804 5.26443H6.49204C6.3472 5.26443 6.11208 5.31865 5.91321 5.53507C5.71415 5.75164 5.15332 6.27511 5.15332 7.3397C5.15332 8.4043 5.93132 9.43286 6.03975 9.5774C6.14833 9.72175 7.54153 11.9761 9.74809 12.8435C11.582 13.5642 11.9552 13.4208 12.3531 13.3847C12.7512 13.3487 13.6376 12.8614 13.8185 12.3563C13.9994 11.8511 13.9994 11.4179 13.9452 11.3275C13.8908 11.2373 13.746 11.1832 13.529 11.0751C13.3119 10.9668 12.2479 10.4346 12.0489 10.3622C11.8498 10.2902 11.7052 10.254 11.5604 10.4708C11.4155 10.687 10.9892 11.1875 10.8625 11.3318C10.736 11.4764 10.6093 11.4945 10.3921 11.3862C10.175 11.2776 9.48294 11.0451 8.65362 10.3082C8.00814 9.73452 7.56023 9.00306 7.43351 8.78649C7.30696 8.57006 7.42003 8.45295 7.52888 8.34496C7.62647 8.2481 7.75821 8.11562 7.86679 7.98938C7.97523 7.86298 8.0061 7.77281 8.07858 7.62841C8.15094 7.48406 8.11469 7.35766 8.06047 7.24953C8.0061 7.1412 7.58951 6.0713 7.3964 5.64336H7.39654C7.23393 5.28303 7.06271 5.27078 6.90804 5.26443Z" fill="url(#paint1_linear_138_2804)"/>
</g>
<defs>
<linearGradient id="paint0_linear_138_2804" x1="3.1615" y1="1.91" x2="20.2688" y2="13.6355" gradientUnits="userSpaceOnUse">
<stop stop-color="#7388D9"/>
<stop offset="1" stop-color="#5364A6"/>
</linearGradient>
<linearGradient id="paint1_linear_138_2804" x1="6.62291" y1="6.08435" x2="14.1593" y2="11.6779" gradientUnits="userSpaceOnUse">
<stop stop-color="#7388D9"/>
<stop offset="1" stop-color="#5364A6"/>
</linearGradient>
<clipPath id="clip0_138_2804">
<rect width="19" height="19" fill="white"/>
</clipPath>
</defs>
</svg>
