<svg width="80" height="80" viewBox="0 0 80 80" fill="none" xmlns="http://www.w3.org/2000/svg">
<path d="M72.0055 15.1038L59.9682 2.1638C59.7537 1.93426 59.5235 1.72003 59.2791 1.52271V13.5472C59.2791 14.6982 60.2154 15.6344 61.3661 15.6344H72.4497C72.3107 15.4502 72.1624 15.2731 72.0055 15.1038Z" fill="black"/>
<path d="M61.3661 20.3245C57.6232 20.3245 54.5887 17.2903 54.5887 13.547V0H17.4133C13.6659 0 10.628 3.03796 10.628 6.7853V41.8745H50.6259C55.4049 41.8745 59.2791 45.7487 59.2791 50.5277V66.4175C59.2791 71.1966 55.4049 75.0708 50.6259 75.0708H10.8881C11.6977 77.9125 14.3155 80 17.4133 80H67.0374C70.7847 80 73.8227 76.962 73.8227 73.2147V20.3245H61.3661Z" fill="black"/>
<path d="M49.0722 46.651H11.8211C8.70921 46.651 6.17749 49.1827 6.17749 52.2946V65.2227C6.17749 68.3344 8.70921 70.8662 11.8211 70.8662H49.0723C52.1842 70.8662 54.7159 68.3344 54.7159 65.2227V52.2946C54.7159 49.1829 52.1842 46.651 49.0722 46.651ZM26.0148 63.9741C25.6681 64.2105 25.3189 64.3283 24.9672 64.3283C24.6858 64.3283 24.5 64.2479 24.4095 64.0873L22.2089 60.349L20.0083 64.0873C19.9076 64.2479 19.7219 64.3283 19.4506 64.3283C19.0987 64.3283 18.7497 64.2105 18.403 63.9741C18.0562 63.7382 17.883 63.4693 17.883 63.1677C17.883 63.0373 17.9281 62.8965 18.0184 62.7457L20.6262 58.721L18.1237 54.7115C18.0233 54.5508 17.973 54.3951 17.973 54.2443C17.973 53.9427 18.1389 53.6815 18.4705 53.4604C18.802 53.2394 19.1437 53.1288 19.4956 53.1288C19.8272 53.1288 20.0633 53.2594 20.2041 53.5207L22.2089 57.0177L24.2137 53.5207C24.3544 53.2594 24.5905 53.1288 24.9222 53.1288C25.2737 53.1288 25.6158 53.2394 25.9473 53.4604C26.2789 53.6815 26.4448 53.9427 26.4448 54.2443C26.4448 54.3951 26.3945 54.5508 26.2941 54.7115L23.7917 58.721L26.3995 62.7457C26.4898 62.8965 26.535 63.0373 26.535 63.1677C26.5348 63.4693 26.3616 63.7382 26.0148 63.9741ZM33.7551 63.9366C33.6347 64.1379 33.4687 64.2382 33.2576 64.2382H28.4944C28.2128 64.2382 27.9717 64.1757 27.7708 64.0498C27.5697 63.9243 27.4692 63.746 27.4692 63.5146V53.9276C27.4692 53.6965 27.5845 53.5205 27.8159 53.4001C28.047 53.2796 28.3233 53.2191 28.645 53.2191C28.9666 53.2191 29.2426 53.2794 29.4741 53.4001C29.7053 53.5205 29.8208 53.6965 29.8208 53.9276V62.188H33.2575C33.4686 62.188 33.6342 62.2887 33.755 62.4894C33.8755 62.6907 33.9359 62.9319 33.9359 63.213C33.9361 63.4946 33.8758 63.7358 33.7551 63.9366ZM40.7192 63.523C40.0258 64.1002 39.1162 64.3887 37.9911 64.3887C37.0162 64.3887 36.167 64.1877 35.4434 63.7858C34.7198 63.384 34.3583 62.9319 34.3583 62.4293C34.3583 62.148 34.4611 61.8665 34.6673 61.5852C34.8731 61.304 35.112 61.163 35.3833 61.163C35.5342 61.163 35.7022 61.2241 35.8883 61.3458C36.0709 61.4653 36.2424 61.601 36.4008 61.7512C36.5564 61.8996 36.775 62.0346 37.0562 62.1563C37.3375 62.2782 37.6339 62.3391 37.9455 62.3391C38.3373 62.3391 38.6789 62.2563 38.9706 62.0904C39.2619 61.9244 39.4078 61.6758 39.4078 61.3443C39.4078 61.0127 39.2439 60.7212 38.9176 60.4699C38.5911 60.2188 38.1941 59.9901 37.7269 59.784C37.2478 59.5722 36.7776 59.3408 36.3175 59.0904C35.845 58.8341 35.4456 58.4701 35.1191 57.9976C34.7923 57.5252 34.6291 56.9627 34.6291 56.3094C34.6291 55.2441 35.0058 54.4479 35.7595 53.9202C36.5131 53.3927 37.4225 53.1288 38.4878 53.1288C38.7489 53.1288 39.0228 53.1444 39.3092 53.1754C39.5956 53.2065 39.9172 53.266 40.274 53.3543C40.6305 53.4423 40.9222 53.5848 41.1483 53.7813C41.3744 53.9783 41.4875 54.2163 41.4875 54.4957C41.4875 54.7613 41.4047 55.0369 41.2387 55.3229C41.0728 55.6087 40.8444 55.7518 40.5526 55.7518C40.4322 55.7518 40.1759 55.6565 39.7839 55.4654C39.392 55.2744 38.9598 55.179 38.4876 55.179C37.985 55.179 37.6081 55.2669 37.3572 55.4429C37.1059 55.6188 36.9805 55.8323 36.9805 56.0835C36.9805 56.3148 37.0984 56.5258 37.3347 56.7165C37.5708 56.9076 37.8647 57.0707 38.2164 57.2065C38.5681 57.3423 38.9525 57.518 39.3695 57.734C39.7866 57.9504 40.1708 58.1863 40.5226 58.4426C40.8742 58.6988 41.1681 59.0582 41.4045 59.5204C41.6405 59.9827 41.7587 60.5104 41.7587 61.103C41.7594 62.1391 41.4125 62.9458 40.7192 63.523Z" fill="black"/>
</svg>
