<svg width="19" height="19" viewBox="0 0 19 19" fill="none" xmlns="http://www.w3.org/2000/svg">
<path d="M0.288266 13.2304C0.547475 13.6275 1.03108 14.0456 1.9229 14.3369C2.73878 14.6035 3.81399 14.7347 5.04528 14.7192L15.6247 11.8845C16.6988 11.2823 17.5643 10.631 18.1376 9.99221C18.7642 9.29399 18.9741 8.69011 19 8.21652L0.288266 13.2304ZM13.111 4.52002C12.4844 3.66862 11.6258 3.02841 10.6278 2.66823C9.60391 2.29869 8.5051 2.25275 7.45012 2.53545C6.39513 2.81815 5.46651 3.40733 4.76451 4.23929C4.08032 5.0502 3.65694 6.03394 3.53994 7.08458L3.51114 7.30341L13.2454 4.69514L13.111 4.52002ZM17.0773 6.03408C16.2668 5.7692 15.2003 5.63794 13.9792 5.65149L3.35387 8.49859C2.28954 9.09743 1.43164 9.74432 0.862162 10.379C0.235607 11.0771 0.0258281 11.681 0 12.1546L18.7118 7.14083C18.4526 6.74362 17.969 6.32547 17.0773 6.03408ZM5.87145 15.6508L6.75509 16.6473L15.108 14.4092L15.375 13.1044L5.87145 15.6508Z" fill="url(#paint0_linear_138_2795)"/>
<defs>
<linearGradient id="paint0_linear_138_2795" x1="3.16454" y1="3.78965" x2="16.906" y2="16.3204" gradientUnits="userSpaceOnUse">
<stop stop-color="#7388D9"/>
<stop offset="1" stop-color="#5364A6"/>
</linearGradient>
</defs>
</svg>
