<svg width="19" height="19" viewBox="0 0 19 19" fill="none" xmlns="http://www.w3.org/2000/svg">
<path d="M1.375 5.98751V11.3125C1.375 12.825 2.6 14.05 4.1125 14.05H12.0625C12.625 14.05 13.0875 13.5875 13.0875 13.025V7.68751C13.0875 6.17501 11.8625 4.95001 10.35 4.95001H2.4C1.8375 4.95001 1.375 5.40001 1.375 5.95001V5.98751Z" fill="url(#paint0_linear_138_2788)"/>
<path d="M13.9999 11.9125L16.1999 13.8375C16.5499 14.15 17.0999 14.1125 17.4124 13.7625C17.5499 13.6 17.6249 13.4 17.6249 13.2V5.8C17.6249 5.325 17.2374 4.95 16.7749 4.9375C16.5624 4.9375 16.3624 5.0125 16.2124 5.15L13.9999 7.0875C13.8124 7.25 13.7124 7.4875 13.7124 7.7375V11.275C13.7124 11.5125 13.8249 11.75 13.9999 11.9125Z" fill="url(#paint1_linear_138_2788)"/>
<defs>
<linearGradient id="paint0_linear_138_2788" x1="2.32775" y1="4.59826" x2="12.1282" y2="14.3988" gradientUnits="userSpaceOnUse">
<stop stop-color="#7388D9"/>
<stop offset="1" stop-color="#5364A6"/>
</linearGradient>
<linearGradient id="paint1_linear_138_2788" x1="14.1113" y1="6.978" x2="19.1554" y2="12.0221" gradientUnits="userSpaceOnUse">
<stop stop-color="#7388D9"/>
<stop offset="1" stop-color="#5364A6"/>
</linearGradient>
</defs>
</svg>
